<svg width="239" height="239" viewBox="0 0 239 239" fill="none" xmlns="http://www.w3.org/2000/svg">
<path d="M47.0328 36.6239L119.5 10.3649L191.967 36.6239H198.983L119.5 7.82294L40.0172 36.6239H47.0328Z" fill="#E0E0E0"/>
<path d="M184.952 36.6234H54.0479L119.5 12.9074L184.952 36.6234Z" fill="#E0E0E0"/>
<path d="M117.781 19.7686V21.3838L116.35 21.6591V28.6331C116.35 29.5141 116.587 30.1733 117.061 30.6106C117.535 31.048 118.185 31.2669 119.011 31.2669C119.849 31.2669 120.507 31.0499 120.984 30.6154C121.461 30.1809 121.7 29.5203 121.7 28.6331V21.6591L120.277 21.3838V19.7686H125.811V21.3838L124.379 21.6591V28.6331C124.379 30.1322 123.885 31.2884 122.897 32.102C121.909 32.9155 120.614 33.3223 119.011 33.3223C117.415 33.3223 116.125 32.9155 115.143 32.102C114.161 31.2884 113.67 30.1322 113.67 28.6331V21.6591L112.248 21.3838V19.7686H113.67H116.35H117.781Z" fill="white"/>
<path d="M187.865 39.3404V42.7117H182.48V39.3404H179.109V42.7117H173.724V39.3404H170.352V42.7117H164.968V39.3404H161.596V42.7117H156.211V39.3404H152.84V42.7117H147.455V39.3404H144.084V42.7117H138.699V39.3404H135.328V42.7117H129.943V39.3404H126.572V42.7117H121.187V39.3404H117.816V42.7117H112.43V39.3404H109.059V42.7117H103.674V39.3404H100.303V42.7117H94.9184V39.3404H91.547V42.7117H86.1619V39.3404H82.7905V42.7117H77.4059V39.3404H74.0345V42.7117H68.6499V39.3404H65.2785V42.7117H59.8934V39.3404H56.5221V42.7117H51.1374V39.3404H47.7661V42.7117V49.5165H191.236V42.7117V39.3404H187.865Z" fill="#E0E0E0"/>
<path d="M68.7417 51.1541H50.9496V54.1574H68.7417V51.1541Z" fill="#E0E0E0"/>
<path d="M68.7417 111.858H50.9496V114.861H68.7417V111.858Z" fill="#E0E0E0"/>
<path d="M66.5806 55.405H53.1096V110.696H66.5806V55.405Z" fill="#E0E0E0"/>
<path d="M107.716 51.1541H89.9238V54.1574H107.716V51.1541Z" fill="#E0E0E0"/>
<path d="M107.716 111.858H89.9238V114.861H107.716V111.858Z" fill="#E0E0E0"/>
<path d="M105.555 55.405H92.0843V110.696H105.555V55.405Z" fill="#E0E0E0"/>
<path d="M170.258 54.1572H188.051V51.1539H170.258V54.1572Z" fill="#E0E0E0"/>
<path d="M170.258 114.862H188.051V111.858H170.258V114.862Z" fill="#E0E0E0"/>
<path d="M172.419 110.696H185.89V55.4052H172.419V110.696Z" fill="#E0E0E0"/>
<path d="M131.284 54.1572H149.076V51.1539H131.284V54.1572Z" fill="#E0E0E0"/>
<path d="M131.284 114.862H149.076V111.858H131.284V114.862Z" fill="#E0E0E0"/>
<path d="M133.445 110.696H146.916V55.4052H133.445V110.696Z" fill="#E0E0E0"/>
<path d="M211.498 76.6688C211.796 78.9885 208.969 80.9225 206.515 80.4761C206.663 81.8733 204.699 82.6773 203.911 81.9636C204.699 82.9947 205.989 86.2503 203.911 88.0227C201.833 89.7952 199.156 88.7823 199.156 88.7823C199.156 88.7823 198.18 91.2057 194.49 90.5547C190.8 89.9037 190.041 86.1413 190.475 84.8029C188.054 86.2011 183.132 85.1284 180.925 81.8728C178.718 78.6171 178.899 74.5699 180.78 72.7248C179.495 71.5126 179.908 69.5877 180.667 68.6833C181.427 67.779 182.515 67.8617 182.515 67.8617C182.515 67.8617 181.476 66.6624 182.697 65.8478C180.961 64.835 180.165 61.2175 182.951 58.5043C185.736 55.7912 189.906 56.8743 189.906 56.8743C189.906 56.8743 189.053 54.1904 190.893 51.8123C192.478 49.7646 195.107 49.9701 195.107 49.9701C195.107 49.9701 194.993 48.0462 196.875 47.9491C195.784 45.9688 196.819 43.4645 198.254 42.368C200.921 40.3303 207.714 39.7873 207.674 44.867C210.434 42.7471 214.58 45.6136 213.916 48.4482C216.194 46.4669 219.874 49.147 219.017 51.8845C222.314 50.9467 225.754 54.8667 223.914 58.5067C225.196 57.7663 228.103 58.2978 228.024 60.7471C229.688 60.2409 231.533 61.2251 232.003 62.9617C232.473 64.6978 231.735 66.0285 230.433 66.8966C231.673 66.7159 232.433 68.7866 231.604 69.3927C234.028 69.3927 235.671 74.4681 232.713 76.1464C234.413 77.3399 235.267 84.5907 230.058 87.5208C224.849 90.451 217.363 88.6766 216.98 83.9234C214.774 83.3809 213.843 81.0043 215.326 79.7022C213.879 80.282 211.636 78.4733 211.498 76.6688Z" fill="#EBEBEB"/>
<path opacity="0.07" d="M230.059 87.5218C235.267 84.5917 234.414 77.3414 232.713 76.1473C235.672 74.469 234.028 69.3936 231.605 69.3936C232.434 68.7875 231.674 66.7168 230.433 66.8975C231.735 66.0295 232.473 64.6987 232.003 62.9626C231.768 62.0974 231.193 61.4196 230.468 61.0191C231.527 62.7227 231.094 65.6934 228.254 66.3024C225.806 66.8273 224.504 65.0768 224.504 65.0768C224.504 65.0768 223.906 66.1131 221.242 65.7819C218.578 65.4506 217.246 62.8226 217.951 60.7069C219.205 58.5913 217.246 56.0058 214.717 56.3973C214.839 61.7251 210.23 63.3355 205.885 61.2557C208 66.5835 203.378 69.1695 201.027 66.8187C200.243 68.7775 197.658 68.5423 196.482 67.3669C195.307 68.6207 191.624 67.3669 191.624 64.3895C189.43 67.1317 185.513 66.3483 185.2 63.4492C183.53 65.6394 181.44 64.4095 181.222 63.5482C181.438 64.5893 181.99 65.4358 182.698 65.8488C181.476 66.6633 182.515 67.8626 182.515 67.8626C182.515 67.8626 181.427 67.7799 180.668 68.6843C179.908 69.5887 179.496 71.5136 180.781 72.7258C178.9 74.5709 178.718 78.6181 180.925 81.8737C183.132 85.1294 188.054 86.202 190.475 84.8039C190.041 86.1423 190.801 89.9046 194.491 90.5557C198.18 91.2067 199.157 88.7832 199.157 88.7832C199.157 88.7832 201.834 89.7961 203.911 88.0237C205.989 86.2513 204.7 82.9956 203.911 81.9646C204.7 82.6782 206.663 81.8742 206.515 80.477C208.969 80.9235 211.796 78.9895 211.498 76.6698C211.636 78.4742 213.879 80.283 215.327 79.7041C213.843 81.0062 214.774 83.3828 216.98 83.9253C217.364 88.6776 224.849 90.4519 230.059 87.5218Z" fill="black"/>
<path d="M201.085 72.4772C201.085 72.4772 196.406 73.8634 195.107 70.5136C192.722 71.8902 188.263 71.5533 186.761 68.55C184.22 68.55 182.698 65.8493 182.698 65.8493C181.476 66.6638 182.515 67.8631 182.515 67.8631C182.515 67.8631 181.427 67.7804 180.668 68.6848C179.908 69.5891 179.496 71.5141 180.781 72.7263C180.581 72.9218 180.406 73.1464 180.245 73.3878C179.467 75.427 182.146 76.979 183.815 76.0006C183.18 78.0799 185.548 84.3173 192.133 81.7184C196.06 84.2021 200.045 81.1988 199.525 75.7119C201.483 75.7114 202.413 73.5742 201.085 72.4772Z" fill="#EBEBEB"/>
<path d="M225.977 78.0216C227.996 75.6172 227.421 73.112 227.421 73.112C227.421 73.112 225.441 75.9877 221.299 74.2238C217.157 72.46 219.393 68.376 219.393 68.376C219.393 68.376 216.216 68.6346 216.794 65.8483C215.768 66.3607 214.195 65.7766 214.195 63.7552C213.739 67.256 210.791 68.9481 207.091 68.1446C209.574 69.0686 209.401 70.993 207.668 72.3697C205.709 74.3285 205.947 79.2405 210.647 79.0641C211.261 78.3987 211.612 77.5622 211.497 76.6679C211.635 78.4723 213.878 80.2811 215.326 79.7022C215.326 79.7022 216.678 80.9082 218.295 79.349C219.48 80.5339 223.959 80.4259 225.977 78.0216Z" fill="#EBEBEB"/>
<path d="M220.682 86.9558C220.682 86.9558 224.383 81.5487 224.179 81.1271C223.975 80.7055 220.682 86.0816 218.642 87.539C216.602 88.9964 212.522 91.4734 211.502 91.4734C210.482 91.4734 210.409 90.2349 210.773 87.8301C211.137 85.4258 211.219 84.77 212.89 82.5841C214.562 80.3982 219.356 74.4815 219.079 74.2052C218.803 73.9289 212.723 81.6926 211.211 82.6572C209.734 83.5989 208.435 77.2654 207.932 77.2654C207.429 77.2654 209.379 81.7982 209.501 83.911C209.624 86.0237 209.389 88.5586 208.442 89.2144C207.495 89.8702 204.909 87.8301 203.233 86.0085C201.557 84.1868 201.521 76.318 200.865 76.318C200.208 76.318 201.287 83.5405 201.287 84.2375C201.287 85.7565 194.883 81.597 193.724 81.7825C192.566 81.9679 199.621 84.4836 202.395 87.1743C204.811 89.5174 205.224 90.255 206.048 91.9906C206.923 93.8328 207.178 96.2094 207.178 102.985C207.178 109.761 205.353 128.737 205.353 132.936C205.353 133.493 205.721 134.05 206.457 134.475C207.929 135.325 210.315 135.325 211.787 134.475C212.523 134.05 212.891 133.493 212.891 132.936C212.891 128.737 211.066 109.761 211.066 102.985C211.066 96.209 211.34 93.6799 213.352 92.2487C215.365 90.8176 218.799 88.2847 220.319 87.8301C221.839 87.376 226.221 88.1226 226.221 87.8301C226.219 87.538 220.682 86.9558 220.682 86.9558Z" fill="#F0F0F0"/>
<path d="M27.5017 76.6688C27.2044 78.9885 30.0308 80.9225 32.4853 80.4761C32.3367 81.8733 34.3008 82.6773 35.089 81.9636C34.3008 82.9947 33.0111 86.2503 35.089 88.0227C37.1669 89.7952 39.8437 88.7823 39.8437 88.7823C39.8437 88.7823 40.8202 91.2057 44.5099 90.5547C48.1996 89.9037 48.9591 86.1413 48.5251 84.8029C50.9462 86.2011 55.8681 85.1284 58.0751 81.8728C60.2815 78.6171 60.1008 74.5699 58.2199 72.7248C59.5048 71.5126 59.0922 69.5877 58.3327 68.6833C57.5732 67.779 56.4852 67.8617 56.4852 67.8617C56.4852 67.8617 57.5244 66.6624 56.3026 65.8478C58.0392 64.835 58.8351 61.2175 56.0493 58.5043C53.264 55.7912 49.0944 56.8743 49.0944 56.8743C49.0944 56.8743 49.9471 54.1904 48.1068 51.8123C46.5218 49.7646 43.8933 49.9701 43.8933 49.9701C43.8933 49.9701 44.007 48.0462 42.1247 47.9491C43.216 45.9688 42.1806 43.4645 40.7456 42.368C38.0798 40.3303 31.286 39.7873 31.3262 44.867C28.5662 42.7471 24.42 45.6136 25.0845 48.4482C22.8068 46.4669 19.1267 49.147 19.9837 51.8845C16.6865 50.9467 13.2463 54.8667 15.0866 58.5067C13.8037 57.7663 10.8979 58.2978 10.9768 60.7471C9.31284 60.2409 7.46776 61.2251 6.99789 62.9617C6.52754 64.6978 7.26557 66.0285 8.56716 66.8966C7.32723 66.7159 6.56721 68.7866 7.39606 69.3927C4.9726 69.3927 3.32924 74.4681 6.28758 76.1464C4.58734 77.3399 3.73315 84.5907 8.94239 87.5208C14.1516 90.451 21.6371 88.6766 22.0205 83.9234C24.2269 83.3809 25.1576 81.0043 23.6744 79.7022C25.1208 80.282 27.3636 78.4733 27.5017 76.6688Z" fill="#EBEBEB"/>
<path opacity="0.07" d="M8.94148 87.5218C3.73223 84.5917 4.58642 77.3414 6.28667 76.1473C3.32832 74.4691 4.97169 69.3937 7.39515 69.3937C6.5663 68.7875 7.32632 66.7169 8.56673 66.8975C7.26513 66.0295 6.5271 64.6987 6.99745 62.9626C7.23167 62.0975 7.80766 61.4197 8.53183 61.0191C7.47306 62.7227 7.90613 65.6934 10.7459 66.3024C13.1942 66.8273 14.4958 65.0768 14.4958 65.0768C14.4958 65.0768 15.0943 66.1131 17.7582 65.7819C20.4221 65.4506 21.7543 62.8226 21.0492 60.707C19.7954 58.5913 21.7543 56.0058 24.2829 56.3973C24.161 61.7251 28.7704 63.3355 33.1154 61.2557C30.9997 66.5835 35.6225 69.1695 37.9733 66.8187C38.7567 68.7775 41.3422 68.5423 42.5176 67.3669C43.693 68.6207 47.3755 67.3669 47.3755 64.3895C49.5696 67.1318 53.4873 66.3483 53.8003 63.4492C55.47 65.6394 57.5598 64.4095 57.7778 63.5482C57.5617 64.5893 57.0101 65.4358 56.3022 65.8488C57.524 66.6633 56.4848 67.8626 56.4848 67.8626C56.4848 67.8626 57.5727 67.7799 58.3323 68.6843C59.0918 69.5887 59.5043 71.5136 58.2195 72.7258C60.1004 74.5709 60.2815 78.6181 58.0746 81.8738C55.8682 85.1294 50.9462 86.202 48.5247 84.8039C48.9587 86.1423 48.1991 89.9046 44.5095 90.5557C40.8198 91.2067 39.8432 88.7832 39.8432 88.7832C39.8432 88.7832 37.1664 89.7961 35.0886 88.0237C33.0107 86.2513 34.3003 82.9956 35.0886 81.9646C34.3003 82.6782 32.3367 81.8742 32.4854 80.477C30.0308 80.9235 27.2044 78.9895 27.5017 76.6698C27.3636 78.4742 25.1208 80.283 23.6734 79.7041C25.1567 81.0062 24.226 83.3828 22.0196 83.9253C21.6362 88.6776 14.1507 90.4519 8.94148 87.5218Z" fill="black"/>
<path d="M37.9154 72.4772C37.9154 72.4772 42.5941 73.8634 43.8933 70.5136C46.2776 71.8902 50.7373 71.5533 52.2387 68.55C54.7802 68.55 56.3022 65.8493 56.3022 65.8493C57.524 66.6638 56.4848 67.8631 56.4848 67.8631C56.4848 67.8631 57.5727 67.7804 58.3322 68.6848C59.0918 69.5892 59.5043 71.5141 58.2194 72.7263C58.4188 72.9218 58.5942 73.1464 58.7548 73.3878C59.533 75.427 56.8538 76.979 55.1846 76.0006C55.8199 78.0799 53.4519 84.3173 46.8679 81.7184C42.9407 84.2021 38.9556 81.1988 39.4752 75.7119C37.5173 75.7114 36.5871 73.5742 37.9154 72.4772Z" fill="#EBEBEB"/>
<path d="M13.0226 78.0216C11.004 75.6172 11.5786 73.112 11.5786 73.112C11.5786 73.112 13.559 75.9877 17.7008 74.2238C21.8427 72.46 19.6066 68.376 19.6066 68.376C19.6066 68.376 22.7834 68.6346 22.2055 65.8483C23.2318 66.3607 24.8049 65.7766 24.8049 63.7552C25.2609 67.256 28.2082 68.9482 31.9089 68.1446C29.4252 69.0686 29.5987 70.993 31.3315 72.3697C33.2903 74.3285 33.0523 79.2405 28.3516 79.0641C27.7379 78.3987 27.387 77.5622 27.5017 76.6679C27.3636 78.4723 25.1208 80.2811 23.6734 79.7022C23.6734 79.7022 22.3212 80.9082 20.7036 79.349C19.5201 80.5339 15.0408 80.4259 13.0226 78.0216Z" fill="#EBEBEB"/>
<path d="M18.3184 86.9558C18.3184 86.9558 14.6168 81.5487 14.8214 81.1271C15.0259 80.7055 18.3184 86.0816 20.3585 87.539C22.3986 88.9964 26.4788 91.4734 27.4989 91.4734C28.5189 91.4734 28.5916 90.2349 28.2273 87.8301C27.8631 85.4258 27.7818 84.77 26.1103 82.5841C24.4387 80.3982 19.6449 74.4815 19.9211 74.2052C20.1974 73.9289 26.2771 81.6926 27.79 82.6572C29.267 83.5989 30.5652 77.2654 31.0686 77.2654C31.5719 77.2654 29.6217 81.7982 29.4993 83.911C29.3769 86.0237 29.6112 88.5586 30.5581 89.2144C31.5055 89.8702 34.0914 87.8301 35.7673 86.0085C37.4432 84.1868 37.479 76.318 38.1358 76.318C38.7926 76.318 37.7142 83.541 37.7142 84.2379C37.7142 85.757 44.1185 81.5975 45.2766 81.7829C46.4348 81.9684 39.3805 84.4841 36.6062 87.1748C34.1904 89.5179 33.7769 90.2555 32.9529 91.9911C32.0781 93.8333 31.8229 96.2099 31.8229 102.986C31.8229 109.762 33.6483 128.738 33.6483 132.937C33.6483 133.493 33.2803 134.05 32.5442 134.475C31.0724 135.325 28.6857 135.325 27.214 134.475C26.4779 134.05 26.1098 133.493 26.1098 132.937C26.1098 128.738 27.9353 109.762 27.9353 102.986C27.9353 96.2094 27.6609 93.6803 25.6485 92.2492C23.6366 90.8181 20.2017 88.2852 18.6817 87.8306C17.1616 87.3765 12.7798 88.1231 12.7798 87.8306C12.7808 87.538 18.3184 86.9558 18.3184 86.9558Z" fill="#F0F0F0"/>
<path d="M39.1219 121.073C-5.26852 146.702 -5.26757 188.255 39.1243 213.883C83.5162 239.512 155.488 239.512 199.878 213.883C244.269 188.255 244.268 146.702 199.876 121.073C155.484 95.4442 83.5123 95.4442 39.1219 121.073Z" fill="#FAFAFA"/>
<path d="M115.682 201.7C132.961 201.7 146.969 193.613 146.969 183.637C146.969 173.66 132.961 165.573 115.682 165.573C98.4024 165.573 84.3947 173.66 84.3947 183.637C84.3947 193.613 98.4024 201.7 115.682 201.7Z" fill="#E0E0E0"/>
<path d="M47.8492 219.595C65.1286 219.595 79.1363 211.508 79.1363 201.531C79.1363 191.555 65.1286 183.468 47.8492 183.468C30.5699 183.468 16.5622 191.555 16.5622 201.531C16.5622 211.508 30.5699 219.595 47.8492 219.595Z" fill="#E0E0E0"/>
<path d="M188.687 218.969C205.967 218.969 219.974 210.882 219.974 200.905C219.974 190.929 205.967 182.842 188.687 182.842C171.408 182.842 157.4 190.929 157.4 200.905C157.4 210.882 171.408 218.969 188.687 218.969Z" fill="#E0E0E0"/>
<path d="M28.788 190.862C29.3387 185.01 28.9142 182.109 29.5968 172.97C29.6905 170.625 29.8286 168.114 30.0332 165.885C30.722 158.386 31.9347 155.843 32.0728 154.396C32.0728 154.396 32.5202 142.715 33.3606 126.292C33.7559 118.566 36.046 116.273 37.9231 112.208L59.1989 112.66C61.3604 122.836 61.5673 144.931 61.2743 155.365C61.1247 160.684 58.8203 187.235 58.7634 187.889C58.5617 190.208 58.7448 191.129 59.6343 192.125C61.4971 194.211 64.2193 196.217 66.5696 198.051C66.2044 198.957 62.9139 199.29 61.5066 198.564C59.2586 197.404 57.0393 195.661 56.2764 195.07C54.3443 193.576 51.8611 192.357 51.8759 190.145C51.8764 189.869 51.8032 189.792 51.8185 189.748C51.8085 188.456 49.1742 170.791 49.0179 166.368C48.8831 162.565 49.483 156.129 49.483 156.129L47.3746 139.986C47.3746 139.986 45.6614 149.464 43.9946 155.926C42.6381 161.185 40.3943 170.161 38.8552 176.636C37.3509 184.102 35.5469 187.976 35.1258 191.721C35.0035 192.614 33.5475 201.365 33.0857 203.369C32.624 205.374 28.234 205.334 28.0266 201.865C27.8875 199.556 28.6843 191.963 28.788 190.862Z" fill="#FFBDA7"/>
<path d="M47.3741 139.987L49.4128 128.418C49.4128 128.418 56.3571 127.743 58.9278 125.377C58.9278 125.377 55.6559 129.791 50.9404 130.422L48.7603 140.001L49.4644 155.991L47.3741 139.987Z" fill="#9A4A4D"/>
<path d="M70.1666 200.901C70.288 200.902 70.4572 202.243 69.7913 202.805C69.0227 203.454 66.7751 204.509 63.8249 204.096C60.8742 203.682 59.2844 202.752 58.1124 201.75C56.9403 200.748 55.2984 199.335 53.9647 199.026C52.7263 198.739 51.384 198.162 50.9906 197.774C50.5977 197.387 50.6708 195.681 50.6708 195.681L70.1666 200.901Z" fill="#263238"/>
<path d="M51.7697 189.124C51.7697 189.124 51.547 189.128 51.4662 189.523C51.3706 189.992 51.2578 191.358 51.0542 192.127C50.7717 193.197 50.5666 195.394 50.72 196.269C50.8735 197.145 52.8911 197.774 54.1788 198.28C55.4943 198.797 57.0115 199.85 58.3408 200.97C59.7169 202.129 62.6256 203.309 64.5505 203.358C67.4897 203.432 69.4017 202.655 70.0006 201.604C70.7415 200.304 70.5977 199.114 67.2359 197.513C66.5997 197.21 64.3674 195.857 63.6069 195.367C62.8034 194.849 62.0338 194.275 61.3264 193.632C60.9684 193.306 60.6261 192.963 60.3058 192.6C60.0238 192.281 59.6261 191.894 59.4617 191.498C59.4244 191.409 59.3991 191.304 59.3661 191.211C59.2705 190.943 59.205 190.696 59.1543 190.417C59.1027 190.135 59.0731 189.726 58.8073 189.555C58.5028 189.358 57.9488 189.376 57.6013 189.399C57.1639 189.428 56.1946 189.632 55.7701 189.739C55.0134 189.93 54.8041 190.141 54.5048 190.605C54.2754 190.961 54.2357 191.412 54.2137 191.826C54.2032 192.023 54.2056 192.221 54.2013 192.419C54.1994 192.503 54.2338 192.655 54.1162 192.619C54.0044 192.584 53.882 192.288 53.8404 192.188C53.7491 191.966 53.6918 191.729 53.5914 191.511C53.4767 191.261 53.3471 191.005 53.1784 190.791C53.0211 190.591 52.849 190.399 52.6497 190.241C52.4686 190.096 52.2358 190.023 52.0752 189.86C51.8725 189.654 51.786 189.291 51.7697 189.124Z" fill="#37474F"/>
<path d="M67.779 197.777C63.5195 198.025 61.7337 201.066 61.5358 202.691C62.5864 203.075 63.671 203.335 64.551 203.357C67.4903 203.432 69.5232 202.657 70.1221 201.606C70.8214 200.381 70.7841 198.954 67.779 197.777Z" fill="white"/>
<path d="M60.9804 198.18C60.934 198.179 60.8876 198.164 60.8494 198.131C60.7615 198.058 60.75 197.927 60.8231 197.839C61.4235 197.12 63.5601 195.751 65.1055 195.935C65.2198 195.948 65.3015 196.052 65.2876 196.166C65.2743 196.28 65.1739 196.361 65.0572 196.348C63.6146 196.18 61.6185 197.535 61.1424 198.106C61.1008 198.155 61.0411 198.18 60.9804 198.18Z" fill="#F0F0F0"/>
<path d="M59.1587 197.093C59.1123 197.092 59.066 197.077 59.0277 197.045C58.9393 196.971 58.9283 196.84 59.0014 196.752C59.6023 196.032 61.7399 194.66 63.2838 194.848C63.3981 194.861 63.4798 194.965 63.466 195.079C63.4526 195.193 63.3541 195.274 63.2351 195.261C61.793 195.091 59.7963 196.448 59.3207 197.019C59.2792 197.068 59.2194 197.093 59.1587 197.093Z" fill="#F0F0F0"/>
<path d="M57.4738 195.855C57.4274 195.854 57.381 195.839 57.3428 195.806C57.2544 195.732 57.2434 195.601 57.3165 195.513C57.9169 194.793 60.0607 193.424 61.5989 193.609C61.7131 193.623 61.7949 193.726 61.781 193.84C61.7676 193.954 61.6682 194.035 61.5501 194.022C60.1099 193.853 58.1114 195.209 57.6358 195.78C57.5937 195.83 57.534 195.856 57.4738 195.855Z" fill="#F0F0F0"/>
<path d="M55.8227 194.617C55.7778 194.617 55.7319 194.601 55.6942 194.571C55.6048 194.499 55.5914 194.368 55.6636 194.279C56.4896 193.258 58.7572 192.173 60.3002 192.358C60.4144 192.371 60.4961 192.475 60.4823 192.589C60.4689 192.702 60.369 192.781 60.2514 192.771C58.8619 192.605 56.7195 193.636 55.9862 194.541C55.9446 194.592 55.8834 194.618 55.8227 194.617Z" fill="#F0F0F0"/>
<path d="M34.665 204.643C34.4963 206.761 34.1373 208.16 33.3582 209.388C32.5795 210.615 31.1513 210.976 29.7216 210.581C28.2919 210.187 26.4712 209.174 26.0978 207.336C25.725 205.498 25.5113 204.239 25.8799 202.279L34.665 204.643Z" fill="#263238"/>
<path d="M28.9319 189.102C28.3387 189.136 28.1193 192.036 27.7168 194.879C27.2857 197.927 26.3464 199.172 25.9659 201.671C25.5314 204.525 25.9779 205.814 26.9439 207.567C27.9099 209.319 31.4247 211.092 33.2272 208.651C34.6966 206.66 34.8037 204.421 34.7344 201.559C34.6627 198.601 34.9107 196.56 35.079 194.32C35.2401 192.179 36.0144 189.791 35.5049 189.542C35.4117 190.021 35.3185 190.403 35.2697 190.711C35.21 191.091 35.0393 191.578 34.8935 191.938C34.83 192.096 34.6942 192.26 34.6459 192C34.6129 191.824 34.6345 191.642 34.6574 191.467C34.7606 190.679 34.3644 190.606 34.1512 190.54C33.6885 190.397 31.8549 190.132 31.4118 190.092C30.9601 190.052 29.3994 189.95 29.191 190.204C29.05 190.375 29.0242 190.667 28.974 191.027C28.9142 191.457 28.8081 191.771 28.7981 191.635C28.7766 191.326 28.8225 190.689 28.8344 190.495C28.8454 190.31 28.8784 189.912 28.8851 189.726C28.8927 189.543 28.9157 189.285 28.9319 189.102Z" fill="#37474F"/>
<path d="M25.7666 203.326C25.6265 205.101 26.0257 206.328 26.7819 207.699C27.7479 209.451 31.5485 211.237 33.351 208.795C34.2477 207.58 34.5121 206.127 34.6636 204.642C33.656 202.709 27.4558 201.735 25.7666 203.326Z" fill="white"/>
<path d="M33.438 201.501C33.4131 201.499 33.3892 201.491 33.3653 201.48C33.3419 201.468 30.625 200.276 27.9443 200.837C27.8258 200.86 27.7096 200.785 27.6843 200.666C27.6595 200.548 27.7359 200.431 27.855 200.406C30.6905 199.815 33.4605 201.036 33.5637 201.087C33.6722 201.142 33.7157 201.274 33.6607 201.382C33.6182 201.467 33.5274 201.512 33.438 201.501Z" fill="#F0F0F0"/>
<path d="M28.1222 198.706C28.0395 198.696 27.9659 198.639 27.9391 198.554C27.9032 198.438 27.9668 198.315 28.0825 198.278C30.7569 197.435 33.6756 198.848 33.7855 198.909C33.8921 198.967 33.9308 199.1 33.8716 199.207C33.8128 199.313 33.6775 199.349 33.5733 199.293C33.5484 199.28 30.7039 197.91 28.2154 198.698C28.1843 198.707 28.1528 198.71 28.1222 198.706Z" fill="#F0F0F0"/>
<path d="M28.2584 196.697C28.1771 196.686 28.1045 196.631 28.0768 196.548C28.0385 196.433 28.1002 196.308 28.2154 196.27C31.1584 195.286 33.9246 196.821 34.0269 196.886C34.1292 196.952 34.1593 197.088 34.0943 197.189C34.0288 197.292 33.8907 197.322 33.7912 197.257C33.7688 197.242 31.0948 195.772 28.3554 196.686C28.3224 196.697 28.2899 196.7 28.2584 196.697Z" fill="#F0F0F0"/>
<path d="M28.4458 194.719C28.3659 194.709 28.2938 194.655 28.2651 194.574C28.2249 194.459 28.2847 194.334 28.3994 194.294C31.1584 193.327 34.1373 194.904 34.2487 194.972C34.3529 195.034 34.3854 195.169 34.3228 195.273C34.2606 195.377 34.1258 195.412 34.0216 195.347C33.9958 195.332 31.1068 193.81 28.5447 194.708C28.5117 194.72 28.4783 194.723 28.4458 194.719Z" fill="#EBEBEB"/>
<path d="M36.4384 112.176C33.8199 116.719 32.3826 120.449 31.8362 134.111C31.2899 147.772 31.1168 151.97 31.0284 153.617C30.94 155.263 29.3067 157.691 28.9505 165.36C28.5117 174.813 28.8798 182.271 28.8798 182.271C28.8798 182.271 29.7966 183.672 32.8945 184.016C35.7525 184.334 37.5239 183.296 37.5239 183.296C37.5239 183.296 41.6338 169.005 42.824 164.139C44.0142 159.272 47.3048 143.258 47.3048 143.258L48.8999 156.337C48.8999 156.337 47.931 160.798 48.6527 167.936C49.3745 175.073 50.461 180.763 50.461 180.763C50.461 180.763 52.72 181.759 55.1708 181.774C57.6215 181.789 59.489 180.767 59.489 180.767C59.489 180.767 61.9053 161.155 62.0769 153.086C62.2485 145.017 62.0879 124.434 60.511 112.449L36.4384 112.176Z" fill="#37474F"/>
<path d="M50.1914 127.795L47.3048 143.257L48.8999 156.336L48.3855 143.105L50.9409 130.422C52.8964 129.997 57.3734 127.757 58.6611 124.452C55.5952 127.524 50.1914 127.795 50.1914 127.795ZM41.2906 118.531C41.662 117.234 42.0521 115.945 42.4875 114.649C41.7304 115.792 41.1534 117.044 40.6572 118.316C40.1568 119.59 39.7581 120.899 39.4068 122.218C39.0703 123.541 38.7864 124.876 38.5818 126.224C38.3734 127.571 38.2242 128.932 38.2252 130.301C38.5794 128.981 38.9102 127.67 39.24 126.358C39.576 125.048 39.8924 123.737 40.239 122.433C40.5698 121.127 40.9268 119.828 41.2906 118.531ZM39.3576 117.512C39.8136 116.725 40.2725 115.936 40.6936 115.105C39.9914 115.718 39.3729 116.409 38.8036 117.137C38.23 117.862 37.7214 118.637 37.2534 119.436C36.7993 120.243 36.3849 121.075 36.0613 121.946C35.7334 122.814 35.4767 123.716 35.3782 124.644L36.6717 122.226C37.1095 121.434 37.5431 120.644 37.9991 119.864C38.4408 119.076 38.9059 118.301 39.3576 117.512ZM36.6349 169.288C35.7893 173.474 34.9987 177.672 34.2621 181.879C35.3261 177.74 36.3361 173.591 37.2912 169.431C38.2586 165.27 39.1745 161.116 40.0846 156.928C40.9417 152.728 41.5511 148.491 42.0535 144.248C42.5649 140.006 42.9626 135.753 43.3111 131.495C42.6328 135.713 42.0133 139.939 41.3905 144.159C40.7528 148.376 40.1095 152.591 39.2424 156.754C38.3542 160.912 37.4676 165.103 36.6349 169.288ZM59.1515 148.531C59.197 150.384 59.2672 152.247 59.1974 154.077C59.1205 155.914 58.968 157.773 58.8351 159.624L58.436 165.185C58.1669 168.893 57.9389 172.606 57.7563 176.323C58.272 172.637 58.7233 168.943 59.1047 165.243C59.4881 161.539 59.8509 157.849 60.0564 154.108C60.1248 150.346 59.8848 146.644 59.631 142.926C59.3662 139.213 58.9986 135.507 58.5034 131.818L58.9632 142.963C59.0268 144.82 59.1066 146.676 59.1515 148.531Z" fill="#263238"/>
<path d="M90.4883 91.6517C90.1518 91.4486 89.7431 91.3907 89.3511 91.418C88.713 91.462 88.1217 91.7134 87.5032 91.8501C86.561 92.0585 85.0415 92.4074 84.1108 92.0939C83.921 92.0298 83.5477 91.8391 83.8775 91.6761C84.3073 91.4629 84.759 91.2832 85.1461 90.9997C85.5333 90.7163 85.8588 90.3038 85.9038 89.8262C85.9172 89.6824 85.9014 89.527 85.8139 89.4123C85.6896 89.2493 85.5591 89.2923 85.4081 89.3502C85.2489 89.4109 85.0792 89.4443 84.9119 89.4845C84.5678 89.5667 84.2236 89.6499 83.8804 89.7368C81.8781 90.2464 79.8265 90.9252 78.3069 92.3907C78.0861 92.6034 76.6229 94.3558 75.7252 95.3237C74.9619 96.2219 70.0992 100.609 70.0992 100.609C70.0992 100.609 67.7168 97.8452 65.9798 95.9035C62.8847 92.4447 61.6869 91.0652 60.597 89.9113C59.641 88.8994 58.0483 87.6685 56.2415 87.431L57.4293 100.016C57.4293 100.016 63.334 105.459 65.0577 106.859C68.604 109.739 69.81 110.557 71.711 109.25C73.7535 107.846 75.1301 106.355 77.1655 102.764C78.8275 99.8317 79.2366 99.142 79.8164 98.2519C80.3102 97.4948 81.4971 97.555 82.1333 97.5407C83.2958 97.5144 83.5974 97.4652 84.7288 97.198C85.4741 97.0225 86.2035 96.7649 86.8775 96.4002C87.16 96.2472 87.6164 96.0493 87.7995 95.7759C87.9706 95.5202 88.0094 95.1966 88.2168 94.9475C88.4496 94.6684 88.8076 94.5063 89.0079 94.2033C89.1656 93.9652 89.2058 93.6708 89.2971 93.4002C89.4429 92.97 89.7827 92.7946 90.1656 92.6039C90.3516 92.5116 90.5542 92.428 90.6785 92.2621C90.8793 91.9944 90.7168 91.7899 90.4883 91.6517Z" fill="#FFBDA7"/>
<path d="M55.513 86.8512C57.9154 87.2092 58.5593 87.5801 60.5645 89.5552C62.5702 91.5303 65.0391 94.1627 65.0391 94.1627C65.0391 94.1627 64.0745 97.4164 61.6347 100.033C60.6931 101.043 58.3829 102.343 58.3829 102.343L55.9953 100.593L55.513 86.8512Z" fill="#E6E6E6"/>
<path d="M70.0996 100.608L70.0992 100.608C70.0968 100.604 69.7426 100.273 69.4529 99.8609C68.0954 101.163 67.3626 103.433 67.9185 105.332C67.9071 104.569 68.3463 102.314 70.0996 100.608Z" fill="#F0997A"/>
<path d="M82.8006 92.6029C82.097 93.5652 80.6625 94.4719 79.9316 94.644C79.9316 94.644 80.9914 94.8357 81.7289 94.2955C82.5363 93.7033 82.7313 93.0527 82.8006 92.6029Z" fill="#F0997A"/>
<path d="M33.633 118.486C34.6569 114.248 35.5488 111.003 35.5589 110.062C35.6033 105.978 34.6445 100.589 34.3405 98.2113C33.6784 93.0327 35.1731 88.181 36.3968 87.1901L42.368 85.7499C42.368 85.7499 49.3114 85.8961 50.4443 86.0357C51.0031 86.1045 55.5092 86.8502 55.512 86.8521C55.512 86.8521 57.1468 88.9768 59.0306 91.9438C62.0932 96.7668 62.3398 99.0253 61.4173 103.272C60.152 109.099 61.3025 114.882 61.2074 119.335C57.4585 123.443 43.0506 125.533 33.633 118.486Z" fill="#455A64"/>
<path d="M39.4178 66.8311C39.391 66.9582 38.6884 67.3406 38.5579 67.4606C38.3093 67.6891 38.0889 67.9463 37.9054 68.2302C37.5086 68.8449 37.3031 69.5581 37.1764 70.2732C36.9609 71.4887 37.0154 72.7277 36.9212 73.9542C36.8289 75.1579 36.5555 76.2936 36.2859 77.4728C36.0517 78.4972 35.816 79.5363 35.8567 80.5865C35.8968 81.6367 36.2467 82.7174 37.0206 83.4282C36.7792 82.3981 36.7826 81.3121 37.0302 80.2834C37.0899 80.9373 37.1674 81.6008 37.4231 82.2055C37.8256 83.1572 38.6458 83.8857 39.5621 84.3632C40.4785 84.8407 41.4937 85.0916 42.5033 85.3106C44.1452 85.6667 45.8478 85.8493 47.5227 85.8029C48.5629 85.7742 49.602 85.693 50.6341 85.5601C51.9677 85.388 53.329 85.1146 54.4542 84.3785C55.5794 83.6424 56.4279 82.3498 56.2912 81.0119C56.6702 81.6563 56.8576 82.412 56.8237 83.1591C57.5531 82.3627 57.8757 81.2485 57.8466 80.1692C57.817 79.0899 57.4608 78.0407 56.9738 77.077C56.6645 76.4652 56.2998 75.8768 56.0775 75.2281C55.894 74.6928 55.7501 73.9389 56.0039 73.3993C56.1836 73.0178 56.4848 72.667 56.6755 72.2736C57.1903 71.2115 57.5469 70.0217 57.4628 68.8306C57.2897 66.3741 55.8433 63.1605 51.3577 62.151C47.6207 61.3107 40.4335 61.978 39.4178 66.8311Z" fill="#263238"/>
<path d="M39.7882 124.513L29.5461 120.072C29.5461 120.072 27.1155 126.437 26.3024 131.466C25.6686 135.387 26.8263 137.587 29.3196 139.474C31.8128 141.361 36.2725 144.265 38.4078 144.143C40.543 144.021 43.0037 142.944 43.8331 141.188C44.6624 139.434 44.6509 123.536 44.6509 123.536L39.7882 124.513Z" fill="#0939AE"/>
<path opacity="0.4" d="M39.7882 124.513L29.5461 120.072C29.5461 120.072 27.1155 126.437 26.3024 131.466C25.6686 135.387 26.8263 137.587 29.3196 139.474C31.8128 141.361 36.2725 144.265 38.4078 144.143C40.543 144.021 43.0037 142.944 43.8331 141.188C44.6624 139.434 44.6509 123.536 44.6509 123.536L39.7882 124.513Z" fill="white"/>
<path opacity="0.3" d="M37.5498 142.707C37.5928 143.661 37.9742 144.14 39.6558 143.969C39.6635 143.967 39.6716 143.965 39.6793 143.964C39.7495 143.942 39.8274 143.924 39.9101 143.908C41.5893 143.487 43.1945 142.539 43.8331 141.188C44.6624 139.434 44.6509 123.536 44.6509 123.536L39.7878 124.512C38.5387 130.962 37.4929 141.45 37.5498 142.707Z" fill="#0939AE"/>
<path d="M44.6509 123.536C39.8967 121.053 33.3739 117.616 31.6871 118.083C30.0002 118.55 29.005 120.67 28.5175 122.552C28.0304 124.433 29.722 128.996 30.9342 129.805C32.1469 130.613 36.9709 128.808 38.1367 127.555C39.3026 126.302 39.7873 124.513 39.7873 124.513L44.6509 123.536Z" fill="#0939AE"/>
<path d="M55.513 86.8512L51.2784 86.1605C53.4351 90.6073 51.0337 100.822 48.1867 108.116C45.3397 115.411 39.7882 124.513 39.7882 124.513L44.6514 123.536C44.6514 123.536 49.3836 115.946 52.2306 108.651C55.0775 101.357 57.6697 91.298 55.513 86.8512Z" fill="#0939AE"/>
<path opacity="0.2" d="M55.513 86.8512L51.2784 86.1605C53.4351 90.6073 51.0337 100.822 48.1867 108.116C45.3397 115.411 39.7882 124.513 39.7882 124.513L44.6514 123.536C44.6514 123.536 49.3836 115.946 52.2306 108.651C55.0775 101.357 57.6697 91.298 55.513 86.8512Z" fill="black"/>
<path d="M41.4216 79.4775C40.4307 79.6391 39.5038 79.1401 38.9178 78.4809C37.6176 77.0173 37.5239 75.5532 38.1635 74.5924C38.6888 73.8027 39.9546 73.3175 40.8236 73.8763C41.7528 74.4743 41.7724 74.9475 42.1151 75.6086C42.4665 76.2874 43.3799 75.7778 43.1285 73.1436C44.9726 72.3372 44.7422 69.3258 45.7546 68.1203C47.3397 66.2331 49.875 66.7842 50.6929 67.2527C51.4409 66.6805 52.9261 66.4224 54.1646 67.1064C55.3796 67.7775 56.1683 69.1523 56.5049 73.83C56.8481 78.5985 55.9446 81.7519 54.8051 82.738C54.0207 83.4163 52.5795 83.8565 50.8769 83.7241L50.8372 86.0902C50.8372 86.0902 52.8936 89.1814 46.6834 88.1312C43.6228 87.6136 42.3647 85.9678 42.3647 85.9678L42.4756 78.75C42.476 78.751 42.3627 79.3241 41.4216 79.4775Z" fill="#FFBDA7"/>
<path d="M50.8774 83.7246C48.4228 83.5831 45.1485 82.6562 44.2977 81.0822C44.7532 82.7695 46.4659 83.6749 47.8382 84.0845C49.5069 84.5826 50.8382 84.6591 50.8382 84.6591L50.8774 83.7246Z" fill="#F0997A"/>
<path d="M51.7512 78.8504C51.5843 79.5923 50.8367 80.0612 50.0805 79.8967C49.3243 79.7328 48.8468 78.9981 49.0132 78.2558L51.7512 78.8504Z" fill="#B16668"/>
<path d="M48.995 78.7051C49.0605 79.2739 49.4792 79.7662 50.0805 79.8967C50.2483 79.9331 50.4147 79.934 50.5753 79.912C50.4754 79.152 49.7698 78.6138 48.995 78.7051Z" fill="#F28F8F"/>
<path d="M55.1598 73.481C55.3003 73.8993 55.0078 74.0336 54.6048 74.1679C54.2019 74.3022 53.8405 74.3854 53.7 73.9667C53.5594 73.5484 53.7721 73.1005 54.1751 72.9662C54.5785 72.8324 55.0192 73.0628 55.1598 73.481Z" fill="#263238"/>
<path d="M53.7936 73.1154C53.9695 73.0131 54.176 72.9552 54.3739 72.9127C54.5685 72.8706 54.774 72.8563 54.97 72.8873C55.2993 72.9395 55.4752 73.0198 55.5761 73.0714C55.5895 73.0781 55.6029 73.123 55.5785 73.1201C55.4155 73.0996 55.2721 73.0714 55.036 73.0613C54.8371 73.0527 54.5608 73.09 54.3672 73.135C54.0628 73.2062 53.9447 73.2444 53.6072 73.4093C53.5283 73.448 53.3754 73.5298 53.3601 73.5413C53.3376 73.5585 53.3195 73.4978 53.3309 73.4791C53.4294 73.3219 53.6369 73.2062 53.7936 73.1154Z" fill="#263238"/>
<path d="M47.397 73.5953C47.2962 74.025 47.6002 74.1316 48.0136 74.2272C48.4276 74.3233 48.7947 74.372 48.8956 73.9423C48.9964 73.5126 48.7426 73.0867 48.3286 72.9906C47.9152 72.895 47.4979 73.1655 47.397 73.5953Z" fill="#263238"/>
<path d="M48.7235 73.1034C48.5385 73.0183 48.3277 72.9796 48.1265 72.9557C47.929 72.9323 47.723 72.9371 47.5309 72.9858C47.2077 73.0685 47.0404 73.1651 46.9448 73.2258C46.9324 73.2339 46.9233 73.2798 46.9468 73.2745C47.1074 73.2392 47.2474 73.1976 47.4812 73.1655C47.6786 73.1383 47.9572 73.1493 48.1542 73.1765C48.4639 73.2191 48.5849 73.2459 48.9367 73.3787C49.0189 73.4098 49.179 73.4772 49.1948 73.4868C49.2187 73.5016 49.2311 73.4394 49.2182 73.4222C49.1054 73.275 48.8879 73.1794 48.7235 73.1034Z" fill="#263238"/>
<path d="M55.2157 70.82L53.4165 70.191C53.5785 69.6914 54.113 69.4276 54.6096 69.6011C55.1067 69.7751 55.3777 70.321 55.2157 70.82Z" fill="#263238"/>
<path d="M48.5371 70.1546L46.7168 71.0743C46.4367 70.5863 46.6169 69.9849 47.1198 69.7306C47.6222 69.4773 48.257 69.6671 48.5371 70.1546Z" fill="#263238"/>
<path d="M57.4938 71.3587C57.3786 71.3468 57.2591 71.3353 57.1348 71.3257C55.9766 71.2335 54.469 71.2335 53.5728 71.5165C52.45 71.873 52.0657 72.2507 51.4356 72.2683C50.7617 72.2808 50.3186 71.9208 49.0877 71.6183C48.1069 71.3788 46.4979 71.4495 45.2704 71.5963C45.1385 71.6121 45.0109 71.6293 44.889 71.6465C44.6791 71.6766 44.4631 71.9486 44.4927 72.2593C44.5228 72.5704 44.7809 72.8128 44.8914 72.9528C44.9406 73.015 44.9889 73.1039 45.03 73.2325C45.1829 73.7162 45.3082 74.6469 45.5859 75.1593C45.6977 75.3648 45.856 75.6167 46.1064 75.8443C46.1882 75.9179 46.2713 75.9829 46.365 76.0441C46.4133 76.0747 46.4616 76.1038 46.5132 76.133C46.6427 76.2042 46.7866 76.2663 46.9501 76.3175C46.9745 76.3251 46.9989 76.3323 47.0232 76.3385C47.06 76.3481 47.0992 76.3591 47.1384 76.3682C47.1776 76.3772 47.2178 76.3849 47.2589 76.393C47.3769 76.4155 47.5041 76.4327 47.6399 76.4413C47.692 76.4461 47.7464 76.4485 47.8024 76.4508C47.8674 76.4518 47.9353 76.4528 48.005 76.4513C49.571 76.4222 50.1919 75.6961 50.5461 74.9528C50.9012 74.2109 50.7526 73.1746 51.4744 73.1613C51.4987 73.1608 51.5212 73.1612 51.5437 73.1636C51.5657 73.1651 51.5881 73.1679 51.6082 73.1722C52.1469 73.2793 52.1264 74.2315 52.4944 74.9093C52.6359 75.1693 52.8094 75.427 53.0412 75.6459C53.0824 75.6856 53.1239 75.7229 53.1684 75.7587C53.1909 75.7773 53.2133 75.7946 53.2363 75.8118C53.2592 75.8294 53.2826 75.8462 53.307 75.8624C53.3285 75.8772 53.3496 75.8916 53.3715 75.9055C53.4088 75.9289 53.4251 75.9389 53.4409 75.948C53.459 75.959 53.4772 75.969 53.4958 75.9791C53.5078 75.9862 53.5212 75.9934 53.5341 76.0006C53.7181 76.0971 53.9279 76.175 54.1689 76.2252C54.1875 76.2291 54.2076 76.2334 54.2272 76.2367C54.4537 76.2802 54.708 76.3008 54.9929 76.2926C56.4585 76.253 56.9255 75.4217 57.1411 74.8983C57.3557 74.3739 57.403 73.4423 57.4981 72.9505C57.5192 72.8415 57.5665 72.7569 57.6195 72.6933C57.7204 72.5714 57.913 72.2817 57.9169 71.971C57.9197 71.6579 57.6922 71.3797 57.4938 71.3587ZM50.1082 74.2697C50.0547 74.5532 49.9304 74.9628 49.6126 75.3046L49.6116 75.3051C49.2909 75.6478 48.7727 75.9212 47.9324 75.9274C47.0825 75.9346 46.572 75.6077 46.257 75.2186C46.2369 75.1942 46.2183 75.1703 46.2015 75.1464C46.1829 75.122 46.1662 75.0986 46.1504 75.0747C46.1346 75.0527 46.1203 75.0298 46.1069 75.0073C46.0945 74.9872 46.082 74.9667 46.0711 74.9466C46.061 74.9303 46.0519 74.9146 46.0438 74.8983C46.0347 74.8835 46.0271 74.8691 46.0204 74.8548C46.008 74.8309 45.9951 74.806 45.9836 74.7821V74.7812C45.9482 74.7081 45.9176 74.6373 45.8918 74.5685C45.8908 74.5671 45.8908 74.5651 45.8894 74.5632C45.8727 74.5193 45.8574 74.4767 45.843 74.4356C45.8177 74.361 45.7972 74.2912 45.7795 74.2296C45.7757 74.2162 45.7718 74.2023 45.7685 74.1899C45.7647 74.1775 45.7608 74.1646 45.7575 74.1521C45.6127 73.6421 45.4224 72.6369 45.681 72.4036C45.9305 72.179 46.6404 71.918 47.811 72.0002C47.8506 72.0011 47.8927 72.0045 47.9357 72.0088C48.1155 72.025 48.2947 72.0499 48.4725 72.0843C48.5428 72.0972 48.6126 72.1125 48.6814 72.1278C48.8664 72.1699 49.0452 72.2205 49.2077 72.277C49.2641 72.2961 49.3181 72.3161 49.3693 72.3362C49.4309 72.3596 49.4892 72.385 49.5452 72.4108C49.5566 72.416 49.5686 72.4213 49.5805 72.427C49.603 72.4371 49.6245 72.4471 49.6446 72.4591C49.81 72.5422 49.9366 72.6326 50.0064 72.7201C50.2526 73.0288 50.2139 73.6961 50.1082 74.2697ZM56.8973 73.8979C56.8256 74.3003 56.6721 75.1689 55.8729 75.5656C55.6454 75.6789 55.3619 75.7534 55.0144 75.7659C54.0919 75.8032 53.5522 75.449 53.2358 75.0369C53.2339 75.0345 53.2315 75.0317 53.2305 75.0293C53.2181 75.0135 53.2066 74.9977 53.1961 74.9829C53.1827 74.9647 53.1703 74.9461 53.1584 74.9289C53.1521 74.9203 53.1459 74.9103 53.1397 74.9007C53.123 74.8744 53.1063 74.8467 53.0914 74.8204C53.0733 74.7893 53.0565 74.7587 53.0403 74.7267C53.0317 74.7119 53.0245 74.6966 53.0169 74.6813C53.0126 74.6727 53.0087 74.6641 53.0049 74.6555C52.9987 74.6421 52.993 74.6297 52.9877 74.6168C52.9834 74.6062 52.9782 74.5962 52.9748 74.5871C52.9151 74.4495 52.874 74.3194 52.8448 74.2071C52.6985 73.6392 52.6044 72.9763 52.8089 72.656C53.014 72.3357 53.8577 71.971 54.6808 71.8544C54.8706 71.8272 55.0489 71.8109 55.2147 71.8037C55.2362 71.8033 55.2577 71.8023 55.2783 71.8018C55.3017 71.8009 55.3242 71.8004 55.3466 71.8004C55.4102 71.799 55.4728 71.7999 55.5326 71.8009C55.5551 71.8013 55.5775 71.8018 55.6005 71.8033C55.6306 71.8052 55.6602 71.8061 55.6884 71.8085C55.7386 71.8109 55.7874 71.8157 55.8347 71.8209C55.9308 71.831 56.0216 71.8439 56.1052 71.8606C56.1267 71.8649 56.1487 71.8692 56.1693 71.874C56.1741 71.8745 56.1803 71.8759 56.186 71.8778C56.1999 71.8807 56.2147 71.8836 56.2295 71.8879C56.251 71.8922 56.274 71.8988 56.2945 71.9046C56.3213 71.9113 56.3481 71.9199 56.3729 71.9271C56.4193 71.9414 56.4618 71.9562 56.502 71.9729C56.5101 71.9758 56.5168 71.9782 56.5249 71.982C56.654 72.0336 56.7529 72.092 56.8203 72.1488C57.0818 72.3697 56.9871 73.3826 56.8973 73.8979Z" fill="#37474F"/>
<path d="M53.9542 76.4986L51.2712 77.5732L50.7741 74.2062C50.8817 73.7081 50.9902 73.1942 51.4275 73.1622L53.9542 76.4986Z" fill="#F0997A"/>
<path d="M44.9645 72.036L40.8236 73.8768C41.0291 74.0178 41.1486 74.1091 41.4469 74.3892L45.0515 72.8735L44.9645 72.036Z" fill="#37474F"/>
<path d="M36.3973 87.1896C32.6211 88.1537 31.1493 89.1236 30.0609 91.8706C28.6413 95.4552 25.5089 103.854 24.4975 108.05C23.954 110.304 23.586 111.327 25.6146 113.747C27.2962 115.752 31.4261 119.175 35.2076 121.811C35.9532 122.331 38.3064 124.175 39.0191 124.568C43.346 126.955 48.4137 126.465 48.4137 126.465L43.6806 123.461L42.8589 121.819L33.146 110.244C33.146 110.244 36.7745 100.566 37.7348 97.8437C38.6946 95.1215 39.2433 88.9673 36.3973 87.1896Z" fill="#FFBDA7"/>
<path d="M33.1459 110.244C31.7999 108.832 29.8023 108.789 29.8023 108.789C29.8023 108.789 31.2994 108.104 33.5078 109.308L33.1459 110.244Z" fill="#F0997A"/>
<path d="M39.3853 119.517L39.3657 119.966C39.3461 120.42 39.5703 120.85 39.9517 121.094L51.7602 128.589C51.951 128.711 52.1689 128.776 52.3888 128.785C52.6068 128.795 52.8295 128.749 53.0298 128.644L75.8027 116.781C76.2061 116.571 76.4666 116.161 76.4862 115.708L76.4996 115.399L52.4251 127.941L39.3853 119.517Z" fill="#0939AE"/>
<g opacity="0.5">
<path d="M39.3853 119.517L39.3657 119.966C39.3461 120.42 39.5703 120.85 39.9517 121.094L51.7602 128.589C51.951 128.711 52.1689 128.776 52.3888 128.785C52.6068 128.795 52.8295 128.749 53.0298 128.644L75.8027 116.781C76.2061 116.571 76.4666 116.161 76.4862 115.708L76.4996 115.399L52.4251 127.941L39.3853 119.517Z" fill="white"/>
</g>
<g opacity="0.1">
<path d="M39.3853 119.517L39.3657 119.966C39.3461 120.42 39.5703 120.85 39.9517 121.094L51.7602 128.589C51.951 128.711 52.1689 128.776 52.3888 128.785C52.6068 128.795 52.8295 128.749 53.0298 128.644L75.8027 116.781C76.2061 116.571 76.4666 116.161 76.4862 115.708L76.4996 115.399L52.4251 127.941L39.3853 119.517Z" fill="black"/>
</g>
<path d="M76.5001 115.398L63.6567 107.223C63.4282 107.077 63.1395 107.065 62.8995 107.19L39.4747 119.395C39.3595 119.455 39.3528 119.617 39.4622 119.686L52.4256 127.941L76.5001 115.398Z" fill="#0939AE"/>
<g opacity="0.85">
<path d="M76.5001 115.398L63.6567 107.223C63.4282 107.077 63.1395 107.065 62.8995 107.19L39.4747 119.395C39.3595 119.455 39.3528 119.617 39.4622 119.686L52.4256 127.941L76.5001 115.398Z" fill="white"/>
</g>
<path d="M52.5623 126.705L45.6351 122.299L66.7207 111.318L73.6856 115.703L52.5623 126.705Z" fill="#0939AE"/>
<g opacity="0.6">
<path d="M52.5623 126.705L45.6351 122.299L66.7207 111.318L73.6856 115.703L52.5623 126.705Z" fill="white"/>
</g>
<path d="M49.3549 115.266L49.4825 115.348L52.8778 117.509L59.2256 114.202L59.358 114.134L55.8347 111.892L49.3549 115.266Z" fill="#0939AE"/>
<path d="M49.4825 115.348L52.8778 117.509L59.2256 114.202L55.8285 112.04L49.4825 115.348Z" fill="#0939AE"/>
<g opacity="0.6">
<path d="M49.4825 115.348L52.8778 117.509L59.2256 114.202L55.8285 112.04L49.4825 115.348Z" fill="white"/>
</g>
<path d="M52.4256 127.94L52.3888 128.785C52.6068 128.795 52.8295 128.749 53.0298 128.644L75.8027 116.781C76.2061 116.571 76.4666 116.161 76.4862 115.708L76.4996 115.399L52.4256 127.94Z" fill="#0939AE"/>
<g opacity="0.03">
<path d="M52.4256 127.94L52.3888 128.785C52.6068 128.795 52.8295 128.749 53.0298 128.644L75.8027 116.781C76.2061 116.571 76.4666 116.161 76.4862 115.708L76.4996 115.399L52.4256 127.94Z" fill="white"/>
</g>
<g opacity="0.2">
<path d="M52.4256 127.94L52.3888 128.785C52.6068 128.795 52.8295 128.749 53.0298 128.644L75.8027 116.781C76.2061 116.571 76.4666 116.161 76.4862 115.708L76.4996 115.399L52.4256 127.94Z" fill="black"/>
</g>
<path d="M52.7755 128.143C53.189 128.324 53.6679 128.313 54.0762 128.099L76.7486 116.288C77.1478 116.08 77.4312 115.707 77.5259 115.268L80.5736 100.933C80.5903 100.851 80.6009 100.769 80.6042 100.686C80.6219 100.284 80.478 99.8924 80.206 99.5975L56.6444 111.874C56.3505 112.028 56.1402 112.304 56.0704 112.629L52.7755 128.143Z" fill="#0939AE"/>
<g opacity="0.4">
<path d="M52.7755 128.143C53.189 128.324 53.6679 128.313 54.0762 128.099L76.7486 116.288C77.1478 116.08 77.4312 115.707 77.5259 115.268L80.5736 100.933C80.5903 100.851 80.6009 100.769 80.6042 100.686C80.6219 100.284 80.478 99.8924 80.206 99.5975L56.6444 111.874C56.3505 112.028 56.1402 112.304 56.0704 112.629L52.7755 128.143Z" fill="white"/>
</g>
<path d="M52.4256 127.941L52.5728 128.034C52.6378 128.075 52.7052 128.111 52.7755 128.143L56.0703 112.629C56.1401 112.304 56.3505 112.028 56.6444 111.874L80.206 99.5975C80.1209 99.5048 80.0201 99.4226 79.9092 99.3509L56.2998 111.65C56.0058 111.804 55.7955 112.08 55.7257 112.405L52.4256 127.941Z" fill="#0939AE"/>
<g opacity="0.6">
<path d="M52.4256 127.941L52.5728 128.034C52.6378 128.075 52.7052 128.111 52.7755 128.143L56.0703 112.629C56.1401 112.304 56.3505 112.028 56.6444 111.874L80.206 99.5975C80.1209 99.5048 80.0201 99.4226 79.9092 99.3509L56.2998 111.65C56.0058 111.804 55.7955 112.08 55.7257 112.405L52.4256 127.941Z" fill="white"/>
</g>
<path d="M56.2993 112.16L55.9523 111.938C55.8428 112.073 55.763 112.231 55.7257 112.404L52.4256 127.941L52.5728 128.034C52.6378 128.074 52.7052 128.111 52.7755 128.143L56.0703 112.628C56.1081 112.454 56.1889 112.295 56.2993 112.16Z" fill="#0939AE"/>
<path opacity="0.5" d="M56.2993 112.16L55.9523 111.938C55.8428 112.073 55.763 112.231 55.7257 112.404L52.4256 127.941L52.5728 128.034C52.6378 128.074 52.7052 128.111 52.7755 128.143L56.0703 112.628C56.1081 112.454 56.1889 112.295 56.2993 112.16Z" fill="white"/>
<path opacity="0.5" d="M56.2993 112.16L55.9523 111.938C55.8428 112.073 55.763 112.231 55.7257 112.404L52.4256 127.941L52.5728 128.034C52.6378 128.074 52.7052 128.111 52.7755 128.143L56.0703 112.628C56.1081 112.454 56.1889 112.295 56.2993 112.16Z" fill="#0939AE"/>
<path d="M65.811 115.353C66.0151 114.393 67.0691 113.152 68.1647 112.581C69.2608 112.011 69.9835 112.326 69.7794 113.286C69.5753 114.245 68.5213 115.486 67.4257 116.057C66.3301 116.628 65.6069 116.313 65.811 115.353Z" fill="#0939AE"/>
<path d="M38.9766 118.229C40.2113 119.135 41.9139 118.463 43.5731 118.7C45.2322 118.938 46.6475 119.375 47.9836 119.365C49.3196 119.355 49.9706 119.64 49.0141 120.69C48.0572 121.739 45.3875 121.066 44.6581 121.376C43.9287 121.686 43.4521 122.842 44.2681 123.834C45.0314 124.761 39.8203 122.889 39.1434 121.793C38.4666 120.699 38.023 118.347 38.9766 118.229Z" fill="#FFBDA7"/>
<path d="M36.3973 87.1896C33.8596 87.6341 32.8023 88.1881 31.4615 89.2134C30.1207 90.2388 26.0562 99.0851 26.0562 99.0851C26.0562 99.0851 28.2354 102.296 35.8873 103.651C35.8873 103.651 38.2314 97.86 38.7127 96.0168C39.1936 94.1736 39.9221 88.6776 36.3973 87.1896Z" fill="#E6E6E6"/>
<path d="M28.3263 62.8355L28.8024 61.3484C29.059 60.1472 24.1581 62.9765 23.9014 64.1777L25.4807 68.4281C25.5414 68.5667 25.6351 68.6695 25.7456 68.7374C26.0926 68.951 27.3693 69.6709 27.4802 69.7388C27.8296 69.9529 28.344 69.8186 28.4898 69.3635L30.5351 62.3484C30.6623 61.7566 29.5332 62.1457 28.3263 62.8355Z" fill="#0939AE"/>
<path opacity="0.2" d="M28.3263 62.8355L28.8024 61.3484C29.059 60.1472 24.1581 62.9765 23.9014 64.1777L25.4807 68.4281C25.5414 68.5667 25.6351 68.6695 25.7456 68.7374C26.0926 68.951 27.3693 69.6709 27.4802 69.7388C27.8296 69.9529 28.344 69.8186 28.4898 69.3635L30.5351 62.3484C30.6623 61.7566 29.5332 62.1457 28.3263 62.8355Z" fill="white"/>
<path d="M34.9867 34.265L16.3557 45.0128C16.0077 45.2136 15.7257 45.7021 15.7257 46.1036V68.1796C15.7257 68.5811 16.0092 69.0668 16.3591 69.2642L17.5115 69.9157C17.8614 70.1131 18.4269 70.1102 18.7749 69.9095L37.4059 59.1621C37.7539 58.9614 38.0354 58.4728 38.0354 58.0713V35.9954C38.0354 35.5939 37.752 35.1082 37.4021 34.9108L36.2496 34.2593C35.9002 34.0619 35.3347 34.0643 34.9867 34.265Z" fill="#0939AE"/>
<path opacity="0.2" d="M34.9867 34.265L16.3557 45.0128C16.0077 45.2136 15.7257 45.7021 15.7257 46.1036V68.1796C15.7257 68.5811 16.0092 69.0668 16.3591 69.2642L17.5115 69.9157C17.8614 70.1131 18.4269 70.1102 18.7749 69.9095L37.4059 59.1621C37.7539 58.9614 38.0354 58.4728 38.0354 58.0713V35.9954C38.0354 35.5939 37.752 35.1082 37.4021 34.9108L36.2496 34.2593C35.9002 34.0619 35.3347 34.0643 34.9867 34.265Z" fill="white"/>
<path d="M37.4059 35.6315L18.7749 46.3794C18.4269 46.5801 18.1449 47.0687 18.1449 47.4702V69.5461C18.1449 69.9477 18.4269 70.1106 18.7749 69.9094L25.9047 65.7967L27.2144 69.429C27.4663 70.006 28.2981 69.9639 28.4902 69.3645L30.2311 63.3011L37.4059 59.1621C37.7539 58.9613 38.0354 58.4728 38.0354 58.0713V35.9953C38.0354 35.5938 37.7539 35.4308 37.4059 35.6315Z" fill="#0939AE"/>
<path opacity="0.4" d="M37.4059 35.6315L18.7749 46.3794C18.4269 46.5801 18.1449 47.0687 18.1449 47.4702V69.5461C18.1449 69.9477 18.4269 70.1106 18.7749 69.9094L25.9047 65.7967L27.2144 69.429C27.4663 70.006 28.2981 69.9639 28.4902 69.3645L30.2311 63.3011L37.4059 59.1621C37.7539 58.9613 38.0354 58.4728 38.0354 58.0713V35.9953C38.0354 35.5938 37.7539 35.4308 37.4059 35.6315Z" fill="white"/>
<path d="M27.105 46.7154V48.4152L25.975 49.3573V56.6975C25.975 57.6248 26.1619 58.2104 26.5362 58.4546C26.9104 58.6989 27.4233 58.6329 28.0753 58.2567C28.7369 57.8748 29.256 57.3466 29.6326 56.6717C30.0093 55.9972 30.1976 55.1927 30.1976 54.2592V46.919L29.0748 47.2775V45.5778L33.4428 43.0558V44.7556L32.3128 45.6978V53.0379C32.3128 54.6153 31.9227 56.0574 31.1431 57.3643C30.363 58.6707 29.3406 59.6893 28.0753 60.4202C26.8148 61.1477 25.7972 61.3073 25.0219 60.8982C24.2465 60.4895 23.8594 59.4962 23.8594 57.9188V50.5786L22.7365 50.9371V49.2373L23.8594 48.5892L25.9745 47.3679L27.105 46.7154Z" fill="white"/>
<path opacity="0.7" d="M38.0273 35.8811C37.978 35.5637 37.719 35.4504 37.4049 35.6306L18.7758 46.3794C18.6014 46.4812 18.4441 46.6528 18.3308 46.8507L15.9231 45.4607C16.0364 45.2714 16.1879 45.1089 16.3567 45.0128L34.9882 34.2645C35.3342 34.0637 35.8987 34.0608 36.2506 34.2587L37.4016 34.9098C37.719 35.09 37.9838 35.5058 38.0273 35.8811Z" fill="white"/>
<path d="M125.15 73.6579C129.221 73.7592 131.596 75.9881 132.925 80.2247C134.223 84.3637 136.095 90.667 136.532 93.6168C136.969 96.5665 138.37 109.929 138.37 109.929L133.276 110.381L128.188 95.2257L125.828 85.2384L125.15 73.6579Z" fill="#C8856A"/>
<path d="M142.687 117.555L142.662 105.939L127.243 96.8294L127.267 108.445L142.687 117.555Z" fill="#0939AE"/>
<path opacity="0.4" d="M142.687 117.555L142.662 105.939L127.243 96.8294L127.267 108.445L142.687 117.555Z" fill="black"/>
<path d="M142.245 106.05L142.24 117.291C141.521 117.42 141.261 117.588 140.599 118.279L140.585 107.118C140.585 107.118 140.572 106.921 142.245 106.05Z" fill="#F5F5F5"/>
<path d="M140.164 107.902C140.167 107.333 140.568 106.646 141.06 106.366L142.191 105.725C142.683 105.445 143.081 105.68 143.078 106.248L143.073 117.334L142.687 117.555L142.662 106.626C142.663 106.285 142.425 106.144 142.13 106.312L141.118 106.897C140.823 107.064 140.582 107.477 140.58 107.818L140.598 118.739L140.16 118.988L140.164 107.902Z" fill="#0939AE"/>
<path opacity="0.25" d="M140.164 107.902C140.167 107.333 140.568 106.646 141.06 106.366L142.191 105.725C142.683 105.445 143.081 105.68 143.078 106.248L143.073 117.334L142.687 117.555L142.662 106.626C142.663 106.285 142.425 106.144 142.13 106.312L141.118 106.897C140.823 107.064 140.582 107.477 140.58 107.818L140.598 118.739L140.16 118.988L140.164 107.902Z" fill="black"/>
<path d="M140.161 118.987L124.742 109.878L124.746 98.793C124.748 98.2247 125.15 97.5369 125.642 97.2572L126.773 96.6153C127.018 96.4766 127.24 96.4642 127.401 96.5598L142.82 105.669C142.659 105.574 142.437 105.586 142.192 105.725L141.059 106.366C140.567 106.645 140.165 107.333 140.162 107.901L140.161 118.987Z" fill="#0939AE"/>
<path d="M140.427 107.025C140.59 106.747 140.813 106.506 141.059 106.366L142.192 105.725C142.437 105.586 142.659 105.574 142.821 105.669L127.402 96.5598C127.241 96.4647 127.019 96.4767 126.773 96.6153L125.642 97.2572C125.396 97.3968 125.173 97.6387 125.01 97.9164L140.427 107.025Z" fill="#0939AE"/>
<path opacity="0.15" d="M140.427 107.025C140.59 106.747 140.813 106.506 141.059 106.366L142.192 105.725C142.437 105.586 142.659 105.574 142.821 105.669L127.402 96.5598C127.241 96.4647 127.019 96.4767 126.773 96.6153L125.642 97.2572C125.396 97.3968 125.173 97.6387 125.01 97.9164L140.427 107.025Z" fill="black"/>
<path d="M127.082 99.1535C128.033 98.2811 128.548 97.9934 129.491 97.7864L130.227 98.219C129.284 98.4259 128.769 98.7137 127.818 99.586L127.082 99.1535Z" fill="#0939AE"/>
<path d="M137.208 105.12C138.159 104.248 138.656 103.971 139.599 103.764L140.335 104.196C139.392 104.403 138.892 104.683 137.942 105.555L137.208 105.12Z" fill="#0939AE"/>
<g opacity="0.4">
<path d="M127.082 99.1535C128.033 98.2811 128.548 97.9934 129.491 97.7864L130.227 98.219C129.284 98.4259 128.769 98.7137 127.818 99.586L127.082 99.1535Z" fill="white"/>
<path d="M137.208 105.12C138.159 104.248 138.656 103.971 139.599 103.764L140.335 104.196C139.392 104.403 138.892 104.683 137.942 105.555L137.208 105.12Z" fill="white"/>
</g>
<path d="M137.208 117.243C137.069 117.826 135.807 118.102 135.334 117.945C134.86 117.787 132.296 116.524 132.019 116.051C131.743 115.578 131.151 114.236 131.27 113.644C131.388 113.052 131.664 111.632 132.256 111.789C132.848 111.947 132.867 112.524 132.867 112.524C132.867 112.524 133.149 111.456 133.631 111.539C134.002 111.603 134.451 112.137 134.401 112.72C135.058 112.651 135.491 113.139 135.491 113.81C135.991 113.91 136.282 114.43 136.151 115.541C136.131 116.131 136.434 116.785 136.434 116.785L137.208 117.243Z" fill="#C8856A"/>
<path d="M124.988 73.3075C128.522 73.6072 130.705 74.6306 132.138 77.8026C133.57 80.9746 135.719 89.2512 135.719 89.2512C135.719 89.2512 133.424 92.1627 127.124 91.6852L125.589 85.204L124.988 73.3075Z" fill="#455A64"/>
<path d="M92.895 84.0133C93.1283 84.1194 95.5144 83.562 97.7567 82.693L97.7558 74.209C97.7558 74.209 94.8376 74.5001 93.9107 77.8289C92.3137 83.5625 92.895 84.0133 92.895 84.0133Z" fill="#263238"/>
<path d="M110.446 70.2545C112.559 70.2192 115.029 71.2655 115.771 72.9093C115.897 73.189 116.783 75.3495 116.783 75.3495C117.971 81.0807 120.115 95.8404 118.608 97.6697C116.35 100.41 105.237 105.779 100.367 105.627C96.3485 105.501 92.4715 101.844 91.9127 100.741C90.0781 97.12 94.8916 76.9437 96.1664 74.9188C98.2314 71.6374 107.755 70.2995 110.446 70.2545Z" fill="#0939AE"/>
<path opacity="0.18" d="M118.607 97.6697C116.349 100.41 105.237 105.779 100.366 105.627C99.2791 105.593 98.2051 105.296 97.2018 104.866C98.337 105.401 99.6701 104.857 100.039 103.382C100.411 101.895 101.025 90.0834 101.025 79.9598L116.783 75.3495C117.971 81.0807 120.115 95.8404 118.607 97.6697Z" fill="black"/>
<path opacity="0.5" d="M95.6617 76.0001C95.8519 75.3481 96.0316 74.9475 96.1659 74.7339C98.2314 71.4524 107.755 70.1145 110.446 70.0691C112.559 70.0337 115.029 71.08 115.77 72.7239C115.891 72.9911 116.782 75.1641 116.782 75.1641C112.559 77.4044 102.002 79.6831 100.881 79.2753C99.5033 78.7749 95.6617 76.0001 95.6617 76.0001Z" fill="black"/>
<path d="M92.774 91.5991C92.8758 91.5518 94.3796 90.5002 94.5531 90.4199C94.8586 90.2775 99.1118 93.3697 99.4976 93.883C99.7657 94.2401 99.0306 101.579 98.847 101.956C98.7811 102.092 97.1339 103 97.0679 103.136C96.8839 103.513 92.3892 100.365 92.1273 99.63C91.8654 98.8958 92.3252 91.8085 92.774 91.5991Z" fill="#0939AE"/>
<path opacity="0.18" d="M92.774 91.5991C92.8758 91.5518 94.3796 90.5002 94.5531 90.4199C94.8586 90.2775 99.1118 93.3697 99.4976 93.883C99.7657 94.2401 99.0306 101.579 98.847 101.956C98.7811 102.092 97.1339 103 97.0679 103.136C96.8839 103.513 92.3892 100.365 92.1273 99.63C91.8654 98.8958 92.3252 91.8085 92.774 91.5991Z" fill="black"/>
<path d="M97.7185 95.0622C97.9866 95.4193 97.2515 102.758 97.0679 103.136C96.8839 103.514 92.3892 100.365 92.1268 99.6305C91.8649 98.8958 92.3252 91.8085 92.7736 91.5996C93.0795 91.4572 97.3327 94.5489 97.7185 95.0622Z" fill="#0939AE"/>
<path opacity="0.4" d="M94.5517 90.4204C94.3801 90.4993 92.8763 91.5528 92.7755 91.5987C93.0785 91.4572 97.3327 94.5494 97.7175 95.0608L99.4971 93.8825C99.1123 93.3682 94.8586 90.2765 94.5517 90.4204Z" fill="black"/>
<path opacity="0.3" d="M97.7185 95.0622C97.9866 95.4193 97.2515 102.758 97.0679 103.136C96.8839 103.514 92.3892 100.365 92.1268 99.6305C91.8649 98.8958 92.3252 91.8085 92.7736 91.5996C93.0795 91.4572 97.3327 94.5489 97.7185 95.0622Z" fill="black"/>
<path d="M99.4971 93.883C99.1812 93.6608 98.1941 94.143 97.7629 94.4882C97.3318 94.8328 96.8198 96.5039 95.7305 96.7333C94.6411 96.9628 93.167 95.4815 92.8792 94.5556C92.5914 93.6297 92.2788 91.6943 92.8262 91.0265C93.3735 90.3587 94.2989 90.0174 95.0488 90.4567C95.7984 90.896 99.4335 93.0379 99.4971 93.883Z" fill="#0939AE"/>
<path opacity="0.1" d="M99.4971 93.883C99.1812 93.6608 98.1941 94.143 97.7629 94.4882C97.3318 94.8328 96.8198 96.5039 95.7305 96.7333C94.6411 96.9628 93.167 95.4815 92.8792 94.5556C92.5914 93.6297 92.2788 91.6943 92.8262 91.0265C93.3735 90.3587 94.2989 90.0174 95.0488 90.4567C95.7984 90.896 99.4335 93.0379 99.4971 93.883Z" fill="black"/>
<path d="M94.7587 94.7224C94.9939 94.8615 95.1502 95.2009 95.1081 95.48C95.0661 95.7596 94.8404 95.8796 94.6043 95.7482C94.3682 95.6167 94.2119 95.2773 94.2549 94.9901C94.2984 94.7033 94.524 94.5833 94.7587 94.7224Z" fill="#37474F"/>
<path d="M101.025 79.7744C101.025 79.7744 99.5392 78.7543 97.7371 77.7137C95.935 76.6731 94.9298 76.3165 94.2883 78.4078C93.6048 80.6367 92.9452 83.4038 92.895 84.0133C92.5503 83.846 92.5876 83.226 92.8281 80.5569C93.1775 76.6741 92.6846 74.9418 96.7032 73.3869C102.934 70.9758 108.167 69.0815 111.732 69.8802C115.298 70.679 116.133 72.677 116.782 75.1641C116.782 75.1641 112.45 79.0956 101.025 79.7744Z" fill="#37474F"/>
<path d="M129.516 169.864C129.554 167.469 130.212 148.969 130.212 148.969L120.162 154.426C121.234 165.142 122.28 170.218 122.361 172.069C122.344 172.11 122.419 172.186 122.412 172.449C122.35 174.559 124.914 175.787 126.897 177.265C127.68 177.848 129.957 179.57 132.277 180.736C133.729 181.466 137.046 181.111 137.447 180.256C135.034 178.444 132.579 176.812 130.874 174.619C129.974 173.46 129.481 172.086 129.516 169.864Z" fill="#C8856A"/>
<path d="M141.257 183.195C141.383 183.199 141.532 184.484 140.826 185.002C140.01 185.601 137.644 186.549 134.577 186.076C131.509 185.604 129.87 184.674 128.669 183.687C127.469 182.7 125.786 181.308 124.402 180.978C123.117 180.672 121.729 180.086 121.328 179.705C120.926 179.325 121.039 177.699 121.039 177.699L141.257 183.195Z" fill="#263238"/>
<path d="M122.303 171.498C122.303 171.498 122.091 171.469 121.998 171.843C121.889 172.288 121.742 173.589 121.514 174.318C121.197 175.331 120.936 177.422 121.078 178.262C121.219 179.101 123.31 179.755 124.642 180.271C126.003 180.8 127.563 181.845 128.925 182.949C130.336 184.091 133.343 185.294 135.35 185.391C138.413 185.539 140.423 184.848 141.071 183.862C141.871 182.641 141.625 181.378 138.153 179.761C137.496 179.455 135.152 178.019 134.42 177.462C132.361 175.894 131.828 175.206 130.737 173.125C130.605 172.874 130.516 172.525 130.259 172.199C130.119 172.021 129.81 171.759 129.113 171.87C128.529 171.962 126.639 172.199 126.096 172.414C125.617 172.603 124.938 172.819 124.93 173.374C124.927 173.567 124.981 173.757 125.043 173.942C125.082 174.056 125.11 174.208 124.999 174.271C124.895 174.331 124.762 174.254 124.673 174.176C124.314 173.861 124.057 173.464 123.758 173.1C123.599 172.905 123.423 172.717 123.219 172.56C123.033 172.418 122.791 172.342 122.627 172.182C122.42 171.979 122.369 171.82 122.303 171.498Z" fill="#37474F"/>
<path d="M138.713 180.026C134.267 180.151 132.46 183.13 132.22 184.675C133.307 185.07 134.433 185.346 135.35 185.391C138.413 185.539 140.549 184.854 141.196 183.867C141.951 182.716 141.822 181.229 138.713 180.026Z" fill="#FAFAFA"/>
<path d="M131.736 180.356C131.688 180.354 131.64 180.338 131.6 180.306C131.51 180.233 131.501 180.108 131.579 180.026C132.22 179.355 134.357 177.981 135.964 178.198C136.083 178.214 136.165 178.315 136.149 178.423C136.133 178.531 136.026 178.607 135.904 178.59C134.404 178.392 132.414 179.757 131.906 180.288C131.862 180.335 131.799 180.358 131.736 180.356Z" fill="#F0F0F0"/>
<path d="M129.86 179.27C129.811 179.269 129.764 179.252 129.724 179.22C129.633 179.148 129.625 179.022 129.703 178.94C130.344 178.269 132.482 176.893 134.088 177.112C134.207 177.128 134.289 177.229 134.273 177.338C134.256 177.446 134.152 177.521 134.028 177.505C132.528 177.305 130.538 178.671 130.029 179.203C129.985 179.25 129.922 179.272 129.86 179.27Z" fill="#F0F0F0"/>
<path d="M128.128 178.044C128.08 178.043 128.032 178.026 127.993 177.995C127.902 177.923 127.893 177.797 127.972 177.715C128.613 177.044 131.233 175.391 132.832 175.609C132.951 175.625 133.034 175.726 133.017 175.834C133.001 175.942 132.895 176.017 132.773 176.002C131.274 175.802 128.807 177.446 128.299 177.978C128.255 178.024 128.191 178.047 128.128 178.044Z" fill="#F0F0F0"/>
<path d="M126.433 176.82C126.386 176.818 126.339 176.803 126.3 176.772C126.208 176.701 126.197 176.576 126.274 176.492C127.157 175.54 129.899 174.162 131.505 174.379C131.624 174.395 131.706 174.496 131.689 174.604C131.673 174.712 131.567 174.785 131.445 174.772C129.999 174.577 127.388 175.906 126.605 176.751C126.561 176.799 126.496 176.822 126.433 176.82Z" fill="#F0F0F0"/>
<path d="M108.439 159.482L98.7142 158.045C98.2491 163.971 98.4522 169.197 97.7883 174.492C97.6635 175.489 96.5565 182.203 96.6468 184.301C96.783 187.455 100.915 187.865 101.413 186.058C101.912 184.25 104.082 175.823 104.221 175.015C105.13 171.839 106.052 168.267 107.938 161.511C108.02 161.217 108.351 159.767 108.439 159.482Z" fill="#C8856A"/>
<path d="M103.045 187.399C102.977 189.35 102.378 190.96 101.477 191.729C100.495 192.567 99.2978 192.897 97.9632 192.525C96.6286 192.151 95.0713 191.209 94.6244 189.651C94.0842 187.768 94.3529 186.714 94.7362 185.04L103.045 187.399Z" fill="#263238"/>
<path d="M97.8657 173.845C97.3084 173.86 97.033 176.296 96.6014 178.729C96.1387 181.336 95.2334 182.383 94.829 184.519C94.3668 186.961 94.5412 188.342 95.4145 189.87C96.2878 191.397 99.5526 193.004 101.291 190.95C102.708 189.276 103.279 187.447 103.268 184.988C103.257 182.446 103.529 180.699 103.729 178.779C103.921 176.945 104.694 175.242 104.221 175.016C103.897 175.931 103.554 177.308 103.373 176.947C103.355 176.711 103.37 176.492 103.398 176.254C103.422 176.046 103.414 175.819 103.273 175.654C103.131 175.488 102.891 175.425 102.668 175.374C102.125 175.251 100.457 174.785 99.9039 174.714C99.6281 174.679 99.3513 174.655 99.0731 174.645C98.848 174.637 98.5818 174.643 98.3652 174.705C98.2319 174.744 98.1071 174.824 98.0531 174.941C98.0134 175.028 98.0153 175.126 98.0115 175.22C98.0039 175.391 97.9728 175.559 97.9188 175.722C97.8949 175.793 97.8366 175.88 97.7577 175.858C97.6936 175.841 97.6716 175.766 97.674 175.706C97.6855 175.409 97.7362 175.195 97.7672 174.851C97.7811 174.692 97.8193 174.476 97.8294 174.317C97.838 174.159 97.8471 174.002 97.8657 173.845Z" fill="#37474F"/>
<path d="M94.5551 185.934C94.3897 187.456 94.5207 188.782 95.2042 189.978C96.0775 191.506 99.3958 192.94 101.348 191.076C102.323 190.145 102.875 188.671 103.045 187.399C102.136 185.715 96.1702 184.608 94.5551 185.934Z" fill="#FAFAFA"/>
<path d="M101.839 184.899C101.816 184.895 101.793 184.888 101.771 184.878C101.749 184.867 99.0143 183.423 96.4876 183.841C96.3758 183.858 96.2682 183.791 96.2467 183.689C96.2257 183.586 96.2998 183.488 96.4116 183.469C99.0841 183.029 101.868 184.499 101.964 184.545C102.064 184.595 102.103 184.71 102.05 184.802C102.009 184.873 101.922 184.91 101.839 184.899Z" fill="#F0F0F0"/>
<path d="M96.7061 182.016C96.6286 182.005 96.5608 181.955 96.5369 181.881C96.5053 181.781 96.5675 181.676 96.6764 181.648C99.2027 180.987 102.122 182.626 102.224 182.681C102.323 182.733 102.357 182.848 102.299 182.939C102.242 183.028 102.114 183.056 102.018 183.006C101.995 182.994 99.1434 181.394 96.7931 182.011C96.7644 182.019 96.7347 182.02 96.7061 182.016Z" fill="#F0F0F0"/>
<path d="M96.9274 180.296C96.8514 180.285 96.7844 180.236 96.7596 180.164C96.7256 180.064 96.7859 179.959 96.8949 179.929C99.6754 179.153 102.45 180.893 102.545 180.952C102.639 181.01 102.665 181.128 102.602 181.214C102.539 181.3 102.409 181.323 102.316 181.264C102.295 181.251 99.6065 179.569 97.0182 180.29C96.9876 180.298 96.9565 180.3 96.9274 180.296Z" fill="#F0F0F0"/>
<path d="M97.1845 178.363C97.1095 178.353 97.043 178.305 97.0177 178.234C96.9823 178.135 97.0407 178.029 97.1492 177.997C99.7567 177.233 102.73 179.013 102.834 179.075C102.93 179.13 102.958 179.247 102.898 179.335C102.837 179.423 102.71 179.45 102.613 179.391C102.589 179.378 99.6993 177.646 97.2777 178.356C97.2467 178.366 97.2151 178.368 97.1845 178.363Z" fill="#EBEBEB"/>
<path d="M108.202 95.2458C107.951 96.3376 107.736 96.773 107.306 97.3065C104.672 100.565 103.415 103.755 102.937 109.858C101.756 124.957 101.427 140.64 101.427 140.64C101.259 141.969 99.9871 144.28 99.1405 151.166C98.4001 157.192 98.1888 165.484 98.1888 165.484C98.1888 165.484 105.253 166.752 107.33 164.834C108.505 160.359 112.176 149.015 114.168 142.509C115.978 136.603 117.399 127.858 117.399 127.858L119.544 140.163C119.544 140.163 118.94 143.513 119.29 148.044C119.603 152.112 121.04 162.677 121.04 162.677C122.328 164.088 128.422 164.076 130.016 162.108C130.016 162.108 131.79 144.348 132.049 139.455C132.531 130.348 134.36 111.93 130.405 99.4589C130.235 98.9259 129.486 95.9552 129.486 95.9552C126.083 98.458 112.477 98.283 108.202 95.2458Z" fill="#263238"/>
<path d="M114.163 99.8026C114.065 99.7777 113.964 99.8289 113.937 99.9178C113.724 100.613 113.557 101.239 113.395 101.844C112.809 104.033 112.386 105.615 110.581 107.251C108.9 108.774 106.796 108.767 106.159 108.725C107.111 104.236 108.854 100.694 111.505 97.8251C111.57 97.7543 111.56 97.6482 111.483 97.588C111.406 97.5287 111.289 97.5359 111.224 97.6066C108.498 100.557 106.718 104.2 105.762 108.828C105.76 108.835 105.756 108.841 105.754 108.848C105.753 108.853 105.755 108.857 105.755 108.862C105.401 110.587 105.158 112.445 105.028 114.46C104.479 122.957 103.651 135.799 103.365 139.169C103.212 140.972 102.721 142.521 102.1 144.484C101.564 146.175 100.957 148.092 100.376 150.728C99.1181 156.428 99.196 165.889 99.1969 165.984C99.1974 166.074 99.2758 166.148 99.3729 166.152C99.3757 166.152 99.3791 166.152 99.3824 166.152C99.4837 166.152 99.5655 166.076 99.5645 165.984C99.5636 165.889 99.4861 156.462 100.736 150.796C101.314 148.174 101.919 146.264 102.453 144.579C103.08 142.599 103.575 141.034 103.732 139.197C104.018 135.824 104.846 122.981 105.395 114.482C105.52 112.533 105.752 110.732 106.089 109.059C106.143 109.063 106.205 109.068 106.281 109.071C107.109 109.108 109.152 109.02 110.84 107.49C112.718 105.788 113.152 104.168 113.752 101.925C113.913 101.323 114.079 100.699 114.291 100.01C114.318 99.9216 114.261 99.8284 114.163 99.8026Z" fill="#455A64"/>
<path d="M98.2448 163.618C99.5244 164.893 105.236 165.809 107.33 164.834L106.317 168.101C106.317 168.101 104.809 168.752 101.85 168.359C98.4178 167.904 98.099 166.822 98.099 166.822L98.2448 163.618Z" fill="#455A64"/>
<path d="M121.039 162.676C122.784 163.322 128.033 163.182 130.015 162.108L129.834 164.833C129.834 164.833 128.449 165.788 125.469 165.96C122.478 166.134 121.319 165.296 121.319 165.296L121.039 162.676Z" fill="#455A64"/>
<path d="M117.399 127.858L120.016 113.013C120.016 113.013 124.516 113.538 127.967 109.726C127.967 109.726 127.926 113.465 121.512 114.896L118.565 128.557L119.543 140.162L117.399 127.858Z" fill="black"/>
<path d="M103.804 103.614C104.84 98.3246 107.007 95.3706 107.057 93.6961C107.057 93.6961 105.535 85.2785 105.317 83.2944C104.751 78.131 104.791 75.6062 105.921 74.3108C106.975 74.0126 112.124 73.0035 112.941 72.9681C117.268 72.7827 117.905 72.7956 121.233 72.8458C122.481 72.9113 124.987 73.307 124.987 73.307C126.131 74.176 127.243 75.297 128.707 76.9962C131.352 80.0655 132.18 82.13 131.758 85.2867C131.471 87.4248 130.006 89.0026 130.006 89.0026C129.802 90.5303 129.471 94.8615 129.471 94.8615C129.51 96.5603 130.575 98.9293 131.434 103.026C127.033 109.457 109.274 108.107 103.804 103.614Z" fill="#F0F0F0"/>
<path d="M127.18 59.2801C128.23 57.0603 127.359 54.0479 126.23 52.6115C124.596 50.5346 121.986 49.5815 118.004 49.7077C114.976 49.8038 111.314 51.0413 110.655 54.1259C107.813 55.458 108.688 59.3757 109.385 61.0344C110.85 64.5171 112.996 67.2713 112.982 69.0987L127.18 59.2801Z" fill="#263238"/>
<path d="M125.554 54.547C126.232 55.078 127.352 56.5675 127.18 59.2796C127.091 60.0985 127.352 61.1128 127.352 62.6467C127.352 68.4443 125.744 69.6532 124.176 70.3377C123.24 70.7464 122.725 70.8123 121.233 70.7942V73.4829C121.233 73.4829 124.626 78.7782 123.083 83.4143C123.082 83.4158 123.081 83.4163 123.079 83.4153C116.042 78.6439 112.948 73.0594 112.942 73.0494C112.942 73.0489 112.894 66.5075 112.894 66.5075C112.894 66.506 112.895 66.5065 112.894 66.5075C112.857 66.5366 111.963 67.3187 110.504 66.529C108.925 65.6743 108.309 63.0066 109.347 61.7829C110.384 60.5593 111.859 61.3116 112.513 62.3967C113.167 63.4817 114.789 63.1792 114.305 61.5306C115.046 61.1802 115.971 60.4259 115.294 57.3992C115.141 56.622 115.426 55.2845 116.161 54.6325C117.389 53.5417 119.775 53.7956 121.122 55.1531C122.971 53.6392 124.152 53.4466 125.554 54.547Z" fill="#C8856A"/>
<path d="M119.782 65.3125L122.461 66.2561C122.226 67.0118 121.436 67.4128 120.696 67.1523C119.957 66.8913 119.547 66.0677 119.782 65.3125Z" fill="#AF6152"/>
<path d="M121.317 67.2173C121.312 66.5209 120.749 65.9564 120.051 65.953C119.944 65.9525 119.842 65.9693 119.742 65.9936C119.829 66.5108 120.179 66.9702 120.696 67.1528C120.904 67.2254 121.115 67.2417 121.317 67.2173Z" fill="#F28F8F"/>
<path d="M121.924 59.4063L122.285 64.5811L124.87 63.3603L121.924 59.4063Z" fill="#AF6152"/>
<path d="M121.234 70.7942C119.372 70.6905 115.398 69.6709 114.43 67.2015C114.43 67.2015 114.574 68.963 116.857 70.3291C118.656 71.4065 121.226 71.6312 121.226 71.6312L121.234 70.7942Z" fill="#AF6152"/>
<path d="M119.813 61.0349C119.771 61.4875 119.371 61.8207 118.918 61.7791C118.466 61.7375 118.132 61.337 118.174 60.8843C118.216 60.4316 118.616 60.0985 119.069 60.14C119.521 60.1816 119.855 60.5822 119.813 61.0349Z" fill="#263238"/>
<path d="M125.954 60.8279C125.852 61.2705 125.41 61.5463 124.967 61.444C124.524 61.3413 124.248 60.8996 124.351 60.4565C124.453 60.0139 124.896 59.738 125.338 59.8403C125.781 59.9431 126.057 60.3853 125.954 60.8279Z" fill="#263238"/>
<path d="M125.646 57.6076C125.014 57.4551 124.377 57.8437 124.225 58.4757L126.514 59.0282C126.667 58.3963 126.278 57.7601 125.646 57.6076Z" fill="#263238"/>
<path d="M117.924 58.044C117.326 58.2988 117.048 58.99 117.303 59.5884L119.469 58.6659C119.214 58.0674 118.523 57.7892 117.924 58.044Z" fill="#263238"/>
<path d="M125.048 51.5609H116.214C110.248 53.9103 112.444 61.5827 113.691 62.5181C117.238 61.0248 117.007 57.4867 116.745 55.4714C118.542 57.1545 121.535 58.3977 122.943 58.544C122.291 57.7596 121.745 55.8175 121.745 55.8175C121.745 55.8175 122.564 57.7037 124.537 58.8404C126.721 60.0985 128.21 59.2586 128.21 59.2586C128.21 59.2586 128.952 53.9284 125.048 51.5609Z" fill="#263238"/>
<path d="M109.162 73.4963C109.162 73.4963 112.915 77.1258 113.507 83.3054C115.005 98.9369 103.569 102.134 103.569 102.134C103.569 102.134 103.787 100.621 104.51 98.1979C104.51 98.1979 111.243 92.0317 110.494 84.0463C109.961 78.3518 107.369 74.6784 105.92 74.3113C105.92 74.3113 107.222 73.7893 109.162 73.4963Z" fill="#263238"/>
<path d="M101.58 102.368C103.074 101.847 104.059 101.216 105.584 99.8193C108.406 97.2338 108.56 96.8495 110.905 94.5675C111.699 93.7941 112.41 93.0241 112.746 92.6766C113.079 92.3324 113.948 91.6814 114.515 90.7287C114.898 90.0853 115.4 89.2703 115.467 88.5041C115.542 87.658 115.807 86.789 115.609 85.9334C115.552 85.6863 115.459 85.4478 115.411 85.1987C115.345 84.855 115.366 84.5018 115.363 84.1514C115.358 83.5391 115.28 82.9206 115.056 82.3503C114.863 81.8608 114.565 81.4464 114.17 81.1008C113.879 80.8456 113.497 80.6176 113.062 80.771C113.172 81.2213 113.253 81.6018 113.351 82.1295C113.251 83.0506 112.982 83.4708 112.496 84.1748C111.633 85.4239 110.873 86.0859 110.748 85.8464C110.613 85.5888 110.936 84.835 110.758 83.6132C110.588 82.4459 110.225 81.9646 109.845 81.8876C109.241 81.7643 109.276 82.411 109.071 83.4029C108.827 84.585 108.352 85.2499 108.37 86.9788C108.386 88.4941 108.649 88.833 107.835 89.5485C107.369 89.9586 106.18 90.6685 106.18 90.6685C106.18 90.6685 106.403 89.3296 106.78 86.4401C107.564 80.4436 107.021 75.4963 105.803 74.7836C103.175 75.5584 100.615 77.0431 99.4555 81.5497C98.2223 86.3421 98.2185 87.0567 97.1807 96.5139C96.426 103.396 99.3073 103.162 101.58 102.368Z" fill="#C8856A"/>
<path d="M106.181 90.6694C103.967 91.9046 99.8919 93.8763 99.4512 96.1937C99.4512 96.1937 99.1071 94.35 101.773 92.308C104.541 90.1871 106.396 89.2517 106.396 89.2517L106.181 90.6694Z" fill="#AF6152"/>
<path d="M106.406 90.0299C106.406 90.0299 107.073 85.888 107.41 83.7963C107.877 80.8977 107.974 76.4508 105.921 74.3113C104.082 74.741 101.279 75.6784 100.197 77.6951C99.1142 79.7118 99.0067 81.314 98.5019 84.6763C98.3552 85.6519 97.9866 88.4544 97.8409 90.0332C100.523 91.2316 103.931 91.3764 106.406 90.0299Z" fill="#455A64"/>
<path d="M189.378 118.251L186.601 116.686C186.601 116.686 171.794 120.065 170.226 121.749C169.292 122.753 167.211 132.845 167.957 132.813C169.107 132.763 185.007 127.727 185.007 127.727L189.378 118.251Z" fill="#0939AE"/>
<path opacity="0.3" d="M189.378 118.251L186.601 116.686C186.601 116.686 171.794 120.065 170.226 121.749C169.292 122.753 167.211 132.845 167.957 132.813C169.107 132.763 185.007 127.727 185.007 127.727L189.378 118.251Z" fill="black"/>
<path d="M172.252 144.489C174.857 144.802 188.674 137.758 189.812 136.836C190.95 135.915 189.379 118.251 189.379 118.251L173.753 123.446L172.252 144.489Z" fill="#263238"/>
<path d="M170.507 122.111C169.161 126.366 166.649 140.945 167.11 142.227C167.571 143.509 171.483 144.643 172.252 144.489C173.021 144.335 173.753 123.446 173.753 123.446L170.507 122.111Z" fill="#37474F"/>
<path d="M184.478 185.786L185.235 178.736L177.165 179.268C177.165 179.268 177.288 183.094 177.401 185.26C177.468 186.54 175.742 188.918 175.742 188.918C175.742 188.918 179.533 190.95 181.564 190.238C183.594 189.527 184.669 187.001 184.64 186.45C184.612 185.899 184.478 185.786 184.478 185.786Z" fill="#FFA8A7"/>
<path d="M165.043 196.798C164.916 196.796 164.703 198.106 165.385 198.675C166.173 199.333 168.499 200.431 171.602 200.109C174.704 199.787 176.395 198.919 177.65 197.97C178.904 197.022 180.663 195.683 182.068 195.417C183.374 195.171 184.795 194.644 185.218 194.275C185.64 193.905 185.609 192.232 185.609 192.232L165.043 196.798Z" fill="#263238"/>
<path d="M184.479 185.773C184.479 185.773 184.868 185.783 184.942 186.172C185.03 186.635 185.111 187.977 185.303 188.737C185.571 189.794 185.726 191.952 185.542 192.807C185.357 193.661 183.227 194.22 181.864 194.68C180.472 195.15 178.854 196.139 177.431 197.199C175.958 198.297 172.879 199.413 170.861 199.364C168.473 199.307 165.797 198.538 165.197 197.491C164.456 196.197 163.925 194.698 167.49 193.224C168.165 192.945 170.54 191.681 171.35 191.222C173.541 189.981 175.087 188.834 176.122 186.589C176.243 186.326 176.371 186.036 176.643 185.906C176.851 185.806 177.1 185.825 177.332 185.859C177.92 185.947 180.268 186.29 180.802 186.54C181.273 186.759 181.943 187.018 181.924 187.587C181.917 187.785 181.853 187.977 181.781 188.163C181.737 188.279 181.701 188.433 181.809 188.504C181.91 188.57 182.048 188.499 182.141 188.423C182.517 188.118 182.795 187.725 183.113 187.367C183.283 187.176 183.469 186.993 183.682 186.843C183.876 186.706 184.122 186.641 184.294 186.485C184.512 186.29 184.465 186.04 184.479 185.773Z" fill="#455A64"/>
<path d="M177.431 197.199C178.056 196.733 178.719 196.284 179.384 195.884V195.881C179.384 195.881 175.182 198.178 173.517 197.075C172.445 196.363 172.974 195.531 173.004 195.263C173.035 194.994 169.239 193.031 168.189 192.895C167.893 193.042 167.645 193.16 167.49 193.224C163.925 194.699 164.456 196.197 165.198 197.492C165.797 198.538 167.731 199.38 170.817 199.433C172.835 199.467 175.958 198.297 177.431 197.199Z" fill="#37474F"/>
<path d="M173.308 194.483C171.093 195.269 172.026 195.67 172.641 195.763C173.256 195.856 176.994 193.894 179.281 192.26C181.667 190.556 183.184 188.673 184.07 188.048C184.4 187.814 184.757 187.527 185.073 187.257C185.023 186.803 184.983 186.389 184.942 186.172C184.868 185.783 184.479 185.773 184.479 185.773C184.465 186.04 184.512 186.29 184.294 186.486C184.121 186.641 183.876 186.707 183.682 186.843C183.468 186.993 183.283 187.176 183.113 187.368C182.795 187.725 182.517 188.119 182.141 188.423C180.181 190.673 175.523 193.697 173.308 194.483Z" fill="#37474F"/>
<path d="M172.802 195.463C172.851 195.464 172.9 195.449 172.941 195.419C173.036 195.35 173.051 195.221 172.976 195.132C172.366 194.41 169.449 192.671 167.827 192.809C167.706 192.819 167.618 192.919 167.63 193.03C167.641 193.142 167.735 193.221 167.867 193.215C169.382 193.089 172.152 194.812 172.635 195.385C172.677 195.435 172.739 195.462 172.802 195.463Z" fill="#263238"/>
<path d="M174.741 194.39C174.789 194.391 174.838 194.376 174.879 194.346C174.973 194.276 174.989 194.148 174.915 194.059C174.305 193.338 171.389 191.599 169.765 191.737C169.645 191.747 169.557 191.846 169.568 191.958C169.579 192.069 169.682 192.152 169.805 192.143C171.32 192.018 174.09 193.739 174.573 194.312C174.615 194.362 174.677 194.389 174.741 194.39Z" fill="#263238"/>
<path d="M176.678 193.375C176.727 193.376 176.776 193.362 176.817 193.331C176.912 193.262 176.927 193.134 176.852 193.045C176.242 192.323 173.325 190.582 171.703 190.722C171.583 190.732 171.494 190.831 171.506 190.944C171.517 191.056 171.618 191.138 171.743 191.129C173.258 191.003 176.027 192.725 176.511 193.298C176.553 193.348 176.615 193.374 176.678 193.375Z" fill="#263238"/>
<path d="M178.478 192.21C178.526 192.21 178.575 192.196 178.616 192.166C178.71 192.097 178.726 191.969 178.652 191.88C178.042 191.157 175.119 189.418 173.502 189.557C173.382 189.567 173.294 189.666 173.305 189.778C173.316 189.89 173.418 189.972 173.542 189.963C175.056 189.838 177.827 191.559 178.31 192.132C178.352 192.182 178.414 192.209 178.478 192.21Z" fill="#263238"/>
<path d="M180.24 191.043C180.288 191.044 180.336 191.031 180.376 191.002C180.472 190.933 180.489 190.805 180.416 190.716C179.579 189.692 176.518 188.228 174.896 188.366C174.776 188.376 174.687 188.476 174.699 188.587C174.71 188.699 174.813 188.779 174.936 188.772C176.396 188.649 179.327 190.056 180.071 190.963C180.113 191.015 180.176 191.042 180.24 191.043Z" fill="#263238"/>
<path d="M200.434 189.63L198.592 182.952L206.806 181.68L207.175 188.144C207.175 188.144 208.049 190.451 207.547 191.301C207.046 192.152 201.586 193.114 201.077 192.559C200.567 192.004 200.434 189.63 200.434 189.63Z" fill="#FFA8A7"/>
<path d="M201.278 204.194C201.546 206.264 201.998 207.598 202.91 208.709C203.822 209.819 205.421 209.989 206.993 209.412C208.566 208.836 210.548 207.599 210.892 205.735C211.236 203.871 211.066 202.65 210.582 200.763L201.278 204.194Z" fill="#263238"/>
<path d="M207.174 188.144C207.834 188.1 207.704 190.942 208.26 193.697C208.855 196.65 209.945 197.756 210.463 200.173C211.055 202.935 210.967 204.217 209.962 206.073C208.956 207.93 205.122 210.139 203.027 207.963C201.319 206.19 201.115 203.992 201.083 201.159C201.049 198.229 201.052 196.165 200.779 193.975C200.518 191.883 199.882 190.026 200.438 189.713C200.501 190.017 200.569 190.405 200.634 190.702C200.684 190.931 200.822 192.065 201.191 192.026C201.208 191.752 201.186 191.501 201.149 191.23C201.116 190.994 201.122 190.73 201.286 190.524C201.451 190.317 202.077 190.052 202.34 189.969C202.98 189.767 204.124 189.511 204.778 189.369C205.104 189.298 205.431 189.239 205.76 189.198C206.027 189.164 206.342 189.141 206.599 189.19C206.757 189.219 206.907 189.298 206.973 189.427C207.022 189.523 207.021 189.636 207.028 189.744C207.04 189.939 207.08 190.13 207.146 190.311C207.175 190.391 207.246 190.484 207.339 190.451C207.415 190.424 207.44 190.336 207.436 190.266C207.417 189.926 207.353 189.685 207.31 189.292C207.29 189.11 207.241 188.865 207.227 188.682C207.213 188.502 207.199 188.322 207.174 188.144Z" fill="#455A64"/>
<path d="M210.264 199.392C210.353 199.791 210.91 202.429 210.114 203.027C209.254 203.674 208.63 201.625 208.63 201.625C208.63 201.625 206.497 201.341 203.519 202.943C203.703 203.358 203.323 204.863 202.466 204.673C201.615 204.485 201.093 201.442 201.086 201.402C201.129 204.118 201.368 206.241 203.026 207.963C205.121 210.139 208.956 207.93 209.961 206.073C210.967 204.217 211.055 202.935 210.462 200.174C210.404 199.897 210.336 199.64 210.264 199.392Z" fill="#37474F"/>
<path d="M208.402 201.838C208.479 202.856 209.591 202.357 209.55 200.911C209.509 199.466 208.407 196.173 208.26 193.697C208.022 190.299 207.834 188.1 207.174 188.144C207.179 188.178 207.18 188.213 207.184 188.247L207.36 189.661C207.392 189.865 207.423 190.047 207.436 190.266C207.582 192.342 207.665 196.378 207.986 198.251C208.307 200.123 208.324 200.821 208.402 201.838Z" fill="#37474F"/>
<path d="M203.871 202.867C203.593 201.896 203.368 201.244 203.021 199.378C202.676 197.525 201.514 193.823 200.936 191.831C200.754 191.505 200.671 190.868 200.635 190.702C200.574 190.424 200.511 190.07 200.451 189.777C200.445 189.757 200.44 189.737 200.435 189.716C200.034 189.948 200.195 191.556 200.421 192.387C200.646 193.218 200.92 194.107 201.204 195.299C201.92 197.646 202.033 201.184 202.492 202.534C202.951 203.884 204.15 203.838 203.871 202.867Z" fill="#37474F"/>
<path d="M203.46 203.035C203.49 203.028 203.519 203.016 203.547 202.999C203.57 202.985 205.887 201.577 208.58 201.842C208.712 201.855 208.841 201.768 208.868 201.648C208.896 201.528 208.81 201.421 208.679 201.407C205.797 201.123 203.398 202.584 203.296 202.647C203.181 202.718 203.142 202.855 203.212 202.952C203.265 203.026 203.365 203.056 203.46 203.035Z" fill="#263238"/>
<path d="M202.772 200.898C202.799 200.892 202.825 200.882 202.852 200.867C202.878 200.852 205.489 199.37 208.487 199.574C208.62 199.581 208.746 199.492 208.769 199.372C208.792 199.251 208.703 199.146 208.57 199.137C205.399 198.924 202.729 200.441 202.617 200.505C202.498 200.574 202.455 200.71 202.52 200.81C202.571 200.888 202.673 200.921 202.772 200.898Z" fill="#263238"/>
<path d="M208.196 197.496C208.287 197.475 208.367 197.409 208.393 197.322C208.429 197.203 208.353 197.089 208.223 197.068C205.222 196.585 202.394 198.312 202.275 198.386C202.159 198.457 202.121 198.594 202.191 198.691C202.26 198.788 202.411 198.806 202.525 198.738C202.552 198.721 205.299 197.047 208.092 197.5C208.127 197.505 208.162 197.503 208.196 197.496Z" fill="#263238"/>
<path d="M207.902 195.538C207.992 195.517 208.071 195.453 208.098 195.368C208.137 195.249 208.063 195.134 207.934 195.111C204.629 194.524 201.975 196.351 201.864 196.429C201.753 196.507 201.725 196.644 201.801 196.737C201.878 196.83 202.032 196.842 202.14 196.764C202.165 196.746 204.718 194.995 207.795 195.541C207.831 195.547 207.868 195.546 207.902 195.538Z" fill="#263238"/>
<path d="M207.563 193.34C207.651 193.32 207.729 193.257 207.758 193.173C207.798 193.055 207.727 192.939 207.598 192.914C204.498 192.32 201.609 194.216 201.488 194.298C201.375 194.373 201.344 194.511 201.418 194.605C201.491 194.7 201.641 194.717 201.755 194.639C201.783 194.621 204.574 192.79 207.452 193.342C207.489 193.349 207.527 193.348 207.563 193.34Z" fill="#263238"/>
<path d="M204.15 117.594C205.696 133.973 205.279 157.419 205.279 157.419C205.414 158.662 206.36 162.369 207.174 168.488C207.899 173.942 207.17 185.268 207.174 185.953C207.174 185.953 203.305 188.658 199.705 187.5C199.705 187.5 195.25 170.651 193.281 163.045C191.418 155.847 188.938 144.277 188.938 144.277L187.527 156.045C187.527 156.045 187.865 160.797 187.787 164.071C187.696 167.877 185.023 183.016 185.023 183.016C185.023 183.016 180.705 185.456 176.937 182.603C176.937 182.603 174.642 160.45 174.458 155.875C174.097 146.902 173.574 128.67 174.662 117.635L204.15 117.594Z" fill="#455A64"/>
<path d="M188.938 144.277L186.893 132.64C186.893 132.64 182.544 132.071 180.286 130.062C180.286 130.062 181.768 132.745 185.877 133.731L187.893 144.322L187.527 156.045L188.938 144.277Z" fill="#263238"/>
<path d="M207.393 186.103C206.516 187.339 202.803 188.468 199.578 187.41L198.847 184.733C201.28 185.475 205.444 184.966 207.392 183.34V186.103H207.393Z" fill="#0939AE"/>
<path d="M185.073 183.172C184.001 184.233 179.874 184.817 176.877 183.203L176.71 180.621C178.982 181.783 183.318 181.888 185.511 180.632L185.073 183.172Z" fill="#0939AE"/>
<path d="M142.213 90.7335C142.579 90.5232 143.019 90.4701 143.439 90.5083C144.123 90.5705 144.752 90.8535 145.413 91.0145C146.42 91.2598 149 91.7468 150.007 91.4314C150.212 91.3668 150.618 91.1709 150.267 90.9878C149.81 90.7493 149.33 90.5461 148.921 90.2325C148.511 89.9194 148.172 89.4692 148.135 88.9548C148.124 88.8 148.144 88.6336 148.24 88.5122C148.377 88.3401 148.516 88.3894 148.677 88.4549C148.847 88.5237 149.028 88.5634 149.207 88.6102C149.574 88.7063 149.942 88.8033 150.309 88.9051C152.447 89.4979 154.634 90.2736 156.232 91.8821C156.465 92.1154 157.996 94.0307 158.937 95.0905C159.737 96.0723 164.857 100.894 164.857 100.894C164.857 100.894 167.479 97.9804 169.388 95.9356C172.79 92.2922 174.108 90.8386 175.305 89.6245C176.355 88.56 178.093 87.2747 180.038 87.0605L178.475 100.547C178.475 100.547 172.011 106.257 170.128 107.72C166.255 110.732 164.94 111.582 162.929 110.136C160.768 108.582 159.324 106.948 157.221 103.046C155.503 99.8599 155.08 99.11 154.477 98.1406C153.964 97.316 152.689 97.3538 152.005 97.3237C150.758 97.2687 149.478 97.1315 148.269 96.8189C147.473 96.6134 146.696 96.3199 145.98 95.9136C145.681 95.7429 145.195 95.5202 145.005 95.2224C144.827 94.9442 144.792 94.5957 144.575 94.3237C144.332 94.0188 143.951 93.8362 143.743 93.5064C143.579 93.2473 143.542 92.9304 143.45 92.6374C143.304 92.1723 142.943 91.9758 142.536 91.7621C142.338 91.6584 142.123 91.5642 141.993 91.3831C141.785 91.0925 141.964 90.8764 142.213 90.7335Z" fill="#FFA8A7"/>
<path d="M164.857 100.894L164.857 100.894C164.86 100.89 165.568 100.107 165.568 100.107C166.996 101.536 167.731 103.99 167.091 106.017C167.121 105.197 166.701 102.765 164.857 100.894Z" fill="#F28F8F"/>
<path d="M151.403 92.0083C152.136 93.0575 153.656 94.0637 154.437 94.2654C154.437 94.2654 153.294 94.4471 152.515 93.85C151.661 93.1957 151.467 92.493 151.403 92.0083Z" fill="#F28F8F"/>
<path d="M183.255 86.2886C179.063 86.1136 177.478 86.8072 175.539 88.6862C173.601 90.5652 168.356 96.6941 168.356 96.6941C168.356 96.6941 168.008 96.2835 166.422 98.2859C164.809 100.322 165.049 100.681 165.049 100.681C165.049 100.681 167.118 101.003 168.428 103.042C169.737 105.08 170.231 107.65 170.231 107.65C170.231 107.65 170.704 107.536 172.108 106.379C173.513 105.224 183.104 96.6616 183.104 96.6616L183.255 86.2886Z" fill="#0939AE"/>
<path opacity="0.3" d="M183.255 86.2886C179.063 86.1136 177.478 86.8072 175.539 88.6862C173.601 90.5652 168.356 96.6941 168.356 96.6941C168.356 96.6941 168.008 96.2835 166.422 98.2859C164.809 100.322 165.049 100.681 165.049 100.681C165.049 100.681 167.118 101.003 168.428 103.042C169.737 105.08 170.231 107.65 170.231 107.65C170.231 107.65 170.704 107.536 172.108 106.379C173.513 105.224 183.104 96.6616 183.104 96.6616L183.255 86.2886Z" fill="black"/>
<path opacity="0.1" d="M173.243 102.105C173.491 102.895 173.532 103.671 173.508 104.492C173.504 104.598 173.606 104.545 173.63 104.482C174.189 103.028 173.572 101.396 172.739 100.182C172.283 99.5182 171.727 98.9164 171.117 98.3915C170.804 98.1219 170.475 97.871 170.134 97.6387C169.804 97.4145 169.442 97.1439 169.058 97.0254C168.97 96.9981 168.843 97.1358 168.921 97.2123C169.192 97.479 169.58 97.654 169.889 97.8805C170.175 98.0904 170.451 98.3141 170.715 98.5502C171.257 99.0344 171.763 99.5607 172.201 100.142C172.646 100.734 173.02 101.395 173.243 102.105ZM167.874 99C168.104 99.2223 168.443 99.3657 168.714 99.5387C168.994 99.718 169.267 99.9101 169.532 100.11C170.06 100.507 170.55 100.958 170.976 101.463C171.414 101.981 171.806 102.568 172.062 103.198C172.202 103.542 172.288 103.911 172.342 104.279C172.395 104.629 172.384 105.021 172.474 105.362C172.488 105.411 172.542 105.373 172.548 105.34C172.618 104.984 172.611 104.568 172.589 104.206C172.567 103.837 172.502 103.482 172.373 103.135C172.136 102.498 171.761 101.912 171.334 101.387C170.878 100.828 170.346 100.334 169.768 99.902C169.489 99.6931 169.196 99.5043 168.895 99.3284C168.604 99.1587 168.272 98.9417 167.939 98.8733C167.882 98.8614 167.831 98.958 167.874 99Z" fill="black"/>
<path d="M194.693 85.2202C196.344 85.561 201.359 87.5729 203.26 88.6279C203.26 88.6279 205.459 93.2258 204.345 103.872C204.166 105.575 203.713 110.168 203.502 113.715C203.217 118.499 203.425 119.843 203.56 122.387C203.56 122.387 199.082 126.302 187.414 125.423C178.252 124.733 175.498 120.969 175.498 120.969C175.498 120.969 175.54 108.611 175.778 101.855C176.09 92.9815 178.777 87.8607 180.755 86.311L186.768 85.3091L194.693 85.2202Z" fill="#F0F0F0"/>
<path d="M195.767 85.2647L195.745 85.8517C195.745 85.8517 193.545 91.1302 193.362 101.539C193.179 111.948 193.362 128.889 193.362 128.889C193.362 128.889 199.307 130.545 205.437 127.934C205.437 127.934 204.974 120.12 205.075 115.982C205.177 111.844 204.701 105.726 205.075 99.74C205.45 93.7535 203.452 88.4897 203.452 88.4897L195.767 85.2647Z" fill="#0939AE"/>
<path d="M186.649 84.9248L180.756 86.3105C180.756 86.3105 177.237 88.5098 175.99 96.6745C174.742 104.839 174.123 124.625 174.123 124.625C174.922 125.125 177.035 125.958 178.039 126.097C178.039 126.097 178.407 116.355 178.924 107.38C179.548 96.5512 180.286 89.7378 186.562 85.3259L186.649 84.9248Z" fill="#0939AE"/>
<path opacity="0.3" d="M197.218 103.118C196.181 104.139 195.159 105.177 194.151 106.23C195.291 105.257 196.417 104.269 197.526 103.262L197.613 103.183C197.177 102.292 196.763 101.39 196.313 100.507C196.313 100.507 195.353 98.5885 195.156 98.1951C196.114 97.8447 197.066 97.4795 198.017 97.1095L198.164 97.0522L198.169 96.8987C198.278 93.6713 198.354 90.3152 198.315 87.0945C198.033 90.2483 197.848 93.5465 197.707 96.7233C196.631 97.1177 195.556 97.5173 194.49 97.9393L194.611 98.1726C195.371 99.6286 196.423 101.673 197.218 103.118ZM176.214 99.9426L176.249 100.021C176.848 101.391 177.457 102.757 178.104 104.106C177.631 102.72 177.122 101.348 176.602 99.9794C177.425 98.8002 178.231 97.609 179.025 96.4107L179.113 96.2783L179.025 96.144L177.89 94.4146C178.133 93.6875 178.431 92.9777 178.759 92.2784C179.834 90.0791 181.183 88.0342 182.656 86.0706C180.396 88.5079 178.41 91.3052 177.343 94.481L177.41 94.5814L178.532 96.2788C177.763 97.4642 177.005 98.6558 176.265 99.8604L176.214 99.9426Z" fill="black"/>
<path d="M189.109 105.875C187.437 104.842 186.607 104.459 185.857 104.316C185.107 104.173 182.446 103.33 181.44 103.171C180.802 103.07 180.636 104.084 181.491 104.698C182.15 105.171 183.802 105.721 184.533 106.042C185.265 106.363 186.782 107.908 186.782 107.908L189.109 105.875Z" fill="#F28F8F"/>
<path d="M207.917 91.7755C206.914 89.8377 205.456 89.5676 203.644 88.9735C198.42 91.6914 202.286 102.79 202.286 102.79L204.614 111.729C204.614 111.729 196.911 111.503 195.79 110.918C194.669 110.332 191.552 107.518 190.516 106.685C189.106 105.551 188.476 105.774 187.823 105.931C185.688 106.446 185.229 106.67 184.796 107.001C184.364 107.332 184.449 107.88 184.449 107.88C183.881 108.003 183.019 108.06 182.991 109.014C182.972 109.644 183.023 109.774 183.023 109.774C183.023 109.774 182.818 109.812 182.668 110.021C182.238 110.617 183.226 112.462 183.789 112.884C184.183 113.181 184.708 113.176 185.385 113.023C185.96 112.893 185.638 112.324 185.638 112.324L186.457 112.301C188.327 113.397 188.633 115.867 191.007 116.209C191.509 116.282 192.517 116.179 193.898 116.512C199.056 117.756 207.13 120.641 211.628 120.634C216.019 120.627 214.898 115.665 214.321 112.479C213.894 110.126 210.401 96.5742 207.917 91.7755Z" fill="#FFA8A7"/>
<path d="M184.449 107.88L186.974 107.136L184.472 107.519C184.443 107.644 184.434 107.764 184.449 107.88Z" fill="#F28F8F"/>
<path d="M183.023 109.773L185.948 109.13L182.989 109.43C182.986 109.538 182.999 109.653 183.023 109.773Z" fill="#F28F8F"/>
<path d="M183.982 111.277C184.114 111.313 184.251 111.339 184.387 111.356C184.708 111.384 185.423 111.335 185.423 111.335C185.423 111.335 185.464 111.544 185.841 111.871C186.042 112.046 186.456 112.3 186.456 112.3L185.638 112.323C185.638 112.323 185.422 112.01 184.757 111.915C184.628 111.901 184.481 111.943 184.367 112.023C184.253 112.111 184.158 112.232 184.094 112.372C184.128 112.223 184.196 112.073 184.317 111.963C184.4 111.888 184.502 111.838 184.614 111.817L184.413 111.469C184.255 111.446 184.102 111.413 183.955 111.352C183.789 111.287 183.629 111.185 183.527 111.041C183.655 111.164 183.819 111.226 183.982 111.277Z" fill="#F28F8F"/>
<path d="M203.452 88.4902C207.01 89.7259 208.286 90.7287 209.579 93.8314C211.19 97.6975 213.042 105.91 213.59 107.507C214.959 109.462 214.331 112.403 214.331 112.403C214.331 112.403 209.645 108.859 204.614 111.729C204.614 111.729 202.525 104.191 201.932 102.822C201.338 101.453 198.069 91.4988 203.452 88.4902Z" fill="#0939AE"/>
<path opacity="0.3" d="M203.452 88.4902C207.01 89.7259 208.286 90.7287 209.579 93.8314C211.19 97.6975 213.042 105.91 213.59 107.507C214.959 109.462 214.331 112.403 214.331 112.403C214.331 112.403 209.645 108.859 204.614 111.729C204.614 111.729 202.525 104.191 201.932 102.822C201.338 101.453 198.069 91.4988 203.452 88.4902Z" fill="black"/>
<path opacity="0.1" d="M204.82 109.346C205.333 108.958 205.842 108.593 206.428 108.32C207.036 108.037 207.677 107.826 208.335 107.699C209.114 107.548 209.911 107.514 210.702 107.558C211.48 107.601 212.229 107.761 212.988 107.921C213.006 107.925 212.999 107.887 212.987 107.882C211.573 107.342 209.952 107.185 208.462 107.438C207.121 107.665 205.733 108.255 204.782 109.252C204.754 109.283 204.771 109.384 204.82 109.346ZM205.084 110.533C205.066 110.552 205.078 110.631 205.114 110.61C205.529 110.362 205.917 110.076 206.349 109.854C206.796 109.625 207.262 109.438 207.746 109.305C208.737 109.034 209.73 108.975 210.751 109.038C210.765 109.039 210.756 109.013 210.747 109.01C209.783 108.765 208.729 108.812 207.773 109.074C206.811 109.336 205.77 109.789 205.084 110.533Z" fill="black"/>
<path d="M197.047 66.4095C197.047 66.4095 198.739 66.4229 199.587 67.6728C200.435 68.9228 201.018 71.2449 200.125 73.9093C199.141 76.8414 197.105 79.7146 196.669 80.5444C196.232 81.3747 195.338 81.607 195.338 81.607L195.43 78.0445L195.563 75.5622C195.563 75.5622 193.561 73.7454 193.389 71.9619C193.167 69.6661 194.063 68.3659 194.063 68.3659L197.047 66.4095Z" fill="#37474F"/>
<path d="M184.868 70.5734C185.829 70.1135 187.056 69.9462 188.102 69.8807C189.098 69.8181 190.093 69.7507 191.088 69.6857C192.154 69.6159 193.22 69.5466 194.286 69.4768C194.286 69.4768 197.696 68.908 197.696 66.4941C197.696 65.3058 197.114 64.5118 196.989 64.3407C196.547 63.7356 195.846 63.0515 195.219 62.6472C193.726 61.6859 192.371 61.1936 190.555 61.0655C189.246 60.9732 187.933 61.1577 186.645 61.4072C185.773 61.576 184.882 61.7758 184.006 61.6324C183.378 61.5296 182.708 61.1572 182.6 60.5301C181.924 61.3489 181.805 62.5845 182.312 63.5176C181.455 63.4794 180.647 64.1404 180.424 64.9678C180.175 65.8937 180.604 66.637 181.151 67.3335C181.084 67.2474 180.741 67.93 180.714 67.9874C180.526 68.386 180.463 68.8401 180.546 69.2794C180.665 69.9027 181.224 70.3463 181.794 70.6235C182.799 71.1125 183.873 71.0494 184.868 70.5734Z" fill="#37474F"/>
<path d="M198.687 79.0875C196.84 79.9852 195.999 78.5244 195.999 78.5244L195.721 85.8708C192.178 90.6135 182.72 88.8994 186.599 85.3474L186.607 83.6715C186.607 83.6715 185.988 83.6725 185.008 83.5152C183.375 83.2571 181.878 81.804 181.39 80.0339C180.672 77.4154 180.86 73.3797 181.847 68.9219C182.038 68.061 182.41 67.1217 183.2 66.7312C185.161 65.7618 186.975 67.16 189.708 68.2249C190.84 68.6661 193.584 68.8602 194.308 68.5208C193.354 69.5734 193.362 72.8979 194.767 74.2482C195.013 74.7162 195.272 74.9901 195.471 75.1645C196.069 75.6846 196.558 74.3429 197.061 73.8171C197.568 73.2956 199.451 72.8262 200.263 74.5541C201.083 76.3141 200.398 78.2562 198.687 79.0875Z" fill="#FFA8A7"/>
<path d="M186.606 83.672C188.751 83.6596 190.654 83.3948 191.919 82.8613C193.185 82.3279 194.307 80.6161 194.675 78.9183C194.675 80.2849 194.075 82.7083 192.157 83.7145C190.239 84.7207 188.005 84.7747 186.602 84.8048L186.606 83.672Z" fill="#F28F8F"/>
<path d="M189.697 70.9577L191.509 71.721C191.71 71.2024 191.466 70.6111 190.966 70.4003C190.465 70.189 189.897 70.4386 189.697 70.9577Z" fill="#37474F"/>
<path d="M182.916 70.9118L184.757 70.1804C184.573 69.6599 184.011 69.4023 183.503 69.604C182.994 69.8062 182.731 70.3917 182.916 70.9118Z" fill="#37474F"/>
<path d="M190.803 73.2353C190.787 73.6775 190.416 74.0231 189.973 74.0073C189.531 73.9915 189.186 73.6201 189.201 73.178C189.217 72.7358 189.589 72.3902 190.031 72.406C190.473 72.4218 190.819 72.7932 190.803 73.2353Z" fill="#263238"/>
<path d="M184.346 72.9069C184.33 73.3491 183.959 73.6952 183.517 73.6789C183.074 73.6631 182.729 73.2917 182.745 72.8491C182.76 72.407 183.132 72.0609 183.574 72.0771C184.083 72.0958 184.364 72.3988 184.346 72.9069Z" fill="#263238"/>
<path d="M187.367 71.4581L186.705 76.5589L184.011 75.5637C184.971 73.765 186.089 72.3964 187.367 71.4581Z" fill="#F28F8F"/>
<path d="M189.136 77.4451L185.906 78.5125C186.185 79.4369 187.134 79.9474 188.026 79.653C188.918 79.358 189.414 78.3691 189.136 77.4451Z" fill="#B16668"/>
<path d="M188.795 78.0273C188.933 77.9972 189.07 77.9876 189.205 77.9886C189.197 78.729 188.743 79.4159 188.026 79.653C187.846 79.7122 187.664 79.7309 187.486 79.728C187.353 78.9718 187.925 78.2175 188.795 78.0273Z" fill="#F28F8F"/>
<path d="M197.051 85.9573C190.366 90.9634 177.093 100.787 170.506 122.111L173.753 123.446C178.57 104.174 193.721 92.1211 200.406 87.115L197.051 85.9573Z" fill="#455A64"/>
<path d="M210.969 62.8355L210.493 61.3484C210.236 60.1472 215.137 62.9765 215.393 64.1777L213.814 68.4281C213.754 68.5667 213.66 68.6695 213.549 68.7374C213.202 68.951 211.926 69.6709 211.815 69.7388C211.465 69.9529 210.951 69.8186 210.805 69.3635L208.76 62.3484C208.633 61.7566 209.762 62.1457 210.969 62.8355Z" fill="#0939AE"/>
<path opacity="0.2" d="M210.969 62.8355L210.493 61.3484C210.236 60.1472 215.137 62.9765 215.393 64.1777L213.814 68.4281C213.754 68.5667 213.66 68.6695 213.549 68.7374C213.202 68.951 211.926 69.6709 211.815 69.7388C211.465 69.9529 210.951 69.8186 210.805 69.3635L208.76 62.3484C208.633 61.7566 209.762 62.1457 210.969 62.8355Z" fill="white"/>
<path d="M204.308 34.2649L222.939 45.0128C223.287 45.2135 223.569 45.7021 223.569 46.1036V68.1795C223.569 68.581 223.286 69.0667 222.936 69.2641L221.783 69.9156C221.434 70.113 220.868 70.1102 220.52 69.9094L201.889 59.1621C201.541 58.9613 201.26 58.4728 201.26 58.0713V35.9953C201.26 35.5938 201.543 35.1081 201.893 34.9107L203.045 34.2592C203.395 34.0618 203.961 34.0642 204.308 34.2649Z" fill="#0939AE"/>
<path opacity="0.2" d="M204.308 34.2649L222.939 45.0128C223.287 45.2135 223.569 45.7021 223.569 46.1036V68.1795C223.569 68.581 223.286 69.0667 222.936 69.2641L221.783 69.9156C221.434 70.113 220.868 70.1102 220.52 69.9094L201.889 59.1621C201.541 58.9613 201.26 58.4728 201.26 58.0713V35.9953C201.26 35.5938 201.543 35.1081 201.893 34.9107L203.045 34.2592C203.395 34.0618 203.961 34.0642 204.308 34.2649Z" fill="white"/>
<path d="M201.89 35.6316L220.521 46.3794C220.869 46.5801 221.151 47.0687 221.151 47.4702V69.5461C221.151 69.9477 220.869 70.1107 220.521 69.9094L213.391 65.7967L212.081 69.429C211.829 70.006 210.997 69.9639 210.805 69.3645L209.064 63.3011L201.89 59.1621C201.542 58.9613 201.26 58.4728 201.26 58.0713V35.9953C201.26 35.5938 201.542 35.4308 201.89 35.6316Z" fill="#0939AE"/>
<path opacity="0.4" d="M201.89 35.6316L220.521 46.3794C220.869 46.5801 221.151 47.0687 221.151 47.4702V69.5461C221.151 69.9477 220.869 70.1107 220.521 69.9094L213.391 65.7967L212.081 69.429C211.829 70.006 210.997 69.9639 210.805 69.3645L209.064 63.3011L201.89 59.1621C201.542 58.9613 201.26 58.4728 201.26 58.0713V35.9953C201.26 35.5938 201.542 35.4308 201.89 35.6316Z" fill="white"/>
<path d="M204.914 50.3989V46.6485L211.604 54.6813L220.143 54.2888L211.604 44.8345L203.065 44.4287L204.71 46.4033V50.2813C204.597 50.2717 204.516 50.3688 204.516 50.5385V54.3443C204.516 54.5623 204.648 54.8156 204.812 54.9102C204.975 55.0049 205.108 54.9045 205.108 54.6865V50.8807C205.108 50.7101 205.028 50.5198 204.914 50.3989ZM206.786 50.2225V55.2826C206.786 58.2448 216.426 63.8101 216.426 60.848V55.7879L211.606 56.0097L206.786 50.2225Z" fill="white"/>
<path opacity="0.7" d="M201.268 35.8811C201.317 35.5637 201.576 35.4504 201.89 35.6306L220.519 46.3789C220.693 46.4807 220.851 46.6523 220.964 46.8502L223.372 45.4602C223.258 45.2709 223.107 45.1084 222.938 45.0123L204.307 34.264C203.96 34.0632 203.396 34.0604 203.044 34.2583L201.893 34.9093C201.576 35.09 201.311 35.5058 201.268 35.8811Z" fill="white"/>
</svg>
