<svg width="73" height="73" viewBox="0 0 73 73" fill="none" xmlns="http://www.w3.org/2000/svg">
<path opacity="0.7" d="M9.91802 24.3946C9.91802 24.3946 5.84798 34.9048 11.5674 45.492C17.2868 56.0793 29.0697 61.6691 38.4999 66.45C47.93 71.2309 57.7224 68.9027 62.3758 61.0717C67.0293 53.2407 60.6465 47.6502 60.6389 36.4826C60.6314 25.3151 62.3101 22.3583 56.2643 12.9235C50.2184 3.48852 35.3776 1.40043 24.1589 8.39807C12.9402 15.3957 9.91802 24.3946 9.91802 24.3946Z" fill="white"/>
<path d="M9.29849 20.3175C13.1989 12.749 20.4346 7.02333 29.455 6.21697C35.5938 5.6683 41.8996 7.47228 46.7895 11.2318C49.2512 13.1244 51.4391 15.5458 52.8912 18.3045C54.5591 21.4731 55.0444 25.1257 56.7603 28.2787C58.894 32.1994 62.8999 33.8161 65.5901 37.204C67.8055 39.9941 68.5657 43.7324 68.3114 47.2859C67.8471 53.7728 64.0466 59.9317 58.4568 63.256C53.7313 66.0662 48.0345 66.8417 42.5424 66.5865C34.0753 66.193 25.6448 63.4012 18.9758 58.1695C12.3068 52.9377 7.51261 45.2045 6.37732 36.8047C5.60571 31.0958 6.72743 25.3063 9.29849 20.3175Z" fill="#EAA633"/>
<path opacity="0.7" d="M9.29849 20.3175C13.1989 12.749 20.4346 7.02333 29.455 6.21697C35.5938 5.6683 41.8996 7.47228 46.7895 11.2318C49.2512 13.1244 51.4391 15.5458 52.8912 18.3045C54.5591 21.4731 55.0444 25.1257 56.7603 28.2787C58.894 32.1994 62.8999 33.8161 65.5901 37.204C67.8055 39.9941 68.5657 43.7324 68.3114 47.2859C67.8471 53.7728 64.0466 59.9317 58.4568 63.256C53.7313 66.0662 48.0345 66.8417 42.5424 66.5865C34.0753 66.193 25.6448 63.4012 18.9758 58.1695C12.3068 52.9377 7.51261 45.2045 6.37732 36.8047C5.60571 31.0958 6.72743 25.3063 9.29849 20.3175Z" fill="white"/>
<path d="M6.72656 23.0845C6.89884 23.7667 6.81402 22.5109 7.15171 20.9743C7.48941 19.4377 8.06772 20.061 8.06772 20.061" stroke="#263238" stroke-miterlimit="10" stroke-linecap="round" stroke-linejoin="round"/>
<path d="M6.62061 21.5148L7.67925 21.0806" stroke="#263238" stroke-miterlimit="10" stroke-linecap="round" stroke-linejoin="round"/>
<path d="M8.55478 20.5603C8.55478 20.5603 7.92187 21.8689 8.87598 22.4252" stroke="#263238" stroke-miterlimit="10" stroke-linecap="round" stroke-linejoin="round"/>
<path d="M9.45239 20.1922C9.45239 20.1922 10.497 20.7726 9.84265 22.0288" stroke="#263238" stroke-miterlimit="10" stroke-linecap="round" stroke-linejoin="round"/>
<path d="M8.73657 21.0035L9.48497 21.55" stroke="#263238" stroke-miterlimit="10" stroke-linecap="round" stroke-linejoin="round"/>
<path d="M9.32352 20.7629L8.73792 21.6951" stroke="#263238" stroke-miterlimit="10" stroke-linecap="round" stroke-linejoin="round"/>
<path d="M12.687 34.744C12.8294 33.8759 12.2412 33.0568 11.3732 32.9144C10.5052 32.772 9.68604 33.3602 9.54363 34.2282C9.40121 35.0963 9.98944 35.9154 10.8575 36.0578C11.7255 36.2002 12.5446 35.612 12.687 34.744Z" stroke="#263238" stroke-miterlimit="10" stroke-linecap="round" stroke-linejoin="round"/>
<path d="M14.3096 36.5436C13.5168 37.113 12.4126 36.9318 11.8432 36.1391C11.2738 35.3463 11.455 34.2421 12.2478 33.6727C13.0406 33.1033 14.1448 33.2845 14.7142 34.0772C15.2836 34.87 15.1024 35.9742 14.3096 36.5436Z" stroke="#263238" stroke-miterlimit="10" stroke-linecap="round" stroke-linejoin="round"/>
<path d="M12.567 33.8295L11.8328 34.0916" stroke="#263238" stroke-miterlimit="10" stroke-linecap="round" stroke-linejoin="round"/>
<path d="M12.6689 34.1321L11.6147 34.5133" stroke="#263238" stroke-miterlimit="10" stroke-linecap="round" stroke-linejoin="round"/>
<path d="M12.708 34.4966L11.5314 34.949" stroke="#263238" stroke-miterlimit="10" stroke-linecap="round" stroke-linejoin="round"/>
<path d="M12.6243 34.9947L11.5518 35.4848" stroke="#263238" stroke-miterlimit="10" stroke-linecap="round" stroke-linejoin="round"/>
<path d="M12.4354 35.378L11.6194 35.7164" stroke="#263238" stroke-miterlimit="10" stroke-linecap="round" stroke-linejoin="round"/>
<path d="M11.885 32.06C11.8388 31.9216 11.3226 31.8235 11.2973 32.2055C11.2722 32.5878 11.8422 32.2702 12.0021 32.0667C12.0021 32.0667 11.7089 32.4605 11.8333 32.5381" stroke="#263238" stroke-miterlimit="10" stroke-linecap="round" stroke-linejoin="round"/>
<path d="M14.744 32.5362L14.2854 33.4893C14.2854 33.4893 14.5148 33.0128 14.76 33.0564C15.0623 33.1102 14.8615 33.6045 14.4961 33.4226" stroke="#263238" stroke-miterlimit="10" stroke-linecap="round" stroke-linejoin="round"/>
<path d="M64.6355 48.102L65.3557 48.7835" stroke="#263238" stroke-miterlimit="10" stroke-linecap="round" stroke-linejoin="round"/>
<path d="M65.3557 47.9241L64.7526 48.825" stroke="#263238" stroke-miterlimit="10" stroke-linecap="round" stroke-linejoin="round"/>
<path d="M66.0641 48.1826L66.7846 47.9149" stroke="#263238" stroke-miterlimit="10" stroke-linecap="round" stroke-linejoin="round"/>
<path d="M67.13 47.1637L67.5681 47.5515" stroke="#263238" stroke-miterlimit="10" stroke-linecap="round" stroke-linejoin="round"/>
<path d="M67.904 46.6975L67.3492 48.6018" stroke="#263238" stroke-miterlimit="10" stroke-linecap="round" stroke-linejoin="round"/>
<path d="M34.3049 37.4082L36.2422 36.0754L38.808 36.2553L38.9683 39.5073L37.0851 40.8538L34.7612 40.6845L34.3049 37.4082Z" stroke="#263238" stroke-miterlimit="10" stroke-linecap="round" stroke-linejoin="round"/>
<path d="M34.7612 40.6845L36.6367 39.334L38.9684 39.5073" stroke="#263238" stroke-miterlimit="10" stroke-linecap="round" stroke-linejoin="round"/>
<path d="M36.6367 39.334L36.2422 36.0754" stroke="#263238" stroke-miterlimit="10" stroke-linecap="round" stroke-linejoin="round"/>
<path d="M34.3049 37.4082L36.865 37.7048L38.808 36.2553" stroke="#263238" stroke-miterlimit="10" stroke-linecap="round" stroke-linejoin="round"/>
<path d="M36.865 37.7048L37.085 40.8538" stroke="#263238" stroke-miterlimit="10" stroke-linecap="round" stroke-linejoin="round"/>
<path d="M56.918 26.4802L56.0597 29.1476L58.7312 28.7871L56.918 26.4802Z" stroke="#263238" stroke-miterlimit="10" stroke-linecap="round" stroke-linejoin="round"/>
<path d="M56.918 26.4802L57.3954 28.9518" stroke="#263238" stroke-miterlimit="10" stroke-linecap="round" stroke-linejoin="round"/>
<path d="M57.319 28.5557L57.6314 28.5061L57.7043 28.9257" stroke="#263238" stroke-miterlimit="10" stroke-linecap="round" stroke-linejoin="round"/>
<path d="M23.2708 50.8893L24.6058 51.545" stroke="#263238" stroke-miterlimit="10" stroke-linecap="round" stroke-linejoin="round"/>
<path d="M24.1748 50.389L23.7928 51.7833" stroke="#263238" stroke-miterlimit="10" stroke-linecap="round" stroke-linejoin="round"/>
<path d="M24.3601 49.7092C24.3601 49.7092 24.5483 49.5394 24.6817 49.7504C24.8152 49.9612 24.553 50.4017 24.553 50.4017L25.0884 50.198" stroke="#263238" stroke-miterlimit="10" stroke-linecap="round" stroke-linejoin="round"/>
<path d="M33.748 4.96866C35.0221 5.68464 33.5621 7.43664 33.5621 8.45864C33.5621 9.48064 35.0221 9.33464 35.7521 9.62664C36.0441 9.62664 36.6281 9.62664 36.6124 10.3692" stroke="#263238" stroke-miterlimit="10" stroke-linecap="round" stroke-linejoin="round"/>
<path d="M32.3275 5.89401C32.549 7.10216 33.9356 6.67351 34.7837 6.94945C36.2413 7.42365 35.4332 8.93081 34.9973 9.84127C34.7367 10.3857 34.4771 11.1465 34.943 11.6629" stroke="#263238" stroke-miterlimit="10" stroke-linecap="round" stroke-linejoin="round"/>
<path d="M32.5139 6.36252L34.0336 5.09991" stroke="#263238" stroke-miterlimit="10" stroke-linecap="round" stroke-linejoin="round"/>
<path d="M33.1102 6.73933L34.2547 5.79004" stroke="#263238" stroke-miterlimit="10" stroke-linecap="round" stroke-linejoin="round"/>
<path d="M33.7827 7.69959L34.7495 6.94009" stroke="#263238" stroke-miterlimit="10" stroke-linecap="round" stroke-linejoin="round"/>
<path d="M33.5831 8.83633L35.4725 7.47751" stroke="#263238" stroke-miterlimit="10" stroke-linecap="round" stroke-linejoin="round"/>
<path d="M34.3066 9.36617L35.6234 8.39935" stroke="#263238" stroke-miterlimit="10" stroke-linecap="round" stroke-linejoin="round"/>
<path d="M34.8671 11.4202L36.5131 10.0801" stroke="#263238" stroke-miterlimit="10" stroke-linecap="round" stroke-linejoin="round"/>
<path d="M34.9077 10.3658L35.9817 9.61118" stroke="#263238" stroke-miterlimit="10" stroke-linecap="round" stroke-linejoin="round"/>
<path d="M13.4228 51.6192C14.9908 50.9921 15.7537 49.2127 15.1266 47.6446C14.4996 46.0766 12.7201 45.3138 11.1521 45.9408C9.58402 46.5678 8.82119 48.3473 9.44824 49.9154C10.0753 51.4834 11.8548 52.2462 13.4228 51.6192Z" stroke="#263238" stroke-miterlimit="10" stroke-linecap="round" stroke-linejoin="round"/>
<path d="M13.0584 45.8203C14.1241 44.5697 15.0303 43.8609 15.3798 44.0912C15.9105 44.4411 14.957 46.8236 13.2501 49.4127C11.5433 52.0018 9.72935 53.817 9.19878 53.4672C8.84926 53.2368 9.14359 52.1245 9.87316 50.652" stroke="#263238" stroke-miterlimit="10" stroke-linecap="round" stroke-linejoin="round"/>
<path d="M9.29662 49.406C7.81122 48.9785 6.86207 48.4794 6.92106 48.0804C7.01406 47.4516 9.57636 47.3098 12.644 47.7636C15.7117 48.2174 18.1232 49.095 18.0301 49.7238C17.9657 50.1587 16.7203 50.3606 14.9436 50.2936" stroke="#263238" stroke-miterlimit="10" stroke-linecap="round" stroke-linejoin="round"/>
<path d="M9.68642 47.1917C8.56544 45.1684 8.0048 43.5897 8.38513 43.3434C8.88415 43.0203 10.814 45.1138 12.6958 48.0197C14.5776 50.9254 15.6984 53.5429 15.1994 53.8661C14.8694 54.0798 13.9133 53.2363 12.7591 51.7996" stroke="#263238" stroke-miterlimit="10" stroke-linecap="round" stroke-linejoin="round"/>
<path d="M15.81 45.4149C15.6571 45.6467 15.3454 45.7107 15.1135 45.558C14.8817 45.4051 14.8177 45.0934 14.9705 44.8616C15.1233 44.6297 15.435 44.5658 15.6669 44.7185C15.8987 44.8713 15.9628 45.183 15.81 45.4149Z" fill="#263238"/>
<path d="M14.1467 53.1073C13.9938 53.3392 13.6821 53.4031 13.4503 53.2504C13.2184 53.0976 13.1545 52.7858 13.3074 52.554C13.4602 52.3221 13.7719 52.2582 14.0038 52.4109C14.2355 52.5638 14.2996 52.8756 14.1467 53.1073Z" fill="#263238"/>
<path d="M11.4643 47.8908C11.3114 48.1226 10.9997 48.1866 10.7678 48.0339C10.536 47.881 10.472 47.5693 10.6248 47.3374C10.7776 47.1056 11.0893 47.0416 11.3212 47.1945C11.553 47.3472 11.6171 47.6589 11.4643 47.8908Z" fill="#263238"/>
<path d="M43.4834 26.0356H45.2036L46.0637 24.5458L45.2036 23.056H43.4834L42.6232 24.5458L43.4834 26.0356Z" stroke="#263238" stroke-miterlimit="10" stroke-linecap="round" stroke-linejoin="round"/>
<path d="M43.2336 29.3037L42.3734 27.8139H40.6532" stroke="#263238" stroke-miterlimit="10" stroke-linecap="round" stroke-linejoin="round"/>
<path d="M40.8843 24.5458H42.6046L43.4647 23.056L42.6046 21.5663H40.8843L40.0242 23.056L40.8843 24.5458Z" stroke="#263238" stroke-miterlimit="10" stroke-linecap="round" stroke-linejoin="round"/>
<path d="M43.4834 23.056H45.2036L46.0637 21.5662L45.2036 20.0764H43.4834L42.6232 21.5662L43.4834 23.056Z" stroke="#263238" stroke-miterlimit="10" stroke-linecap="round" stroke-linejoin="round"/>
<path d="M43.4646 23.287C43.5922 23.287 43.6956 23.1836 43.6956 23.056C43.6956 22.9285 43.5922 22.825 43.4646 22.825C43.3371 22.825 43.2336 22.9285 43.2336 23.056C43.2336 23.1836 43.3371 23.287 43.4646 23.287Z" fill="#263238"/>
<path d="M39.8726 20.16C40.0001 20.16 40.1035 20.0566 40.1035 19.929C40.1035 19.8014 40.0001 19.698 39.8726 19.698C39.745 19.698 39.6416 19.8014 39.6416 19.929C39.6416 20.0566 39.745 20.16 39.8726 20.16Z" fill="#263238"/>
<path d="M43.0026 29.3037C43.0026 29.1761 43.1059 29.0727 43.2335 29.0727C43.3611 29.0727 43.4645 29.1761 43.4645 29.3037C43.4645 29.4313 43.3611 29.5346 43.2335 29.5346C43.1061 29.5346 43.0026 29.4313 43.0026 29.3037Z" fill="#263238"/>
<path d="M40.6532 28.0449C40.7808 28.0449 40.8842 27.9415 40.8842 27.8139C40.8842 27.6863 40.7808 27.5829 40.6532 27.5829C40.5257 27.5829 40.4222 27.6863 40.4222 27.8139C40.4222 27.9415 40.5257 28.0449 40.6532 28.0449Z" fill="#263238"/>
<path d="M47.7274 21.6055C47.7274 21.4779 47.8308 21.3745 47.9584 21.3745C48.086 21.3745 48.1895 21.4779 48.1895 21.6055C48.1895 21.7331 48.0861 21.8365 47.9584 21.8365C47.8309 21.8365 47.7274 21.7331 47.7274 21.6055Z" fill="#263238"/>
<path d="M42.3559 28.0449C42.4834 28.0449 42.5868 27.9415 42.5868 27.8139C42.5868 27.6863 42.4834 27.5829 42.3559 27.5829C42.2283 27.5829 42.1249 27.6863 42.1249 27.8139C42.1249 27.9415 42.2283 28.0449 42.3559 28.0449Z" fill="#263238"/>
<path d="M45.8328 21.6055C45.8328 21.4779 45.9361 21.3745 46.0637 21.3745C46.1913 21.3745 46.2947 21.4779 46.2947 21.6055C46.2947 21.7331 46.1913 21.8365 46.0637 21.8365C45.9361 21.8365 45.8328 21.7331 45.8328 21.6055Z" fill="#263238"/>
<path d="M43.2336 26.0356C43.2336 25.908 43.337 25.8046 43.4646 25.8046C43.5922 25.8046 43.6956 25.908 43.6956 26.0356C43.6956 26.1632 43.5922 26.2667 43.4646 26.2667C43.337 26.2667 43.2336 26.1631 43.2336 26.0356Z" fill="#263238"/>
<path d="M46.0637 21.6055H47.9584" stroke="#263238" stroke-miterlimit="10" stroke-linecap="round" stroke-linejoin="round"/>
<path d="M43.4646 26.0356L42.3558 27.8139" stroke="#263238" stroke-miterlimit="10" stroke-linecap="round" stroke-linejoin="round"/>
<path d="M40.8842 21.5662L39.8726 19.929" stroke="#263238" stroke-miterlimit="10" stroke-linecap="round" stroke-linejoin="round"/>
<path d="M53.0831 15.6953C53.4716 14.3754 54.6922 13.412 56.1377 13.412C57.6323 13.412 58.8865 14.4419 59.229 15.8306" stroke="#263238" stroke-miterlimit="10" stroke-linecap="round" stroke-linejoin="round"/>
<path d="M55.7768 19.7595C54.1883 19.5802 52.9539 18.2323 52.9539 16.5959" stroke="#263238" stroke-miterlimit="10" stroke-linecap="round" stroke-linejoin="round"/>
<path d="M59.3215 16.5959C59.3215 18.3542 57.8961 19.7798 56.1377 19.7798" stroke="#263238" stroke-miterlimit="10" stroke-linecap="round" stroke-linejoin="round"/>
<path d="M59.502 14.5773C60.4979 14.4496 61.1654 14.5189 61.2683 14.8156C61.4742 15.409 59.344 16.687 56.5106 17.6702C53.677 18.6535 51.2131 18.9696 51.0073 18.3763C50.8972 18.0592 51.4546 17.5463 52.4302 16.9874" stroke="#263238" stroke-miterlimit="10" stroke-linecap="round" stroke-linejoin="round"/>
<path d="M42.3558 12.3951L42.6609 13.0132L43.3432 13.1124L42.8494 13.5936L42.9659 14.2731L42.3558 13.9523L41.7455 14.2731L41.8622 13.5936L41.3684 13.1124L42.0507 13.0132L42.3558 12.3951Z" stroke="#263238" stroke-miterlimit="10" stroke-linecap="round" stroke-linejoin="round"/>
<path d="M20.8012 10.7495C20.8012 11.3452 20.5501 11.8825 20.1486 12.2577C19.7777 12.6081 19.2784 12.8213 18.7309 12.8213C18.6638 12.8213 18.5981 12.8184 18.5338 12.8125C18.1031 12.7716 17.7118 12.5994 17.3994 12.3366C17.1322 12.1132 16.922 11.8226 16.7964 11.4912C16.7074 11.2605 16.6592 11.0109 16.6592 10.7495C16.6592 9.60636 17.5863 8.67926 18.7309 8.67926C19.0521 8.67926 19.3573 8.75226 19.6303 8.88512C19.9427 9.0355 20.2114 9.2618 20.4114 9.54066C20.6567 9.88084 20.8012 10.2984 20.8012 10.7495Z" stroke="#263238" stroke-miterlimit="10" stroke-linecap="round" stroke-linejoin="round"/>
<path d="M20.4688 11.1242C20.4688 11.3011 20.3254 11.4445 20.1484 11.4445C19.9715 11.4445 19.8281 11.3011 19.8281 11.1242C19.8281 10.9472 19.9715 10.8039 20.1484 10.8039C20.3254 10.8039 20.4688 10.9472 20.4688 11.1242Z" stroke="#263238" stroke-miterlimit="10" stroke-linecap="round" stroke-linejoin="round"/>
<path d="M17.5862 11.938C17.5862 12.0986 17.5132 12.2416 17.3994 12.3365C17.1322 12.1132 16.9219 11.8226 16.7964 11.4912C16.8738 11.443 16.9657 11.4167 17.0636 11.4167C17.3526 11.4167 17.5862 11.6503 17.5862 11.938Z" stroke="#263238" stroke-miterlimit="10" stroke-linecap="round" stroke-linejoin="round"/>
<path d="M20.1486 12.2577C19.7778 12.6081 19.2785 12.8213 18.731 12.8213C18.6638 12.8213 18.5981 12.8184 18.5339 12.8125C18.5222 12.757 18.5164 12.7001 18.5164 12.6417C18.5164 12.1657 18.9018 11.7788 19.3778 11.7788C19.7165 11.7788 20.0085 11.9745 20.1486 12.2577Z" stroke="#263238" stroke-miterlimit="10" stroke-linecap="round" stroke-linejoin="round"/>
<path d="M18.2288 9.9286C18.4919 9.9286 18.7052 9.7153 18.7052 9.4522C18.7052 9.18909 18.4919 8.9758 18.2288 8.9758C17.9657 8.9758 17.7524 9.18909 17.7524 9.4522C17.7524 9.7153 17.9657 9.9286 18.2288 9.9286Z" stroke="#263238" stroke-miterlimit="10" stroke-linecap="round" stroke-linejoin="round"/>
<path d="M18.6696 10.8039C18.6696 10.9256 18.5709 11.0242 18.4491 11.0242C18.3273 11.0242 18.2286 10.9255 18.2286 10.8039C18.2286 10.6821 18.3273 10.5834 18.4491 10.5834C18.5709 10.5834 18.6696 10.6822 18.6696 10.8039Z" stroke="#263238" stroke-miterlimit="10" stroke-linecap="round" stroke-linejoin="round"/>
<path d="M20.4113 9.54067C20.3559 9.55965 20.2945 9.56841 20.2318 9.56841C19.896 9.56841 19.6259 9.29685 19.6259 8.96105C19.6259 8.93477 19.6273 8.90995 19.6302 8.88513C19.9427 9.03551 20.2113 9.26181 20.4113 9.54067Z" stroke="#263238" stroke-miterlimit="10" stroke-linecap="round" stroke-linejoin="round"/>
<path d="M68.0137 34.7906L68.2371 34.2885L67.8753 34.0888C67.8881 33.9995 67.8908 33.9101 67.8826 33.8221L68.2537 33.6415L68.0566 33.1284L67.6599 33.2429C67.6071 33.1721 67.5453 33.1074 67.476 33.0496L67.6109 32.659L67.1088 32.4357L66.9091 32.7974C66.8197 32.7846 66.7304 32.782 66.6423 32.7901L66.4617 32.419L65.9487 32.6161L66.0631 33.0128C65.9923 33.0656 65.9276 33.1274 65.8698 33.1969L65.4793 33.062L65.2559 33.5641L65.6177 33.7638C65.6048 33.8532 65.6022 33.9425 65.6104 34.0306L65.2393 34.2112L65.4364 34.7242L65.8329 34.6097C65.8857 34.6805 65.9475 34.7452 66.017 34.803L65.8821 35.1936L66.3842 35.417L66.5839 35.0553C66.6733 35.0682 66.7626 35.0707 66.8507 35.0626L67.0313 35.4338L67.5443 35.2367L67.4298 34.84C67.5007 34.7871 67.5653 34.7254 67.6231 34.656L68.0137 34.7906ZM66.4868 34.5099C66.1646 34.3665 66.0195 33.9891 66.1629 33.6669C66.3062 33.3446 66.6836 33.1995 67.0059 33.3429C67.3281 33.4863 67.4732 33.8637 67.3298 34.1859C67.1866 34.5081 66.8092 34.6531 66.4868 34.5099Z" stroke="#263238" stroke-miterlimit="10" stroke-linecap="round" stroke-linejoin="round"/>
<path d="M65.3456 37.3677L65.6489 36.6857L65.1577 36.4144C65.1752 36.2931 65.1785 36.1716 65.1674 36.0521L65.6716 35.8068L65.4038 35.1101L64.8652 35.2656C64.7934 35.1693 64.7096 35.0814 64.6153 35.003L64.7985 34.4726L64.1165 34.1692L63.8453 34.6605C63.7239 34.643 63.6025 34.6396 63.4829 34.6507L63.2376 34.1466L62.5409 34.4144L62.6962 34.953C62.6 35.0248 62.5121 35.1086 62.4337 35.2029L61.9033 35.0197L61.5999 35.7017L62.0912 35.9729C62.0737 36.0942 62.0703 36.2157 62.0813 36.3353L61.5771 36.5806L61.8449 37.2773L62.3835 37.1219C62.4553 37.2182 62.5391 37.306 62.6335 37.3845L62.4502 37.9149L63.1322 38.2183L63.4035 37.727C63.5248 37.7445 63.6463 37.7478 63.7658 37.7369L64.0111 38.241L64.7078 37.9733L64.5523 37.4347C64.6486 37.3628 64.7364 37.279 64.8148 37.1847L65.3456 37.3677ZM63.2721 36.9862C62.8344 36.7915 62.6374 36.2789 62.832 35.8412C63.0266 35.4035 63.5392 35.2066 63.977 35.4012C64.4147 35.5958 64.6116 36.1084 64.417 36.5461C64.2224 36.9838 63.7098 37.1809 63.2721 36.9862Z" stroke="#263238" stroke-miterlimit="10" stroke-linecap="round" stroke-linejoin="round"/>
<path d="M35.0793 30.8945C34.8765 31.2793 34.65 31.6442 34.4029 31.9868C33.0731 33.8365 31.1424 35.0727 29.0285 35.5682C27.9795 35.8139 26.8847 35.877 25.7952 35.7417C24.7204 35.6091 23.6516 35.2821 22.6367 34.7471C22.4339 34.6403 22.2364 34.5261 22.0453 34.4065C21.8548 34.2884 21.6702 34.1636 21.4924 34.0333C21.2757 33.8764 21.0688 33.7107 20.87 33.5366C20.869 33.5362 20.8685 33.5346 20.8675 33.5342C20.8552 33.5239 20.8431 33.5137 20.8319 33.5016C20.8294 33.4991 20.8275 33.4979 20.8275 33.4979C19.6602 32.4675 18.7971 31.1749 18.2801 29.7579C18.0681 29.1769 17.9133 28.5735 17.8225 27.9583C17.5407 26.0854 17.8336 24.1078 18.7841 22.3047C20.1906 19.6364 22.7214 17.9444 25.4856 17.5036C27.3839 17.2 29.3949 17.4866 31.2265 18.4522C32.9567 19.3643 34.2772 20.7508 35.1114 22.3679C36.4477 24.9511 36.5393 28.1249 35.0793 30.8945Z" fill="#EAA633"/>
<mask id="mask0_607_675" style="mask-type:luminance" maskUnits="userSpaceOnUse" x="17" y="17" width="20" height="19">
<path d="M35.0793 30.8945C34.8765 31.2793 34.65 31.6442 34.4029 31.9868C33.0731 33.8365 31.1424 35.0727 29.0285 35.5682C27.9795 35.8139 26.8847 35.877 25.7952 35.7417C24.7204 35.6091 23.6516 35.2821 22.6367 34.7471C22.4339 34.6403 22.2364 34.5261 22.0453 34.4065C21.8548 34.2884 21.6702 34.1636 21.4924 34.0333C21.2757 33.8764 21.0688 33.7107 20.87 33.5366C20.869 33.5362 20.8685 33.5346 20.8675 33.5342C20.8552 33.5239 20.8431 33.5137 20.8319 33.5016C20.8294 33.4991 20.8275 33.4979 20.8275 33.4979C19.6602 32.4675 18.7971 31.1749 18.2801 29.7579C18.0681 29.1769 17.9133 28.5735 17.8225 27.9583C17.5407 26.0854 17.8336 24.1078 18.7841 22.3047C20.1906 19.6364 22.7214 17.9444 25.4856 17.5036C27.3839 17.2 29.3949 17.4866 31.2265 18.4522C32.9567 19.3643 34.2772 20.7508 35.1114 22.3679C36.4477 24.9511 36.5393 28.1249 35.0793 30.8945Z" fill="white"/>
</mask>
<g mask="url(#mask0_607_675)">
<g opacity="0.6">
<path d="M35.0795 30.8951C34.8765 31.279 34.6502 31.644 34.4035 31.9871L34.2254 31.847L33.9188 31.6849L33.5961 31.5156L33.6501 31.1257C33.6501 31.1257 33.6501 31.1257 33.6326 30.7739C33.6136 30.422 33.8677 30.7096 34.0779 30.6031C34.2852 30.4936 34.4502 30.1709 34.4502 30.1709C34.4502 30.1709 34.5991 29.7022 34.548 29.5139C34.4969 29.3256 34.2706 28.8803 34.2706 28.8803L33.7479 29.6059L33.3172 29.5723L32.888 29.3475L32.834 28.7708L32.6208 28.6598L32.5318 28.3284L31.3798 28.0057C31.3798 28.0057 31.3798 28.0057 31.2484 27.775C31.117 27.5444 30.587 27.4261 30.587 27.4261L30.717 27.1253C30.717 27.1253 30.717 27.1253 30.9214 26.7895C31.1272 26.4537 31.3404 27.0115 31.3404 27.0115L31.5842 27.1385L32.0368 26.7589C32.0368 26.7589 32.0368 26.7589 32.1565 26.2143L32.8938 26.2566C32.8938 26.2566 32.8413 25.9895 33.0866 25.8916C33.3318 25.7953 33.2238 25.2624 33.1304 25.0653C33.034 24.8696 32.6982 25.0273 32.6982 25.0273C32.6982 25.0273 32.323 24.4565 32.2719 24.2287C32.2208 24.0024 32.9873 24.0769 33.3158 23.8535C33.6428 23.6316 33.5319 23.1687 33.3713 23.1585C33.2121 23.1468 33.6852 22.1219 34.5977 22.4037C34.8517 22.4825 35.0123 22.4548 35.1116 22.3672C36.4475 24.9514 36.5395 28.1254 35.0795 30.8951Z" fill="white"/>
<path d="M28.6948 26.9458C28.3824 27.3385 28.3824 27.3385 28.3824 27.3385C28.3824 27.3385 28.2495 27.0217 28.0597 27.194C27.8699 27.3662 27.7736 27.4538 27.7736 27.4538L27.5619 28.0466L27.1823 28.2919L26.9501 28.1707L26.7311 28.0539L26.4931 27.9283L26.2654 28.3605L26.08 28.7109C26.2201 28.9839 26.4143 29.1854 26.4143 29.1854L26.8173 29.8964L27.2976 30.149C27.5925 30.1548 27.9064 30.222 27.9064 30.222L28.2437 30.3987L28.124 31.1301C28.124 31.1301 27.8699 31.5433 27.7006 31.4294C27.5297 31.317 27.5297 31.317 27.5297 31.317L27.2523 32.2777L27.2407 32.8062C27.2407 32.8062 27.0757 32.8748 26.9092 32.9303C26.7413 32.9858 26.8479 32.9566 26.499 33.0646C26.15 33.1727 26.1778 33.1683 25.8945 33.2486C25.6113 33.3289 25.201 33.5727 25.201 33.5727L25.2259 34.0808L24.5586 34.1786L24.1849 33.98L24.2769 33.6588L24.3207 33.1566L24.2696 32.7814L24.109 32.45L24.5586 32.0426L24.4594 31.7871L24.2039 31.279L23.6637 31.571L23.3863 31.72L22.7585 31.4382L22.6898 31.0571L22.4767 30.3695L22.281 29.9431L21.9336 29.473L21.846 29.0686L22.0416 28.6978L22.1453 28.5021L21.8255 28.0714L21.7379 27.7648L21.1992 27.2757C21.1992 27.2757 21.3554 27.2655 21.3204 27.048C21.2853 26.8304 21.6284 26.464 21.6284 26.464C21.8226 26.5662 22.4051 26.972 22.4051 26.972L22.9147 27.0421C22.9205 27.0421 23.0169 27.0392 23.1162 26.8494C23.2184 26.6552 23.522 26.3632 23.522 26.3632C23.522 26.3632 23.287 25.5471 23.4549 25.4376C23.6213 25.3252 23.7936 24.7937 23.7936 24.7937L23.9279 24.5382C23.9279 24.5382 23.6111 24.3995 23.5512 24.2316C23.4914 24.0623 22.7103 24.2871 22.7103 24.2871L22.1715 24.6609L21.7598 24.9879L21.5759 25.3368C21.5759 25.3368 21.2006 24.8857 21.1992 25.1383C21.1977 25.3909 21.0298 25.8989 21.0298 25.8989C21.0298 25.8989 21.1072 25.9398 21.005 26.1355C20.9013 26.3296 20.7918 26.3209 20.5612 26.3486C20.3305 26.3764 19.691 26.2888 19.691 26.2888C19.691 26.2888 19.545 26.829 19.6457 26.9224C19.745 27.0129 19.745 27.0129 19.745 27.0129C19.745 27.0129 19.5888 27.4057 19.434 27.3239C19.2778 27.2407 19.0574 27.1253 19.0574 27.1253L18.5303 27.3385L17.9521 27.9838L17.8222 27.9575C17.5404 26.0858 17.8339 24.1075 18.7843 22.3044C20.1903 19.637 22.722 17.9449 25.4857 17.5039C25.5193 17.6529 25.5558 17.7872 25.5558 17.7872L25.4142 18.5084L25.2273 18.8647L25.0667 19.1698L24.8404 19.599L25.404 20.1334L25.2799 20.7656L24.966 20.9627L24.8755 21.4372L25.4142 22.4898L25.566 22.903C25.566 22.903 25.3981 23.2768 25.4361 23.5337C25.4361 23.5337 25.5018 23.9279 25.7894 24.0842C26.077 24.2389 26.4552 24.4243 26.4552 24.4243L26.4245 25.0113L26.2946 25.1631L26.5107 25.7924C27.1691 26.0508 27.1063 26.2669 27.1691 26.0508C27.2334 25.8362 27.2334 25.8362 27.2334 25.8362L27.6816 25.6741L28.2524 26.3559C28.2524 26.3559 28.4291 26.3326 28.5882 26.534C28.7488 26.7355 29.0087 26.553 28.6948 26.9458Z" fill="white"/>
<path d="M20.9568 32.0309C20.9729 32.2382 20.7101 32.4981 20.7101 32.4981L20.9247 32.6105L20.9904 33.1887L20.8283 33.4982C19.6603 32.4675 18.7975 31.1754 18.2806 29.7577L18.3974 29.1387L18.9128 29.0657C18.9128 29.0657 19.3742 28.7591 19.5786 28.8408C19.783 28.9255 19.9699 29.4204 19.9699 29.4204C19.9699 29.4204 20.1202 30.0979 20.0969 30.0847L20.094 30.0833L20.0852 30.0891L20.0969 30.0847L20.3071 30.1957L20.367 30.4629L20.0735 31.0177L19.6034 31.0191C19.6034 31.0191 19.51 30.9695 19.5012 31.2133C19.4924 31.4586 19.745 31.6411 19.745 31.6411L20.2531 31.5112C20.3889 30.9856 20.3889 30.9856 20.3889 30.9856L20.8882 30.8877C20.8882 30.8877 20.8167 31.2104 20.9335 31.2717C21.0517 31.3345 21.0517 31.3345 21.0517 31.3345L21.1218 31.7199C21.1218 31.7199 20.9408 31.8236 20.9568 32.0309Z" fill="white"/>
<path d="M23.3716 32.8567C23.3265 32.7323 23.3075 32.6228 22.9964 32.459C22.6863 32.2956 22.7021 32.3542 22.5816 32.4894C22.4603 32.6241 22.3207 32.7002 22.1172 32.6546C21.9137 32.6089 22.0197 32.8396 22.0197 32.8396L22.0684 33.4628L21.4923 34.0332C21.6701 34.1634 21.8547 34.2882 22.0452 34.4064L22.1683 34.0298L23.1262 34.3147C22.923 34.2541 23.0428 33.9764 23.0428 33.9764L22.8381 33.8685C22.8381 33.8685 23.4173 32.9801 23.3716 32.8567Z" fill="white"/>
<path d="M29.4039 29.6155L29.0899 29.2987L28.7314 29.4123L28.5783 29.7028L28.4679 29.9123L28.6161 30.1975L28.9104 30.5517L29.0779 30.234C29.0779 30.234 29.5407 30.237 29.7828 29.9667C30.0248 29.696 29.4039 29.6155 29.4039 29.6155Z" fill="white"/>
<path d="M28.4823 28.1862L29.0663 28.4941C29.0663 28.4941 29.0663 28.4941 29.0889 28.3567C29.1116 28.2193 29.2473 28.0562 29.2473 28.0562L28.7999 27.5838L28.4823 28.1862Z" fill="white"/>
<path d="M28.283 34.9828L28.1146 34.7368L27.9197 34.634L27.322 34.6346L26.9821 35.2793C26.9821 35.2793 26.6571 35.2351 26.2289 35.198C25.8013 35.1599 25.907 35.3364 25.907 35.3364L25.7953 35.7415C26.8847 35.8769 27.9796 35.8138 29.0286 35.5681C28.8565 35.4459 28.6459 35.3324 28.6459 35.3324L28.283 34.9828Z" fill="white"/>
</g>
</g>
<path d="M35.0793 30.8945C34.8765 31.2793 34.65 31.6442 34.4029 31.9868C33.0731 33.8365 31.1424 35.0727 29.0285 35.5682C27.9795 35.8139 26.8847 35.877 25.7952 35.7417C24.7204 35.6091 23.6516 35.2821 22.6367 34.7471C22.4339 34.6403 22.2364 34.5261 22.0453 34.4065C21.8548 34.2884 21.6702 34.1636 21.4924 34.0333C21.2757 33.8764 21.0688 33.7107 20.87 33.5366C20.869 33.5362 20.8685 33.5346 20.8675 33.5342C20.8552 33.5239 20.8431 33.5137 20.8319 33.5016C20.8294 33.4991 20.8275 33.4979 20.8275 33.4979C19.6602 32.4675 18.7971 31.1749 18.2801 29.7579C18.0681 29.1769 17.9133 28.5735 17.8225 27.9583C17.5407 26.0854 17.8336 24.1078 18.7841 22.3047C20.1906 19.6364 22.7214 17.9444 25.4856 17.5036C27.3839 17.2 29.3949 17.4866 31.2265 18.4522C32.9567 19.3643 34.2772 20.7508 35.1114 22.3679C36.4477 24.9511 36.5393 28.1249 35.0793 30.8945Z" stroke="#263238" stroke-miterlimit="10" stroke-linecap="round" stroke-linejoin="round"/>
<path d="M29.0285 35.5682C27.9795 35.8139 26.8848 35.877 25.7952 35.7417L25.9069 35.3365C25.9069 35.3365 25.8012 35.16 26.2288 35.1981C26.657 35.2352 26.982 35.2794 26.982 35.2794L27.3219 34.6348L27.9196 34.6342L28.1145 34.737L28.2829 34.983L28.6457 35.3327C28.6457 35.3327 28.8563 35.446 29.0285 35.5682Z" stroke="#263238" stroke-miterlimit="10" stroke-linecap="round" stroke-linejoin="round"/>
<path d="M35.1116 22.3678C35.0126 22.4552 34.8523 22.4827 34.5983 22.404C33.6856 22.1216 33.2117 23.1471 33.3717 23.1585C33.5323 23.1689 33.6433 23.6313 33.316 23.8536C32.9872 24.0766 32.2213 24.0023 32.2716 24.2288C32.323 24.4559 32.6975 25.0269 32.6975 25.0269C32.6975 25.0269 33.0333 24.8694 33.1297 25.066C33.2244 25.2631 33.3325 25.7954 33.0866 25.8922C32.8416 25.9895 32.8942 26.2574 32.8942 26.2574L32.156 26.2142C32.0373 26.759 32.0373 26.759 32.0373 26.759L31.5843 27.1389L31.3412 27.0107C31.3412 27.0107 31.1277 26.4542 30.9219 26.7897C30.7176 27.1248 30.7176 27.1248 30.7176 27.1248L30.5868 27.4255C30.5868 27.4255 31.1168 27.5439 31.2492 27.7748C31.3806 28.005 31.3806 28.005 31.3806 28.005L32.5318 28.3288L32.6217 28.6592L32.8343 28.7713L32.8882 29.3469L33.3179 29.5722L33.7477 29.6063L34.2714 28.88C34.2714 28.88 34.4977 29.3263 34.5484 29.514C34.6 29.7022 34.4511 30.1709 34.4511 30.1709C34.4511 30.1709 34.2858 30.4939 34.0775 30.6028C33.8687 30.7102 33.6141 30.4226 33.6324 30.7743C33.6497 31.1256 33.6497 31.1256 33.6497 31.1256L33.5966 31.5151L33.9194 31.6854L34.2256 31.8467L34.4032 31.9869" stroke="#263238" stroke-miterlimit="10" stroke-linecap="round" stroke-linejoin="round"/>
<path d="M17.8226 27.9581L17.9516 27.9832L18.5307 27.3378L19.0569 27.1246C19.0569 27.1246 19.2784 27.2414 19.4339 27.3233C19.5894 27.4052 19.7456 27.0135 19.7456 27.0135C19.7456 27.0135 19.7456 27.0135 19.6456 26.9218C19.5446 26.8296 19.6916 26.2883 19.6916 26.2883C19.6916 26.2883 20.3302 26.3772 20.5613 26.3494C20.7924 26.3215 20.9021 26.3304 21.0048 26.1355C21.1076 25.9406 21.0298 25.8997 21.0298 25.8997C21.0298 25.8997 21.1984 25.3912 21.1995 25.1389C21.2003 24.8866 21.5754 25.337 21.5754 25.337L21.7597 24.9876L22.1723 24.6606L22.7098 24.2874C22.7098 24.2874 23.4911 24.0629 23.5517 24.2318C23.6112 24.4003 23.9284 24.5385 23.9284 24.5385L23.794 24.7934C23.794 24.7934 23.6219 25.3253 23.4547 25.4372C23.2871 25.5475 23.5225 26.3634 23.5225 26.3634C23.5225 26.3634 23.2185 26.656 23.1163 26.8498C23.0135 27.0448 22.9151 27.0432 22.9151 27.0432L22.405 26.9729C22.405 26.9729 21.823 26.5668 21.6281 26.464C21.6281 26.464 21.2863 26.8309 21.3205 27.0477C21.3551 27.2659 21.2002 27.276 21.2002 27.276L21.7386 27.7648L21.8261 28.0713L22.1463 28.5017L22.0425 28.6985L21.8468 29.0695L21.9333 29.4735L22.2821 29.9429L22.4774 30.369L22.6906 31.0574L22.759 31.4382L23.3865 31.72L23.6639 31.5706L24.2037 31.2791L24.4591 31.7871L24.5597 32.0426L24.11 32.4495L24.2696 32.7814L24.3217 33.1573L24.277 33.6596L24.1846 33.9806L24.5595 34.1783L25.2256 34.0817L25.2022 33.5726C25.2022 33.5726 25.612 33.3295 25.895 33.2486C26.1789 33.1681 26.1499 33.173 26.4996 33.0655C26.8488 32.9566 26.7412 32.9865 26.9091 32.9305C27.0755 32.8748 27.2407 32.8072 27.2407 32.8072L27.2531 32.278L27.5296 31.3169C27.5296 31.3169 27.5296 31.3169 27.7004 31.4296C27.8706 31.5432 28.1244 31.1312 28.1244 31.1312L28.2437 30.3991L27.907 30.2217C27.907 30.2217 27.5934 30.1557 27.2983 30.1499L26.817 29.8961L26.4152 29.1863C26.4152 29.1863 26.2208 28.9845 26.0804 28.7118L26.2651 28.3614L26.4928 27.9292L26.731 28.0548L26.9504 28.1706L27.1827 28.2931L27.5617 28.0465L27.7736 27.4539C27.7736 27.4539 27.8701 27.3664 28.0599 27.1947C28.2502 27.0221 28.3828 27.3385 28.3828 27.3385C28.3828 27.3385 28.3828 27.3385 28.6954 26.9461C29.0089 26.5542 28.7497 26.7357 28.5893 26.5342C28.4288 26.3327 28.2527 26.3568 28.2527 26.3568L27.6816 25.6747L27.2336 25.8373C27.2336 25.8373 27.2336 25.8373 27.1698 26.0515C27.1065 26.2672 27.1698 26.0515 26.5115 25.7925L26.2946 25.1637L26.4248 25.0121L26.4563 24.4251C26.4563 24.4251 26.077 24.2402 25.7903 24.0853C25.503 23.9288 25.4368 23.5343 25.4368 23.5343C25.3986 23.2777 25.5663 22.9045 25.5663 22.9045L25.4149 22.4901L24.8756 21.4373L24.9668 20.9636L25.2797 20.7662L25.4038 20.1347L24.8404 19.6001L25.0666 19.171L25.2275 18.8658L25.4152 18.5096L25.5557 17.7875C25.5557 17.7875 25.5202 17.6543 25.486 17.5042" stroke="#263238" stroke-miterlimit="10" stroke-linecap="round" stroke-linejoin="round"/>
<path d="M20.8701 33.5365C20.8555 33.5188 20.8395 33.5064 20.832 33.5013C20.8295 33.4988 20.8276 33.4977 20.8276 33.4977L20.9906 33.1886L20.9253 32.6109L20.7107 32.4977C20.7107 32.4977 20.972 32.238 20.9566 32.0312C20.9406 31.8229 21.1211 31.7192 21.1211 31.7192L21.0512 31.334C21.0512 31.334 21.0512 31.334 20.9341 31.2722C20.817 31.2104 20.8881 30.887 20.8881 30.887L20.3888 30.9849C20.3888 30.9849 20.3888 30.9849 20.2525 31.5105L19.745 31.6404C19.745 31.6404 19.4926 31.4583 19.5009 31.2137C19.5101 30.9695 19.6037 31.0187 19.6037 31.0187L20.0735 31.0174L20.3661 30.4623L20.3076 30.1963L20.096 30.0848" stroke="#263238" stroke-miterlimit="10" stroke-linecap="round" stroke-linejoin="round"/>
<path d="M20.0943 30.0837L20.0963 30.0848C20.12 30.0972 19.9698 29.4206 19.9698 29.4206C19.9698 29.4206 19.7833 28.9249 19.5786 28.8408C19.3744 28.7583 18.9129 29.066 18.9129 29.066L18.3976 29.139L18.2804 29.7576" stroke="#263238" stroke-miterlimit="10" stroke-linecap="round" stroke-linejoin="round"/>
<path d="M22.1684 34.0298L22.0453 34.4064C21.8548 34.2882 21.6703 34.1634 21.4924 34.0332L22.0685 33.4628L22.0198 32.8396C22.0198 32.8396 21.9138 32.6089 22.1173 32.6546C22.3208 32.7003 22.4604 32.6241 22.5817 32.4894C22.702 32.3542 22.6864 32.2955 22.9965 32.459C23.3075 32.623 23.3266 32.7323 23.3717 32.8567C23.4174 32.9801 22.8384 33.8685 22.8384 33.8685L23.0431 33.9764C23.0431 33.9764 22.9231 34.2541 23.1265 34.3147L22.1684 34.0298Z" stroke="#263238" stroke-miterlimit="10" stroke-linecap="round" stroke-linejoin="round"/>
<path d="M28.7316 29.4123L29.09 29.2987L29.404 29.6155C29.404 29.6155 30.025 29.6961 29.7829 29.9665C29.5409 30.2369 29.078 30.2338 29.078 30.2338L28.9106 30.5515L28.6162 30.1973L28.4679 29.9122L28.5784 29.7027L28.7316 29.4123Z" stroke="#263238" stroke-miterlimit="10" stroke-linecap="round" stroke-linejoin="round"/>
<path d="M29.2472 28.0564C29.2472 28.0564 29.1114 28.2195 29.0888 28.3568C29.0662 28.4942 29.0662 28.4942 29.0662 28.4942L28.4822 28.1863L28.7997 27.5839L29.2472 28.0564Z" stroke="#263238" stroke-miterlimit="10" stroke-linecap="round" stroke-linejoin="round"/>
<path d="M60.9302 62.495C60.1476 63.1462 54.1196 67.2835 45.517 66.6169C45.0541 62.7012 43.289 46.6134 45.2965 44.092C45.2965 44.092 50.1671 41.7691 54.6536 42.7444C59.1402 43.7197 60.8864 44.6541 61.2061 45.4629C61.4485 46.0747 61.1024 57.4653 60.9302 62.495Z" fill="#263238"/>
<path d="M54.5047 44.4628C51.9205 46.701 48.5917 46.228 48.6647 44.5095C48.6764 44.2409 48.964 43.908 48.964 43.908C48.964 43.908 48.9261 43.8511 48.8633 43.7533C48.7669 43.6073 48.6107 43.3693 48.4297 43.0919C48.1099 42.5969 47.7099 41.975 47.431 41.5224C47.1974 41.1369 53.0214 37.5541 53.0214 39.6142C53.0214 42.5166 54.4463 43.0627 54.4463 43.0627C54.9792 43.2788 55.4786 43.6204 54.5047 44.4628Z" fill="white" stroke="#263238" stroke-miterlimit="10" stroke-linecap="round" stroke-linejoin="round"/>
<path d="M56.1377 48.8955C56.1377 48.8955 55.6169 50.682 55.8645 51.1942" stroke="white" stroke-miterlimit="10" stroke-linecap="round" stroke-linejoin="round"/>
<path d="M55.5297 43.7061C55.5297 45.4307 50.3858 47.1196 48.8785 45.3901" stroke="white" stroke-miterlimit="10" stroke-linecap="round" stroke-linejoin="round"/>
<path d="M51.2986 41.7166C51.2986 41.7166 50.9524 43.0154 49.3496 44.031C49.3496 44.031 49.2679 43.8529 49.0035 43.7577C48.9568 43.7409 48.9071 43.7562 48.8633 43.7533C48.7669 43.6073 48.6107 43.3693 48.4297 43.0919C49.2487 42.4977 51.2986 41.7166 51.2986 41.7166Z" fill="#263238"/>
<path d="M52.0194 40.1196C52.0194 40.1196 52.0027 41.4019 51.7313 41.6621C49.694 43.616 47.703 43.7704 47.3742 43.255C45.1628 39.7869 45.6853 38.8723 45.4599 38.2819C45.0615 37.2388 44.5725 35.537 44.7881 34.5058C45.2697 32.2026 49.6095 30.4232 51.8902 32.7326C52.985 33.8413 53.3312 36.2462 53.0999 38.2492" fill="white"/>
<path d="M52.0194 40.1196C52.0194 40.1196 52.0027 41.4019 51.7313 41.6621C49.694 43.616 47.703 43.7704 47.3742 43.255C45.1628 39.7869 45.6853 38.8723 45.4599 38.2819C45.0615 37.2388 44.5725 35.537 44.7881 34.5058C45.2697 32.2026 49.6095 30.4232 51.8902 32.7326C52.985 33.8413 53.3312 36.2462 53.0999 38.2492" stroke="#263238" stroke-miterlimit="10" stroke-linecap="round" stroke-linejoin="round"/>
<path d="M45.7358 37.2091C45.7358 37.2091 45.1278 36.9361 44.996 37.2619" stroke="#263238" stroke-miterlimit="10" stroke-linecap="round" stroke-linejoin="round"/>
<path d="M47.2123 37.2233C47.2123 37.2233 48.4782 36.6933 49.0472 37.3363" stroke="#263238" stroke-miterlimit="10" stroke-linecap="round" stroke-linejoin="round"/>
<path d="M48.6126 38.1274C48.6333 38.3174 48.5405 38.4834 48.4053 38.4981C48.2701 38.5129 48.1436 38.3708 48.1229 38.1809C48.1022 37.9909 48.1949 37.8249 48.3301 37.8102C48.4654 37.7953 48.5917 37.9374 48.6126 38.1274Z" fill="#263238"/>
<path d="M46.1337 38.1848C46.1544 38.3748 46.0617 38.5408 45.9265 38.5555C45.7913 38.5703 45.6649 38.4282 45.6441 38.2381C45.6234 38.0482 45.7161 37.8822 45.8513 37.8674C45.9865 37.8528 46.1129 37.9949 46.1337 38.1848Z" fill="#263238"/>
<path d="M46.1971 37.6861C46.3739 37.9708 46.2771 38.4565 46.0443 39.123C45.8116 39.7895 46.0166 40.0317 46.9123 40.0989" fill="white"/>
<path d="M46.1971 37.6861C46.3739 37.9708 46.2771 38.4565 46.0443 39.123C45.8116 39.7895 46.0166 40.0317 46.9123 40.0989" stroke="#263238" stroke-miterlimit="10" stroke-linecap="round" stroke-linejoin="round"/>
<path d="M46.9125 41.2537C46.9125 41.2537 48.0835 41.1469 48.6156 40.8537" stroke="#263238" stroke-miterlimit="10" stroke-linecap="round" stroke-linejoin="round"/>
<path d="M54.3098 34.6341C54.3095 33.7664 53.4543 31.9868 51.9522 31.7871C51.0905 30.8845 49.8599 30.5528 48.3678 30.8958C44.9203 31.6883 43.8708 35.0921 43.7191 35.6564C43.7045 35.7088 43.6982 35.7379 43.6982 35.7379L44.6211 35.5035L44.2231 36.2798L44.707 36.5991L44.5961 36.7219L45.1563 37.2618L44.9811 36.2756C45.0893 35.6377 45.8217 34.7481 45.8217 34.7481C45.3948 35.2605 45.3409 35.944 45.3409 35.944C45.6303 35.1857 47.385 34.4894 47.385 34.4894C46.8167 34.9502 46.514 35.8532 46.514 35.8532C47.0551 35.1875 48.3209 34.7562 49.1306 34.5272C49.4042 35.1866 49.8375 35.8741 50.4567 36.2551C51.04 36.614 51.0196 37.3547 51.0196 37.3547C52.0335 38.0178 52.3309 39.16 52.3309 39.16L53.0374 40.1265C53.0374 40.1265 54.311 38.5565 54.3098 34.6341Z" fill="#263238"/>
<path d="M51.3383 37.5979C51.1019 37.0907 51.9604 35.719 52.5683 35.889C52.9101 35.9845 53.3567 36.6079 53.4436 37.2629C53.5304 37.9178 53.0676 39.155 52.5741 39.4304C52.261 39.6051 52.0028 39.1289 52.0028 39.1289" fill="white"/>
<path d="M51.3383 37.5979C51.1019 37.0907 51.9604 35.719 52.5683 35.889C52.9101 35.9845 53.3567 36.6079 53.4436 37.2629C53.5304 37.9178 53.0676 39.155 52.5741 39.4304C52.261 39.6051 52.0028 39.1289 52.0028 39.1289" stroke="#263238" stroke-miterlimit="10" stroke-linecap="round" stroke-linejoin="round"/>
<path d="M14.0906 62.3782L30.5864 58.5219L64.9957 62.495L56.1377 68.5542L14.0906 62.3782Z" fill="white"/>
<path d="M14.0906 62.3782L30.5864 58.5219L64.9957 62.495" fill="white"/>
<path d="M14.0906 62.3782L30.5864 58.5219L64.9957 62.495" stroke="#263238" stroke-miterlimit="10" stroke-linecap="round" stroke-linejoin="round"/>
<path d="M28.3665 63.1521L35.0445 60.2009L43.4871 60.6367L39.7328 63.847L28.3665 63.1521Z" fill="white" stroke="#263238" stroke-miterlimit="10" stroke-linecap="round" stroke-linejoin="round"/>
<path d="M45.6225 43.948C43.4805 44.824 43.0186 46.793 39.3797 54.5758C39.3797 54.5758 37.7624 54.9078 36.8961 56.8717C36.0297 58.8355 37.4736 60.3863 39.1487 60.3329C39.1487 60.3329 39.8183 60.9148 41.1873 60.857C42.5563 60.7992 48.6389 51.5057 48.6389 51.5057L45.6225 43.948Z" fill="#263238"/>
<path d="M40.0168 55.0313C40.9752 55.885 41.525 57.1358 41.233 58.522" stroke="white" stroke-miterlimit="10" stroke-linecap="round" stroke-linejoin="round"/>
<path d="M40.941 55.4414C40.941 55.4414 42.1187 55.6983 42.3 57.2063" stroke="white" stroke-miterlimit="10" stroke-linecap="round" stroke-linejoin="round"/>
<path d="M44.3864 51.0327C44.3864 51.0327 43.4871 49.0477 43.8288 46.7009" stroke="white" stroke-miterlimit="10" stroke-linecap="round" stroke-linejoin="round"/>
<path d="M44.2181 49.0475C44.1286 49.6607 44.7624 52.9247 44.7582 56.3582" stroke="white" stroke-miterlimit="10" stroke-linecap="round" stroke-linejoin="round"/>
<path d="M60.2278 44.5907C62.9073 45.9373 63.2259 50.0796 60.6975 55.0313C58.9123 58.5272 56.4474 63.6881 54.888 64.0347C53.3286 64.3813 51.8084 63.4097 51.8084 63.4097C51.8084 63.4097 50.4935 63.3481 50.0973 62.4143C49.0111 59.8543 51.7722 56.6337 52.8584 57.4053C52.8584 57.4053 56.3271 49.8616 56.9593 49.3865" fill="#263238"/>
<path d="M49.8487 60.861C49.4891 59.0995 52.2615 57.0202 52.8583 57.4053C52.8583 57.4053 54.9184 57.5208 55.2265 58.9455" stroke="white" stroke-miterlimit="10" stroke-linecap="round" stroke-linejoin="round"/>
<path d="M57.3954 61.2375C58.6015 59.1099 60.6973 55.0313 60.6973 55.0313" stroke="white" stroke-miterlimit="10" stroke-linecap="round" stroke-linejoin="round"/>
<path d="M52.8584 57.4053C52.8584 57.4053 54.3023 56.5422 55.3805 57.3587" stroke="white" stroke-miterlimit="10" stroke-linecap="round" stroke-linejoin="round"/>
<path d="M53.3451 56.3582C53.3451 56.3582 54.1427 54.6094 54.9547 52.9957C55.7668 51.3819 57.6137 49.011 58.3838 48.8955" stroke="white" stroke-miterlimit="10" stroke-linecap="round" stroke-linejoin="round"/>
<path d="M38.1294 59.5052C37.9615 59.4964 37.7936 59.4541 37.633 59.3694C35.1466 58.0744 33.2209 55.934 32.0587 54.3981C31.2514 53.3308 30.8134 52.5541 30.8134 52.5541L31.409 50.002C31.409 50.002 31.9697 51.4562 34.2225 52.8972C36.4738 54.3382 39.1514 54.8054 40.0172 56.2494C40.7837 57.5283 39.4332 59.5709 38.1294 59.5052Z" fill="white"/>
<mask id="mask1_607_675" style="mask-type:luminance" maskUnits="userSpaceOnUse" x="30" y="50" width="11" height="10">
<path d="M38.1294 59.5052C37.9615 59.4964 37.7936 59.4541 37.633 59.3694C35.1466 58.0744 33.2209 55.934 32.0587 54.3981C31.2514 53.3308 30.8134 52.5541 30.8134 52.5541L31.409 50.002C31.409 50.002 31.9697 51.4562 34.2225 52.8972C36.4738 54.3382 39.1514 54.8054 40.0172 56.2494C40.7837 57.5283 39.4332 59.5709 38.1294 59.5052Z" fill="white"/>
</mask>
<g mask="url(#mask1_607_675)">
<path opacity="0.4" d="M38.1294 59.5052C38.1031 59.3344 38.0564 59.1548 37.9805 58.9664C37.4593 57.6612 34.3057 55.0668 34.3057 55.0668C33.5552 55.0434 32.7303 54.731 32.0587 54.3981C31.2514 53.3308 30.8134 52.5541 30.8134 52.5541L31.409 50.002C31.409 50.002 31.9697 51.4562 34.2225 52.8972C36.4738 54.3382 39.1514 54.8054 40.0172 56.2494C40.7837 57.5283 39.4332 59.5709 38.1294 59.5052Z" fill="#EAA633"/>
</g>
<path d="M38.1294 59.5052C37.9615 59.4964 37.7936 59.4541 37.633 59.3694C35.1466 58.0744 33.2209 55.934 32.0587 54.3981C31.2514 53.3308 30.8134 52.5541 30.8134 52.5541L31.409 50.002C31.409 50.002 31.9697 51.4562 34.2225 52.8972C36.4738 54.3382 39.1514 54.8054 40.0172 56.2494C40.7837 57.5283 39.4332 59.5709 38.1294 59.5052Z" stroke="#263238" stroke-miterlimit="10" stroke-linecap="round" stroke-linejoin="round"/>
<path d="M32.5082 52.4045C32.5082 52.4045 32.2001 53.7664 31.3884 53.4611C30.9483 53.2957 30.1062 51.9871 29.9468 51.3279L32.5082 52.4045Z" fill="white" stroke="#263238" stroke-miterlimit="10" stroke-linecap="round" stroke-linejoin="round"/>
<path d="M28.9302 44.0269L29.5929 43.6841C29.5929 43.6841 31.4663 43.7007 32.6285 44.6452C33.6841 45.5032 34.2187 46.8483 34.2187 46.8483C34.2187 46.8483 38.3208 44.5836 42.5086 45.8831L44.218 55.4043L36.3645 55.9225L31.463 51.2616L28.9302 44.0269Z" fill="white" stroke="#263238" stroke-miterlimit="10" stroke-linecap="round" stroke-linejoin="round"/>
<path d="M44.7578 55.7851C44.7578 55.7851 43.8365 55.7574 42.6043 55.7982C40.7413 55.8566 38.1673 56.0669 36.9906 56.7516L36.9351 56.7326L35.8576 56.3574C35.8576 56.3574 35.8503 56.3472 35.8357 56.3253C35.6371 56.0304 34.0355 53.7338 31.7506 52.798L28.5153 43.7576C28.5153 43.7576 31.8747 43.908 33.7085 46.9375L34.6297 47.2704C34.6297 47.2704 40.112 45.6469 43.181 46.2309L44.7578 55.7851Z" fill="#EAA633"/>
<mask id="mask2_607_675" style="mask-type:luminance" maskUnits="userSpaceOnUse" x="28" y="43" width="17" height="14">
<path d="M44.7578 55.7851C44.7578 55.7851 43.8365 55.7574 42.6043 55.7982C40.7413 55.8566 38.1673 56.0669 36.9906 56.7516L36.9351 56.7326L35.8576 56.3574C35.8576 56.3574 35.8503 56.3472 35.8357 56.3253C35.6371 56.0304 34.0355 53.7338 31.7506 52.798L28.5153 43.7576C28.5153 43.7576 31.8747 43.908 33.7085 46.9375L34.6297 47.2704C34.6297 47.2704 40.112 45.6469 43.181 46.2309L44.7578 55.7851Z" fill="white"/>
</mask>
<g mask="url(#mask2_607_675)">
<path opacity="0.3" d="M35.8357 56.3253C35.6371 56.0304 34.0355 53.7338 31.7506 52.798L28.5153 43.7576C28.5153 43.7576 31.8747 43.908 33.7085 46.9375L35.8357 56.3253Z" fill="black" fill-opacity="0.7"/>
</g>
<mask id="mask3_607_675" style="mask-type:luminance" maskUnits="userSpaceOnUse" x="28" y="43" width="17" height="14">
<path d="M44.7578 55.7851C44.7578 55.7851 43.8365 55.7574 42.6043 55.7982C40.7413 55.8566 38.1673 56.0669 36.9906 56.7516L36.9351 56.7326L35.8576 56.3574C35.8576 56.3574 35.8503 56.3472 35.8357 56.3253C35.6371 56.0304 34.0355 53.7338 31.7506 52.798L28.5153 43.7576C28.5153 43.7576 31.8747 43.908 33.7085 46.9375L34.6297 47.2704C34.6297 47.2704 40.112 45.6469 43.181 46.2309L44.7578 55.7851Z" fill="white"/>
</mask>
<g mask="url(#mask3_607_675)">
<path opacity="0.3" d="M42.6043 55.7982C40.7413 55.8566 38.1674 56.0669 36.9906 56.7516L36.9351 56.7326L34.7831 47.5989C34.7831 47.5989 36.5435 47.2034 37.0855 47.4032C37.0855 47.4032 40.6641 50.0448 42.6043 55.7982Z" fill="black" fill-opacity="0.7"/>
</g>
<path d="M44.7578 55.7851C44.7578 55.7851 43.8365 55.7574 42.6043 55.7982C40.7413 55.8566 38.1673 56.0669 36.9906 56.7516L36.9351 56.7326L35.8576 56.3574C35.8576 56.3574 35.8503 56.3472 35.8357 56.3253C35.6371 56.0304 34.0355 53.7338 31.7506 52.798L28.5153 43.7576C28.5153 43.7576 31.8747 43.908 33.7085 46.9375L34.6297 47.2704C34.6297 47.2704 40.112 45.6469 43.181 46.2309L44.7578 55.7851Z" stroke="#263238" stroke-miterlimit="10" stroke-linecap="round" stroke-linejoin="round"/>
<path d="M34.6293 47.2707L36.7423 56.0351" stroke="#263238" stroke-miterlimit="10" stroke-linecap="round" stroke-linejoin="round"/>
<path d="M35.8579 56.3582L33.8053 47.5992" stroke="#263238" stroke-miterlimit="10" stroke-linecap="round" stroke-linejoin="round"/>
<path d="M30.6427 52.5677C30.1734 52.4372 29.2291 49.6204 29.662 48.4083C29.662 48.4083 30.1759 47.5161 30.385 47.4551C30.7127 47.3595 32.0324 47.3874 31.9686 47.6094C31.821 48.1229 30.8085 48.1143 30.8085 48.1143L30.4799 48.7155L30.494 49.0475C30.494 49.0475 30.9706 48.7 31.1465 48.7094C31.236 48.7142 31.7039 48.9434 32.0746 49.1398C32.3919 49.3078 32.5856 49.3985 32.5147 49.5514C32.2799 50.0564 31.2783 49.702 31.2783 49.702L30.9025 50.2688C30.9025 50.2688 31.2659 50.3317 31.4255 50.3501C31.6 50.3703 32.9058 51.247 32.8658 51.3571C32.71 51.7863 31.4568 51.3221 31.4568 51.3221L31.2347 51.5067C31.2347 51.5067 32.1584 51.7456 32.2522 51.7801C32.3992 51.8342 32.9614 52.2673 32.9527 52.3165C32.8851 52.6958 32.1095 52.4168 32.1095 52.4168L31.4312 52.3892C31.4312 52.3892 31.2943 52.5216 31.0682 52.5765" fill="white"/>
<path d="M30.6427 52.5677C30.1734 52.4372 29.2291 49.6204 29.662 48.4083C29.662 48.4083 30.1759 47.5161 30.385 47.4551C30.7127 47.3595 32.0324 47.3874 31.9686 47.6094C31.821 48.1229 30.8085 48.1143 30.8085 48.1143L30.4799 48.7155L30.494 49.0475C30.494 49.0475 30.9706 48.7 31.1465 48.7094C31.236 48.7142 31.7039 48.9434 32.0746 49.1398C32.3919 49.3078 32.5856 49.3985 32.5147 49.5514C32.2799 50.0564 31.2783 49.702 31.2783 49.702L30.9025 50.2688C30.9025 50.2688 31.2659 50.3317 31.4255 50.3501C31.6 50.3703 32.9058 51.247 32.8658 51.3571C32.71 51.7863 31.4568 51.3221 31.4568 51.3221L31.2347 51.5067C31.2347 51.5067 32.1584 51.7456 32.2522 51.7801C32.3992 51.8342 32.9614 52.2673 32.9527 52.3165C32.8851 52.6958 32.1095 52.4168 32.1095 52.4168L31.4312 52.3892C31.4312 52.3892 31.2943 52.5216 31.0682 52.5765" stroke="#263238" stroke-miterlimit="10" stroke-linecap="round" stroke-linejoin="round"/>
<path d="M30.494 49.0475C30.494 49.0475 30.0608 49.4157 29.9426 49.5217C29.8243 49.6277 29.8578 49.9672 29.8578 49.9672" stroke="#263238" stroke-miterlimit="10" stroke-linecap="round" stroke-linejoin="round"/>
<path d="M30.1767 50.714C30.1739 51.0858 30.4252 51.3101 30.5395 51.4298C30.6538 51.5495 30.3565 51.8755 30.6844 52.1093" stroke="#263238" stroke-miterlimit="10" stroke-linecap="round" stroke-linejoin="round"/>
<path d="M51.8022 62.469C50.8751 62.7216 49.8678 61.0922 48.6384 59.3139V59.3125C47.8267 58.1386 46.9185 56.8991 45.8746 56.0961C45.7914 56.0333 45.7068 55.972 45.6221 55.9136L46.2323 52.852C47.4996 53.5163 48.2851 54.5806 49.6006 55.6741C51.7176 57.4364 53.5937 58.5182 54.1134 59.2979C54.6332 60.0775 53.3907 62.0354 51.8022 62.469Z" fill="white"/>
<mask id="mask4_607_675" style="mask-type:luminance" maskUnits="userSpaceOnUse" x="45" y="52" width="10" height="11">
<path d="M51.8022 62.469C50.8751 62.7216 49.8678 61.0922 48.6384 59.3139V59.3125C47.8267 58.1386 46.9185 56.8991 45.8746 56.0961C45.7914 56.0333 45.7068 55.972 45.6221 55.9136L46.2323 52.852C47.4996 53.5163 48.2851 54.5806 49.6006 55.6741C51.7176 57.4364 53.5937 58.5182 54.1134 59.2979C54.6332 60.0775 53.3907 62.0354 51.8022 62.469Z" fill="white"/>
</mask>
<g mask="url(#mask4_607_675)">
<path opacity="0.4" d="M48.6384 59.3125C47.8267 58.1386 46.9185 56.8991 45.8746 56.0961C46.0615 56.0932 46.2046 56.0742 46.2791 56.0348C46.2791 56.0348 47.9289 57.378 48.6384 59.3125Z" fill="#EAA633"/>
</g>
<path d="M51.8022 62.469C50.8751 62.7216 49.8678 61.0922 48.6384 59.3139V59.3125C47.8267 58.1386 46.9185 56.8991 45.8746 56.0961C45.7914 56.0333 45.7068 55.972 45.6221 55.9136L46.2323 52.852C47.4996 53.5163 48.2851 54.5806 49.6006 55.6741C51.7176 57.4364 53.5937 58.5182 54.1134 59.2979C54.6332 60.0775 53.3907 62.0354 51.8022 62.469Z" stroke="#263238" stroke-miterlimit="10" stroke-linecap="round" stroke-linejoin="round"/>
<path d="M46.5755 55.7982C46.5244 55.9048 46.4207 55.9807 46.2791 56.0348C46.247 56.0479 46.2134 56.0581 46.1783 56.0683C46.171 56.0698 46.1608 56.0713 46.1506 56.0742C45.1709 56.3297 42.9663 55.7982 42.9663 55.7982C42.9663 55.7982 41.5224 55.112 41.4348 54.95C41.3808 54.8463 41.3151 54.6711 41.2727 54.5558C41.2494 54.4872 41.2333 54.4404 41.2333 54.4404C41.2333 54.4404 40.7136 54.1514 40.6552 53.9207C40.5982 53.69 40.4814 53.6316 40.7997 53.5878C41.118 53.5455 42.8495 53.5878 42.8495 53.5878L40.9734 52.8228C40.9734 52.8228 39.731 52.1964 39.6156 51.976C39.5003 51.754 39.3558 51.6095 39.9909 51.6971C40.626 51.7832 42.013 52.1877 42.013 52.1877L43.0992 52.4183L42.013 51.9555C42.013 51.9555 39.8755 51.6971 40.2799 51.0328C40.2799 51.0328 41.0888 51.0328 41.4932 51.0328C41.8976 51.0328 43.1912 51.1846 43.543 51.2927C43.8964 51.4007 46.2324 52.852 46.2324 52.852" fill="white"/>
<mask id="mask5_607_675" style="mask-type:luminance" maskUnits="userSpaceOnUse" x="39" y="51" width="8" height="6">
<path d="M46.5755 55.7982C46.5244 55.9048 46.4207 55.9807 46.2791 56.0348C46.247 56.0479 46.2134 56.0581 46.1783 56.0683C46.171 56.0698 46.1608 56.0713 46.1506 56.0742C45.1709 56.3297 42.9663 55.7982 42.9663 55.7982C42.9663 55.7982 41.5224 55.112 41.4348 54.95C41.3808 54.8463 41.3151 54.6711 41.2727 54.5558C41.2494 54.4872 41.2333 54.4404 41.2333 54.4404C41.2333 54.4404 40.7136 54.1514 40.6552 53.9207C40.5982 53.69 40.4814 53.6316 40.7997 53.5878C41.118 53.5455 42.8495 53.5878 42.8495 53.5878L40.9734 52.8228C40.9734 52.8228 39.731 52.1964 39.6156 51.976C39.5003 51.754 39.3558 51.6095 39.9909 51.6971C40.626 51.7832 42.013 52.1877 42.013 52.1877L43.0992 52.4183L42.013 51.9555C42.013 51.9555 39.8755 51.6971 40.2799 51.0328C40.2799 51.0328 41.0888 51.0328 41.4932 51.0328C41.8976 51.0328 43.1912 51.1846 43.543 51.2927C43.8964 51.4007 46.2324 52.852 46.2324 52.852" fill="white"/>
</mask>
<g mask="url(#mask5_607_675)">
<path opacity="0.4" d="M46.1506 56.0742C45.1709 56.3297 42.9663 55.7982 42.9663 55.7982C42.9663 55.7982 41.5224 55.112 41.4348 54.95C41.3807 54.8463 41.315 54.6711 41.2727 54.5558L43.0451 54.7543C43.0451 54.7543 42.832 55.1004 43.0451 55.4814C43.2422 55.8347 45.4877 56.1939 46.1506 56.0742Z" fill="#EAA633"/>
</g>
<path d="M46.5755 55.7982C46.5244 55.9048 46.4207 55.9807 46.2791 56.0348C46.247 56.0479 46.2134 56.0581 46.1783 56.0683C46.171 56.0698 46.1608 56.0713 46.1506 56.0742C45.1709 56.3297 42.9663 55.7982 42.9663 55.7982C42.9663 55.7982 41.5224 55.112 41.4348 54.95C41.3808 54.8463 41.3151 54.6711 41.2727 54.5558C41.2494 54.4872 41.2333 54.4404 41.2333 54.4404C41.2333 54.4404 40.7136 54.1514 40.6552 53.9207C40.5982 53.69 40.4814 53.6316 40.7997 53.5878C41.118 53.5455 42.8495 53.5878 42.8495 53.5878L40.9734 52.8228C40.9734 52.8228 39.731 52.1964 39.6156 51.976C39.5003 51.754 39.3558 51.6095 39.9909 51.6971C40.626 51.7832 42.013 52.1877 42.013 52.1877L43.0992 52.4183L42.013 51.9555C42.013 51.9555 39.8755 51.6971 40.2799 51.0328C40.2799 51.0328 41.0888 51.0328 41.4932 51.0328C41.8976 51.0328 43.1912 51.1846 43.543 51.2927C43.8964 51.4007 46.2324 52.852 46.2324 52.852" stroke="#263238" stroke-miterlimit="10" stroke-linecap="round" stroke-linejoin="round"/>
<path d="M41.233 54.4403L43.3668 54.7539" stroke="#263238" stroke-miterlimit="10" stroke-linecap="round" stroke-linejoin="round"/>
<path d="M19.9706 60.9721L25.3164 62.5832L35.1001 60.351C35.1001 60.351 29.1243 58.6501 29.0683 58.691C29.0121 58.7319 19.9706 60.9721 19.9706 60.9721Z" fill="#EAA633"/>
<mask id="mask6_607_675" style="mask-type:luminance" maskUnits="userSpaceOnUse" x="19" y="58" width="17" height="5">
<path d="M19.9706 60.9721L25.3164 62.5832L35.1001 60.351C35.1001 60.351 29.1243 58.6501 29.0683 58.691C29.0121 58.7319 19.9706 60.9721 19.9706 60.9721Z" fill="white"/>
</mask>
<g mask="url(#mask6_607_675)">
<path opacity="0.3" d="M19.9706 60.9721L25.3164 62.5832L35.1001 60.351C35.1001 60.351 29.1243 58.6501 29.0683 58.691C29.0121 58.7319 19.9706 60.9721 19.9706 60.9721Z" fill="black" fill-opacity="0.7"/>
</g>
<path d="M19.9706 60.9721L25.3164 62.5832L35.1001 60.351C35.1001 60.351 29.1243 58.6501 29.0683 58.691C29.0121 58.7319 19.9706 60.9721 19.9706 60.9721Z" stroke="#263238" stroke-miterlimit="10" stroke-linecap="round" stroke-linejoin="round"/>
<path d="M20.0473 59.0893C19.6727 59.1153 19.5785 60.468 19.9705 60.9722L28.6066 59.1802L29.2995 57.5415L20.0473 59.0893Z" fill="#EAA633"/>
<mask id="mask7_607_675" style="mask-type:luminance" maskUnits="userSpaceOnUse" x="19" y="57" width="11" height="4">
<path d="M20.0473 59.0893C19.6727 59.1153 19.5785 60.468 19.9705 60.9722L28.6066 59.1802L29.2995 57.5415L20.0473 59.0893Z" fill="white"/>
</mask>
<g mask="url(#mask7_607_675)">
<path opacity="0.3" d="M20.0473 59.0893C19.6727 59.1153 19.5785 60.468 19.9705 60.9722L28.6066 59.1802L29.2995 57.5415L20.0473 59.0893Z" fill="black" fill-opacity="0.7"/>
</g>
<path d="M20.0473 59.0893C19.6727 59.1153 19.5785 60.468 19.9705 60.9722L28.6066 59.1802L29.2995 57.5415L20.0473 59.0893Z" stroke="#263238" stroke-miterlimit="10" stroke-linecap="round" stroke-linejoin="round"/>
<path d="M34.6796 59.0697C34.6796 59.0697 34.551 59.7816 34.6343 60.2187L25.306 62.3304L20.3888 60.8852C20.3888 60.8852 19.8775 59.981 20.323 59.2811L29.3081 57.7561L34.6796 59.0697Z" fill="white" stroke="#263238" stroke-miterlimit="10" stroke-linecap="round" stroke-linejoin="round"/>
<path d="M20.0474 59.0892L29.2994 57.5414L35.0445 58.997L25.3815 60.9227L20.0474 59.0892Z" fill="#EAA633" stroke="#263238" stroke-miterlimit="10" stroke-linecap="round" stroke-linejoin="round"/>
<path d="M20.3754 59.9536L25.2681 61.4098L33.2756 59.7984" stroke="#263238" stroke-miterlimit="10" stroke-linecap="round" stroke-linejoin="round"/>
<path d="M34.6075 59.9471L25.9966 61.7846" stroke="#263238" stroke-miterlimit="10" stroke-linecap="round" stroke-linejoin="round"/>
<path d="M20.4917 60.5268C20.565 60.5342 24.1795 61.6472 24.1795 61.6472" stroke="#263238" stroke-miterlimit="10" stroke-linecap="round" stroke-linejoin="round"/>
<path d="M33.9037 59.61L34.589 59.4989" stroke="#263238" stroke-miterlimit="10" stroke-linecap="round" stroke-linejoin="round"/>
<path d="M25.1083 61.9173L24.7461 61.8358" stroke="#263238" stroke-miterlimit="10" stroke-linecap="round" stroke-linejoin="round"/>
<path d="M20.3229 59.2812C20.3229 59.2812 20.9856 59.9819 20.3888 60.8854C20.3888 60.8854 19.8365 60.1491 20.3229 59.2812Z" fill="#263238"/>
<mask id="mask8_607_675" style="mask-type:luminance" maskUnits="userSpaceOnUse" x="20" y="59" width="1" height="2">
<path d="M20.3229 59.2812C20.3229 59.2812 20.9856 59.9819 20.3888 60.8854C20.3888 60.8854 19.8365 60.1491 20.3229 59.2812Z" fill="white"/>
</mask>
<g mask="url(#mask8_607_675)">
<path opacity="0.3" d="M20.3229 59.2812C20.3229 59.2812 20.9856 59.9819 20.3888 60.8854C20.3888 60.8854 19.8365 60.1491 20.3229 59.2812Z" fill="white" fill-opacity="0.7"/>
</g>
<path d="M20.3229 59.2812C20.3229 59.2812 20.9856 59.9819 20.3888 60.8854C20.3888 60.8854 19.8365 60.1491 20.3229 59.2812Z" stroke="#263238" stroke-miterlimit="10" stroke-linecap="round" stroke-linejoin="round"/>
<path d="M40.3063 61.4098L49.6432 61.7932L48.7326 65.0069L37.2479 64.5689L40.3063 61.4098Z" fill="white"/>
<mask id="mask9_607_675" style="mask-type:luminance" maskUnits="userSpaceOnUse" x="37" y="61" width="13" height="5">
<path d="M40.3063 61.4098L49.6432 61.7932L48.7326 65.0069L37.2479 64.5689L40.3063 61.4098Z" fill="white"/>
</mask>
<g mask="url(#mask9_607_675)">
<path opacity="0.4" d="M40.3063 61.4098L49.6432 61.7932L48.7326 65.0069L37.2479 64.5689L40.3063 61.4098Z" fill="#EAA633"/>
</g>
<path d="M40.3063 61.4098L49.6432 61.7932L48.7326 65.0069L37.2479 64.5689L40.3063 61.4098Z" stroke="#263238" stroke-miterlimit="10" stroke-linecap="round" stroke-linejoin="round"/>
</svg>
