<svg width="73" height="73" viewBox="0 0 73 73" fill="none" xmlns="http://www.w3.org/2000/svg">
<path opacity="0.7" d="M9.9179 24.3946C9.9179 24.3946 5.84786 34.9048 11.5673 45.492C17.2867 56.0793 29.0696 61.6691 38.4997 66.45C47.9299 71.2309 57.7222 68.9027 62.3757 61.0717C67.0292 53.2407 60.6463 47.6502 60.6387 36.4826C60.6313 25.3151 62.31 22.3583 56.2641 12.9235C50.2183 3.48852 35.3775 1.40043 24.1587 8.39807C12.9401 15.3957 9.9179 24.3946 9.9179 24.3946Z" fill="white"/>
<path d="M9.29836 20.3175C13.1988 12.749 20.4345 7.02333 29.4548 6.21697C35.5937 5.6683 41.8994 7.47228 46.7894 11.2318C49.2511 13.1244 51.4389 15.5458 52.891 18.3045C54.5589 21.4731 55.0443 25.1257 56.7602 28.2787C58.8938 32.1994 62.8998 33.8161 65.59 37.204C67.8054 39.9941 68.5656 43.7324 68.3113 47.2859C67.847 53.7728 64.0465 59.9317 58.4567 63.256C53.7311 66.0662 48.0344 66.8417 42.5423 66.5865C34.0751 66.193 25.6447 63.4012 18.9757 58.1695C12.3067 52.9377 7.51249 45.2045 6.3772 36.8047C5.60559 31.0958 6.7273 25.3063 9.29836 20.3175Z" fill="#09244B"/>
<path opacity="0.7" d="M9.29836 20.3175C13.1988 12.749 20.4345 7.02333 29.4548 6.21697C35.5937 5.6683 41.8994 7.47228 46.7894 11.2318C49.2511 13.1244 51.4389 15.5458 52.891 18.3045C54.5589 21.4731 55.0443 25.1257 56.7602 28.2787C58.8938 32.1994 62.8998 33.8161 65.59 37.204C67.8054 39.9941 68.5656 43.7324 68.3113 47.2859C67.847 53.7728 64.0465 59.9317 58.4567 63.256C53.7311 66.0662 48.0344 66.8417 42.5423 66.5865C34.0751 66.193 25.6447 63.4012 18.9757 58.1695C12.3067 52.9377 7.51249 45.2045 6.3772 36.8047C5.60559 31.0958 6.7273 25.3063 9.29836 20.3175Z" fill="white"/>
<path d="M6.72656 23.0845C6.89884 23.7667 6.81402 22.5109 7.15171 20.9743C7.48941 19.4377 8.06772 20.061 8.06772 20.061" stroke="#263238" stroke-miterlimit="10" stroke-linecap="round" stroke-linejoin="round"/>
<path d="M6.62061 21.5148L7.67925 21.0806" stroke="#263238" stroke-miterlimit="10" stroke-linecap="round" stroke-linejoin="round"/>
<path d="M8.5549 20.5603C8.5549 20.5603 7.92199 21.8689 8.8761 22.4252" stroke="#263238" stroke-miterlimit="10" stroke-linecap="round" stroke-linejoin="round"/>
<path d="M9.45239 20.1922C9.45239 20.1922 10.497 20.7726 9.84265 22.0288" stroke="#263238" stroke-miterlimit="10" stroke-linecap="round" stroke-linejoin="round"/>
<path d="M8.73657 21.0035L9.48497 21.55" stroke="#263238" stroke-miterlimit="10" stroke-linecap="round" stroke-linejoin="round"/>
<path d="M9.3234 20.7629L8.73779 21.6951" stroke="#263238" stroke-miterlimit="10" stroke-linecap="round" stroke-linejoin="round"/>
<path d="M12.6869 34.744C12.8293 33.8759 12.2411 33.0568 11.3731 32.9144C10.505 32.772 9.68592 33.3602 9.5435 34.2282C9.40109 35.0963 9.98931 35.9154 10.8573 36.0578C11.7254 36.2002 12.5445 35.612 12.6869 34.744Z" stroke="#263238" stroke-miterlimit="10" stroke-linecap="round" stroke-linejoin="round"/>
<path d="M14.3096 36.5436C13.5168 37.113 12.4126 36.9318 11.8432 36.1391C11.2738 35.3463 11.455 34.2421 12.2478 33.6727C13.0406 33.1033 14.1448 33.2845 14.7142 34.0772C15.2836 34.87 15.1024 35.9742 14.3096 36.5436Z" stroke="#263238" stroke-miterlimit="10" stroke-linecap="round" stroke-linejoin="round"/>
<path d="M12.5668 33.8295L11.8325 34.0916" stroke="#263238" stroke-miterlimit="10" stroke-linecap="round" stroke-linejoin="round"/>
<path d="M12.6686 34.1321L11.6145 34.5133" stroke="#263238" stroke-miterlimit="10" stroke-linecap="round" stroke-linejoin="round"/>
<path d="M12.7079 34.4966L11.5312 34.949" stroke="#263238" stroke-miterlimit="10" stroke-linecap="round" stroke-linejoin="round"/>
<path d="M12.6243 34.9947L11.5518 35.4848" stroke="#263238" stroke-miterlimit="10" stroke-linecap="round" stroke-linejoin="round"/>
<path d="M12.4354 35.378L11.6194 35.7164" stroke="#263238" stroke-miterlimit="10" stroke-linecap="round" stroke-linejoin="round"/>
<path d="M11.8848 32.06C11.8387 31.9216 11.3224 31.8235 11.2972 32.2055C11.2721 32.5878 11.8421 32.2702 12.0019 32.0667C12.0019 32.0667 11.7088 32.4605 11.8332 32.5381" stroke="#263238" stroke-miterlimit="10" stroke-linecap="round" stroke-linejoin="round"/>
<path d="M14.7437 32.5362L14.2852 33.4893C14.2852 33.4893 14.5145 33.0128 14.7598 33.0564C15.062 33.1102 14.8613 33.6045 14.4958 33.4226" stroke="#263238" stroke-miterlimit="10" stroke-linecap="round" stroke-linejoin="round"/>
<path d="M64.6355 48.102L65.3557 48.7835" stroke="#263238" stroke-miterlimit="10" stroke-linecap="round" stroke-linejoin="round"/>
<path d="M65.3558 47.9241L64.7527 48.825" stroke="#263238" stroke-miterlimit="10" stroke-linecap="round" stroke-linejoin="round"/>
<path d="M66.0642 48.1826L66.7847 47.9149" stroke="#263238" stroke-miterlimit="10" stroke-linecap="round" stroke-linejoin="round"/>
<path d="M67.1301 47.1637L67.5683 47.5515" stroke="#263238" stroke-miterlimit="10" stroke-linecap="round" stroke-linejoin="round"/>
<path d="M67.9039 46.6975L67.3491 48.6018" stroke="#263238" stroke-miterlimit="10" stroke-linecap="round" stroke-linejoin="round"/>
<path d="M34.3049 37.4082L36.2422 36.0754L38.808 36.2553L38.9683 39.5073L37.0851 40.8538L34.7612 40.6845L34.3049 37.4082Z" stroke="#263238" stroke-miterlimit="10" stroke-linecap="round" stroke-linejoin="round"/>
<path d="M34.7612 40.6845L36.6367 39.334L38.9684 39.5073" stroke="#263238" stroke-miterlimit="10" stroke-linecap="round" stroke-linejoin="round"/>
<path d="M36.6367 39.334L36.2422 36.0754" stroke="#263238" stroke-miterlimit="10" stroke-linecap="round" stroke-linejoin="round"/>
<path d="M34.3049 37.4082L36.865 37.7048L38.808 36.2553" stroke="#263238" stroke-miterlimit="10" stroke-linecap="round" stroke-linejoin="round"/>
<path d="M36.865 37.7048L37.085 40.8538" stroke="#263238" stroke-miterlimit="10" stroke-linecap="round" stroke-linejoin="round"/>
<path d="M56.9181 26.4802L56.0598 29.1476L58.7313 28.7871L56.9181 26.4802Z" stroke="#263238" stroke-miterlimit="10" stroke-linecap="round" stroke-linejoin="round"/>
<path d="M56.9182 26.4802L57.3956 28.9518" stroke="#263238" stroke-miterlimit="10" stroke-linecap="round" stroke-linejoin="round"/>
<path d="M57.3191 28.5557L57.6315 28.5061L57.7044 28.9257" stroke="#263238" stroke-miterlimit="10" stroke-linecap="round" stroke-linejoin="round"/>
<path d="M23.2708 50.8893L24.6058 51.545" stroke="#263238" stroke-miterlimit="10" stroke-linecap="round" stroke-linejoin="round"/>
<path d="M24.1747 50.389L23.7927 51.7833" stroke="#263238" stroke-miterlimit="10" stroke-linecap="round" stroke-linejoin="round"/>
<path d="M24.3601 49.7092C24.3601 49.7092 24.5483 49.5394 24.6817 49.7504C24.8152 49.9612 24.553 50.4017 24.553 50.4017L25.0884 50.198" stroke="#263238" stroke-miterlimit="10" stroke-linecap="round" stroke-linejoin="round"/>
<path d="M33.7481 4.96866C35.0223 5.68464 33.5623 7.43664 33.5623 8.45864C33.5623 9.48064 35.0223 9.33464 35.7523 9.62664C36.0443 9.62664 36.6283 9.62664 36.6125 10.3692" stroke="#263238" stroke-miterlimit="10" stroke-linecap="round" stroke-linejoin="round"/>
<path d="M32.3276 5.89401C32.5491 7.10216 33.9357 6.67351 34.7838 6.94945C36.2415 7.42365 35.4333 8.93081 34.9974 9.84127C34.7368 10.3857 34.4772 11.1465 34.9431 11.6629" stroke="#263238" stroke-miterlimit="10" stroke-linecap="round" stroke-linejoin="round"/>
<path d="M32.5142 6.36252L34.0339 5.09991" stroke="#263238" stroke-miterlimit="10" stroke-linecap="round" stroke-linejoin="round"/>
<path d="M33.1104 6.73933L34.2548 5.79004" stroke="#263238" stroke-miterlimit="10" stroke-linecap="round" stroke-linejoin="round"/>
<path d="M33.7827 7.69959L34.7495 6.94009" stroke="#263238" stroke-miterlimit="10" stroke-linecap="round" stroke-linejoin="round"/>
<path d="M33.5833 8.83633L35.4726 7.47751" stroke="#263238" stroke-miterlimit="10" stroke-linecap="round" stroke-linejoin="round"/>
<path d="M34.3069 9.36617L35.6237 8.39935" stroke="#263238" stroke-miterlimit="10" stroke-linecap="round" stroke-linejoin="round"/>
<path d="M34.8672 11.4202L36.5132 10.0801" stroke="#263238" stroke-miterlimit="10" stroke-linecap="round" stroke-linejoin="round"/>
<path d="M34.908 10.3658L35.9819 9.61118" stroke="#263238" stroke-miterlimit="10" stroke-linecap="round" stroke-linejoin="round"/>
<path d="M13.4227 51.6192C14.9907 50.9921 15.7535 49.2127 15.1265 47.6446C14.4994 46.0766 12.72 45.3138 11.1519 45.9408C9.58389 46.5678 8.82107 48.3473 9.44811 49.9154C10.0752 51.4834 11.8546 52.2462 13.4227 51.6192Z" stroke="#263238" stroke-miterlimit="10" stroke-linecap="round" stroke-linejoin="round"/>
<path d="M13.0584 45.8203C14.1241 44.5697 15.0303 43.8609 15.3798 44.0912C15.9105 44.4411 14.957 46.8236 13.2501 49.4127C11.5433 52.0018 9.72935 53.817 9.19878 53.4672C8.84926 53.2368 9.14359 52.1245 9.87316 50.652" stroke="#263238" stroke-miterlimit="10" stroke-linecap="round" stroke-linejoin="round"/>
<path d="M9.29662 49.406C7.81122 48.9785 6.86207 48.4794 6.92106 48.0804C7.01406 47.4516 9.57636 47.3098 12.644 47.7636C15.7117 48.2174 18.1232 49.095 18.0301 49.7238C17.9657 50.1587 16.7203 50.3606 14.9436 50.2936" stroke="#263238" stroke-miterlimit="10" stroke-linecap="round" stroke-linejoin="round"/>
<path d="M9.68655 47.1917C8.56556 45.1684 8.00492 43.5897 8.38525 43.3434C8.88428 43.0203 10.8141 45.1138 12.6959 48.0197C14.5777 50.9254 15.6985 53.5429 15.1995 53.8661C14.8695 54.0798 13.9134 53.2363 12.7593 51.7996" stroke="#263238" stroke-miterlimit="10" stroke-linecap="round" stroke-linejoin="round"/>
<path d="M15.81 45.4149C15.6571 45.6467 15.3454 45.7107 15.1135 45.558C14.8817 45.4051 14.8177 45.0934 14.9705 44.8616C15.1233 44.6297 15.435 44.5658 15.6669 44.7185C15.8987 44.8713 15.9628 45.183 15.81 45.4149Z" fill="#263238"/>
<path d="M14.1468 53.1073C13.994 53.3392 13.6823 53.4031 13.4504 53.2504C13.2186 53.0976 13.1546 52.7858 13.3075 52.554C13.4603 52.3221 13.7721 52.2582 14.0039 52.4109C14.2356 52.5638 14.2997 52.8756 14.1468 53.1073Z" fill="#263238"/>
<path d="M11.4643 47.8908C11.3114 48.1226 10.9997 48.1866 10.7678 48.0339C10.536 47.881 10.472 47.5693 10.6248 47.3374C10.7776 47.1056 11.0893 47.0416 11.3212 47.1945C11.553 47.3472 11.6171 47.6589 11.4643 47.8908Z" fill="#263238"/>
<path d="M43.4835 26.0356H45.2037L46.0638 24.5458L45.2037 23.056H43.4835L42.6233 24.5458L43.4835 26.0356Z" stroke="#263238" stroke-miterlimit="10" stroke-linecap="round" stroke-linejoin="round"/>
<path d="M43.2337 29.3037L42.3735 27.8139H40.6533" stroke="#263238" stroke-miterlimit="10" stroke-linecap="round" stroke-linejoin="round"/>
<path d="M40.8843 24.5458H42.6046L43.4647 23.056L42.6046 21.5663H40.8843L40.0242 23.056L40.8843 24.5458Z" stroke="#263238" stroke-miterlimit="10" stroke-linecap="round" stroke-linejoin="round"/>
<path d="M43.4835 23.056H45.2037L46.0638 21.5662L45.2037 20.0764H43.4835L42.6233 21.5662L43.4835 23.056Z" stroke="#263238" stroke-miterlimit="10" stroke-linecap="round" stroke-linejoin="round"/>
<path d="M43.4646 23.287C43.5922 23.287 43.6956 23.1836 43.6956 23.056C43.6956 22.9285 43.5922 22.825 43.4646 22.825C43.3371 22.825 43.2336 22.9285 43.2336 23.056C43.2336 23.1836 43.3371 23.287 43.4646 23.287Z" fill="#263238"/>
<path d="M39.8726 20.16C40.0001 20.16 40.1035 20.0566 40.1035 19.929C40.1035 19.8014 40.0001 19.698 39.8726 19.698C39.745 19.698 39.6416 19.8014 39.6416 19.929C39.6416 20.0566 39.745 20.16 39.8726 20.16Z" fill="#263238"/>
<path d="M43.0024 29.3037C43.0024 29.1761 43.1058 29.0727 43.2334 29.0727C43.361 29.0727 43.4644 29.1761 43.4644 29.3037C43.4644 29.4313 43.361 29.5346 43.2334 29.5346C43.106 29.5346 43.0024 29.4313 43.0024 29.3037Z" fill="#263238"/>
<path d="M40.6533 28.0449C40.7809 28.0449 40.8843 27.9415 40.8843 27.8139C40.8843 27.6863 40.7809 27.5829 40.6533 27.5829C40.5258 27.5829 40.4224 27.6863 40.4224 27.8139C40.4224 27.9415 40.5258 28.0449 40.6533 28.0449Z" fill="#263238"/>
<path d="M47.7273 21.6055C47.7273 21.4779 47.8307 21.3745 47.9583 21.3745C48.0859 21.3745 48.1894 21.4779 48.1894 21.6055C48.1894 21.7331 48.086 21.8365 47.9583 21.8365C47.8308 21.8365 47.7273 21.7331 47.7273 21.6055Z" fill="#263238"/>
<path d="M42.356 28.0449C42.4835 28.0449 42.5869 27.9415 42.5869 27.8139C42.5869 27.6863 42.4835 27.5829 42.356 27.5829C42.2284 27.5829 42.125 27.6863 42.125 27.8139C42.125 27.9415 42.2284 28.0449 42.356 28.0449Z" fill="#263238"/>
<path d="M45.8328 21.6055C45.8328 21.4779 45.9361 21.3745 46.0637 21.3745C46.1913 21.3745 46.2947 21.4779 46.2947 21.6055C46.2947 21.7331 46.1913 21.8365 46.0637 21.8365C45.9361 21.8365 45.8328 21.7331 45.8328 21.6055Z" fill="#263238"/>
<path d="M43.2336 26.0356C43.2336 25.908 43.337 25.8046 43.4646 25.8046C43.5922 25.8046 43.6956 25.908 43.6956 26.0356C43.6956 26.1632 43.5922 26.2667 43.4646 26.2667C43.337 26.2667 43.2336 26.1631 43.2336 26.0356Z" fill="#263238"/>
<path d="M46.0637 21.6055H47.9584" stroke="#263238" stroke-miterlimit="10" stroke-linecap="round" stroke-linejoin="round"/>
<path d="M43.4647 26.0356L42.356 27.8139" stroke="#263238" stroke-miterlimit="10" stroke-linecap="round" stroke-linejoin="round"/>
<path d="M40.8842 21.5662L39.8726 19.929" stroke="#263238" stroke-miterlimit="10" stroke-linecap="round" stroke-linejoin="round"/>
<path d="M53.083 15.6953C53.4715 14.3754 54.6921 13.412 56.1376 13.412C57.6322 13.412 58.8864 14.4419 59.2289 15.8306" stroke="#263238" stroke-miterlimit="10" stroke-linecap="round" stroke-linejoin="round"/>
<path d="M55.7768 19.7595C54.1883 19.5802 52.9539 18.2323 52.9539 16.5959" stroke="#263238" stroke-miterlimit="10" stroke-linecap="round" stroke-linejoin="round"/>
<path d="M59.3215 16.5959C59.3215 18.3542 57.8961 19.7798 56.1377 19.7798" stroke="#263238" stroke-miterlimit="10" stroke-linecap="round" stroke-linejoin="round"/>
<path d="M59.5019 14.5773C60.4978 14.4496 61.1653 14.5189 61.2682 14.8156C61.4741 15.409 59.3439 16.687 56.5105 17.6702C53.6769 18.6535 51.213 18.9696 51.0072 18.3763C50.8971 18.0592 51.4545 17.5463 52.4301 16.9874" stroke="#263238" stroke-miterlimit="10" stroke-linecap="round" stroke-linejoin="round"/>
<path d="M42.3558 12.3951L42.6609 13.0132L43.3432 13.1124L42.8494 13.5936L42.9659 14.2731L42.3558 13.9523L41.7455 14.2731L41.8622 13.5936L41.3684 13.1124L42.0507 13.0132L42.3558 12.3951Z" stroke="#263238" stroke-miterlimit="10" stroke-linecap="round" stroke-linejoin="round"/>
<path d="M20.8012 10.7495C20.8012 11.3452 20.5501 11.8825 20.1486 12.2577C19.7777 12.6081 19.2784 12.8213 18.7309 12.8213C18.6638 12.8213 18.5981 12.8184 18.5338 12.8125C18.1031 12.7716 17.7118 12.5994 17.3994 12.3366C17.1322 12.1132 16.922 11.8226 16.7964 11.4912C16.7074 11.2605 16.6592 11.0109 16.6592 10.7495C16.6592 9.60636 17.5863 8.67926 18.7309 8.67926C19.0521 8.67926 19.3573 8.75226 19.6303 8.88512C19.9427 9.0355 20.2114 9.2618 20.4114 9.54066C20.6567 9.88084 20.8012 10.2984 20.8012 10.7495Z" stroke="#263238" stroke-miterlimit="10" stroke-linecap="round" stroke-linejoin="round"/>
<path d="M20.4688 11.1242C20.4688 11.3011 20.3254 11.4445 20.1484 11.4445C19.9715 11.4445 19.8281 11.3011 19.8281 11.1242C19.8281 10.9472 19.9715 10.8039 20.1484 10.8039C20.3254 10.8039 20.4688 10.9472 20.4688 11.1242Z" stroke="#263238" stroke-miterlimit="10" stroke-linecap="round" stroke-linejoin="round"/>
<path d="M17.5862 11.938C17.5862 12.0986 17.5132 12.2416 17.3994 12.3365C17.1322 12.1132 16.9219 11.8226 16.7964 11.4912C16.8738 11.443 16.9657 11.4167 17.0636 11.4167C17.3526 11.4167 17.5862 11.6503 17.5862 11.938Z" stroke="#263238" stroke-miterlimit="10" stroke-linecap="round" stroke-linejoin="round"/>
<path d="M20.1486 12.2577C19.7778 12.6081 19.2785 12.8213 18.731 12.8213C18.6638 12.8213 18.5981 12.8184 18.5339 12.8125C18.5222 12.757 18.5164 12.7001 18.5164 12.6417C18.5164 12.1657 18.9018 11.7788 19.3778 11.7788C19.7165 11.7788 20.0085 11.9745 20.1486 12.2577Z" stroke="#263238" stroke-miterlimit="10" stroke-linecap="round" stroke-linejoin="round"/>
<path d="M18.2288 9.9286C18.4919 9.9286 18.7052 9.7153 18.7052 9.4522C18.7052 9.18909 18.4919 8.9758 18.2288 8.9758C17.9657 8.9758 17.7524 9.18909 17.7524 9.4522C17.7524 9.7153 17.9657 9.9286 18.2288 9.9286Z" stroke="#263238" stroke-miterlimit="10" stroke-linecap="round" stroke-linejoin="round"/>
<path d="M18.6697 10.8039C18.6697 10.9256 18.571 11.0242 18.4492 11.0242C18.3275 11.0242 18.2288 10.9255 18.2288 10.8039C18.2288 10.6821 18.3275 10.5834 18.4492 10.5834C18.571 10.5834 18.6697 10.6822 18.6697 10.8039Z" stroke="#263238" stroke-miterlimit="10" stroke-linecap="round" stroke-linejoin="round"/>
<path d="M20.4115 9.54067C20.356 9.55965 20.2947 9.56841 20.2319 9.56841C19.8961 9.56841 19.626 9.29685 19.626 8.96105C19.626 8.93477 19.6274 8.90995 19.6304 8.88513C19.9428 9.03551 20.2114 9.26181 20.4115 9.54067Z" stroke="#263238" stroke-miterlimit="10" stroke-linecap="round" stroke-linejoin="round"/>
<path d="M68.0137 34.7906L68.2371 34.2885L67.8753 34.0888C67.8881 33.9995 67.8908 33.9101 67.8826 33.8221L68.2537 33.6415L68.0566 33.1284L67.6599 33.2429C67.6071 33.1721 67.5453 33.1074 67.476 33.0496L67.6109 32.659L67.1088 32.4357L66.9091 32.7974C66.8197 32.7846 66.7304 32.782 66.6423 32.7901L66.4617 32.419L65.9487 32.6161L66.0631 33.0128C65.9923 33.0656 65.9276 33.1274 65.8698 33.1969L65.4793 33.062L65.2559 33.5641L65.6177 33.7638C65.6048 33.8532 65.6022 33.9425 65.6104 34.0306L65.2393 34.2112L65.4364 34.7242L65.8329 34.6097C65.8857 34.6805 65.9475 34.7452 66.017 34.803L65.8821 35.1936L66.3842 35.417L66.5839 35.0553C66.6733 35.0682 66.7626 35.0707 66.8507 35.0626L67.0313 35.4338L67.5443 35.2367L67.4298 34.84C67.5007 34.7871 67.5653 34.7254 67.6231 34.656L68.0137 34.7906ZM66.4868 34.5099C66.1646 34.3665 66.0195 33.9891 66.1629 33.6669C66.3062 33.3446 66.6836 33.1995 67.0059 33.3429C67.3281 33.4863 67.4732 33.8637 67.3298 34.1859C67.1866 34.5081 66.8092 34.6531 66.4868 34.5099Z" stroke="#263238" stroke-miterlimit="10" stroke-linecap="round" stroke-linejoin="round"/>
<path d="M65.3456 37.3677L65.6489 36.6857L65.1577 36.4144C65.1752 36.2931 65.1785 36.1716 65.1674 36.0521L65.6716 35.8068L65.4038 35.1101L64.8652 35.2656C64.7934 35.1693 64.7096 35.0814 64.6153 35.003L64.7985 34.4726L64.1165 34.1692L63.8453 34.6605C63.7239 34.643 63.6025 34.6396 63.4829 34.6507L63.2376 34.1466L62.5409 34.4144L62.6962 34.953C62.6 35.0248 62.5121 35.1086 62.4337 35.2029L61.9033 35.0197L61.5999 35.7017L62.0912 35.9729C62.0737 36.0942 62.0703 36.2157 62.0813 36.3353L61.5771 36.5806L61.8449 37.2773L62.3835 37.1219C62.4553 37.2182 62.5391 37.306 62.6335 37.3845L62.4502 37.9149L63.1322 38.2183L63.4035 37.727C63.5248 37.7445 63.6463 37.7478 63.7658 37.7369L64.0111 38.241L64.7078 37.9733L64.5523 37.4347C64.6486 37.3628 64.7364 37.279 64.8148 37.1847L65.3456 37.3677ZM63.2721 36.9862C62.8344 36.7915 62.6374 36.2789 62.832 35.8412C63.0266 35.4035 63.5392 35.2066 63.977 35.4012C64.4147 35.5958 64.6116 36.1084 64.417 36.5461C64.2224 36.9838 63.7098 37.1809 63.2721 36.9862Z" stroke="#263238" stroke-miterlimit="10" stroke-linecap="round" stroke-linejoin="round"/>
<path d="M35.0792 30.8945C34.8764 31.2793 34.6499 31.6442 34.4027 31.9868C33.073 33.8365 31.1423 35.0727 29.0283 35.5682C27.9793 35.8139 26.8846 35.877 25.795 35.7417C24.7203 35.6091 23.6515 35.2821 22.6366 34.7471C22.4338 34.6403 22.2363 34.5261 22.0452 34.4065C21.8546 34.2884 21.6701 34.1636 21.4923 34.0333C21.2756 33.8764 21.0687 33.7107 20.8699 33.5366C20.8688 33.5362 20.8684 33.5346 20.8674 33.5342C20.8551 33.5239 20.843 33.5137 20.8318 33.5016C20.8293 33.4991 20.8274 33.4979 20.8274 33.4979C19.6601 32.4675 18.797 31.1749 18.28 29.7579C18.068 29.1769 17.9132 28.5735 17.8224 27.9583C17.5406 26.0854 17.8335 24.1078 18.784 22.3047C20.1905 19.6364 22.7213 17.9444 25.4855 17.5036C27.3838 17.2 29.3948 17.4866 31.2264 18.4522C32.9566 19.3643 34.277 20.7508 35.1113 22.3679C36.4476 24.9511 36.5392 28.1249 35.0792 30.8945Z" fill="#09244B"/>
<mask id="mask0_607_975" style="mask-type:luminance" maskUnits="userSpaceOnUse" x="17" y="17" width="20" height="19">
<path d="M35.0792 30.8945C34.8764 31.2793 34.6499 31.6442 34.4027 31.9868C33.073 33.8365 31.1423 35.0727 29.0283 35.5682C27.9793 35.8139 26.8846 35.877 25.795 35.7417C24.7203 35.6091 23.6515 35.2821 22.6366 34.7471C22.4338 34.6403 22.2363 34.5261 22.0452 34.4065C21.8546 34.2884 21.6701 34.1636 21.4923 34.0333C21.2756 33.8764 21.0687 33.7107 20.8699 33.5366C20.8688 33.5362 20.8684 33.5346 20.8674 33.5342C20.8551 33.5239 20.843 33.5137 20.8318 33.5016C20.8293 33.4991 20.8274 33.4979 20.8274 33.4979C19.6601 32.4675 18.797 31.1749 18.28 29.7579C18.068 29.1769 17.9132 28.5735 17.8224 27.9583C17.5406 26.0854 17.8335 24.1078 18.784 22.3047C20.1905 19.6364 22.7213 17.9444 25.4855 17.5036C27.3838 17.2 29.3948 17.4866 31.2264 18.4522C32.9566 19.3643 34.277 20.7508 35.1113 22.3679C36.4476 24.9511 36.5392 28.1249 35.0792 30.8945Z" fill="white"/>
</mask>
<g mask="url(#mask0_607_975)">
<g opacity="0.6">
<path d="M35.0793 30.8951C34.8764 31.279 34.6501 31.644 34.4034 31.9871L34.2252 31.847L33.9186 31.6849L33.596 31.5156L33.65 31.1257C33.65 31.1257 33.65 31.1257 33.6325 30.7739C33.6135 30.422 33.8675 30.7096 34.0778 30.6031C34.2851 30.4936 34.4501 30.1709 34.4501 30.1709C34.4501 30.1709 34.599 29.7022 34.5479 29.5139C34.4968 29.3256 34.2705 28.8803 34.2705 28.8803L33.7478 29.6059L33.3171 29.5723L32.8879 29.3475L32.8339 28.7708L32.6207 28.6598L32.5316 28.3284L31.3797 28.0057C31.3797 28.0057 31.3797 28.0057 31.2483 27.775C31.1169 27.5444 30.5869 27.4261 30.5869 27.4261L30.7169 27.1253C30.7169 27.1253 30.7169 27.1253 30.9213 26.7895C31.1271 26.4537 31.3403 27.0115 31.3403 27.0115L31.5841 27.1385L32.0367 26.7589C32.0367 26.7589 32.0367 26.7589 32.1564 26.2143L32.8937 26.2566C32.8937 26.2566 32.8412 25.9895 33.0864 25.8916C33.3317 25.7953 33.2237 25.2624 33.1302 25.0653C33.0339 24.8696 32.6981 25.0273 32.6981 25.0273C32.6981 25.0273 32.3229 24.4565 32.2718 24.2287C32.2207 24.0024 32.9872 24.0769 33.3157 23.8535C33.6427 23.6316 33.5317 23.1687 33.3711 23.1585C33.212 23.1468 33.685 22.1219 34.5975 22.4037C34.8516 22.4825 35.0122 22.4548 35.1115 22.3672C36.4474 24.9514 36.5393 28.1254 35.0793 30.8951Z" fill="white"/>
<path d="M28.6947 26.9458C28.3823 27.3385 28.3823 27.3385 28.3823 27.3385C28.3823 27.3385 28.2494 27.0217 28.0596 27.194C27.8698 27.3662 27.7734 27.4538 27.7734 27.4538L27.5617 28.0466L27.1821 28.2919L26.95 28.1707L26.731 28.0539L26.493 27.9283L26.2653 28.3605L26.0798 28.7109C26.22 28.9839 26.4142 29.1854 26.4142 29.1854L26.8171 29.8964L27.2975 30.149C27.5924 30.1548 27.9063 30.222 27.9063 30.222L28.2436 30.3987L28.1238 31.1301C28.1238 31.1301 27.8698 31.5433 27.7004 31.4294C27.5296 31.317 27.5296 31.317 27.5296 31.317L27.2522 32.2777L27.2405 32.8062C27.2405 32.8062 27.0756 32.8748 26.9091 32.9303C26.7412 32.9858 26.8478 32.9566 26.4989 33.0646C26.1499 33.1727 26.1777 33.1683 25.8944 33.2486C25.6112 33.3289 25.2009 33.5727 25.2009 33.5727L25.2257 34.0808L24.5585 34.1786L24.1848 33.98L24.2767 33.6588L24.3205 33.1566L24.2694 32.7814L24.1088 32.45L24.5585 32.0426L24.4592 31.7871L24.2037 31.279L23.6635 31.571L23.3861 31.72L22.7583 31.4382L22.6897 31.0571L22.4766 30.3695L22.2809 29.9431L21.9334 29.473L21.8458 29.0686L22.0415 28.6978L22.1451 28.5021L21.8254 28.0714L21.7378 27.7648L21.1991 27.2757C21.1991 27.2757 21.3553 27.2655 21.3202 27.048C21.2852 26.8304 21.6283 26.464 21.6283 26.464C21.8225 26.5662 22.405 26.972 22.405 26.972L22.9146 27.0421C22.9204 27.0421 23.0168 27.0392 23.116 26.8494C23.2182 26.6552 23.5219 26.3632 23.5219 26.3632C23.5219 26.3632 23.2869 25.5471 23.4548 25.4376C23.6212 25.3252 23.7935 24.7937 23.7935 24.7937L23.9278 24.5382C23.9278 24.5382 23.611 24.3995 23.5511 24.2316C23.4913 24.0623 22.7102 24.2871 22.7102 24.2871L22.1714 24.6609L21.7597 24.9879L21.5757 25.3368C21.5757 25.3368 21.2005 24.8857 21.1991 25.1383C21.1976 25.3909 21.0297 25.8989 21.0297 25.8989C21.0297 25.8989 21.1071 25.9398 21.0049 26.1355C20.9012 26.3296 20.7917 26.3209 20.561 26.3486C20.3304 26.3764 19.6909 26.2888 19.6909 26.2888C19.6909 26.2888 19.5449 26.829 19.6456 26.9224C19.7449 27.0129 19.7449 27.0129 19.7449 27.0129C19.7449 27.0129 19.5887 27.4057 19.4339 27.3239C19.2777 27.2407 19.0572 27.1253 19.0572 27.1253L18.5302 27.3385L17.952 27.9838L17.8221 27.9575C17.5403 26.0858 17.8338 24.1075 18.7842 22.3044C20.1902 19.637 22.7218 17.9449 25.4856 17.5039C25.5192 17.6529 25.5557 17.7872 25.5557 17.7872L25.4141 18.5084L25.2272 18.8647L25.0666 19.1698L24.8403 19.599L25.4039 20.1334L25.2798 20.7656L24.9659 20.9627L24.8753 21.4372L25.4141 22.4898L25.5659 22.903C25.5659 22.903 25.398 23.2768 25.436 23.5337C25.436 23.5337 25.5017 23.9279 25.7893 24.0842C26.0769 24.2389 26.4551 24.4243 26.4551 24.4243L26.4244 25.0113L26.2945 25.1631L26.5105 25.7924C27.169 26.0508 27.1062 26.2669 27.169 26.0508C27.2332 25.8362 27.2332 25.8362 27.2332 25.8362L27.6815 25.6741L28.2523 26.3559C28.2523 26.3559 28.429 26.3326 28.5881 26.534C28.7487 26.7355 29.0086 26.553 28.6947 26.9458Z" fill="white"/>
<path d="M20.9567 32.0309C20.9728 32.2382 20.71 32.4981 20.71 32.4981L20.9246 32.6105L20.9903 33.1887L20.8282 33.4982C19.6602 32.4675 18.7974 31.1754 18.2805 29.7577L18.3973 29.1387L18.9127 29.0657C18.9127 29.0657 19.3741 28.7591 19.5785 28.8408C19.7829 28.9255 19.9697 29.4204 19.9697 29.4204C19.9697 29.4204 20.1201 30.0979 20.0968 30.0847L20.0938 30.0833L20.0851 30.0891L20.0968 30.0847L20.307 30.1957L20.3669 30.4629L20.0734 31.0177L19.6033 31.0191C19.6033 31.0191 19.5098 30.9695 19.5011 31.2133C19.4923 31.4586 19.7449 31.6411 19.7449 31.6411L20.253 31.5112C20.3888 30.9856 20.3888 30.9856 20.3888 30.9856L20.8881 30.8877C20.8881 30.8877 20.8165 31.2104 20.9333 31.2717C21.0516 31.3345 21.0516 31.3345 21.0516 31.3345L21.1217 31.7199C21.1217 31.7199 20.9406 31.8236 20.9567 32.0309Z" fill="white"/>
<path d="M23.3715 32.8567C23.3264 32.7323 23.3074 32.6228 22.9963 32.459C22.6862 32.2956 22.7019 32.3542 22.5815 32.4894C22.4602 32.6241 22.3206 32.7002 22.1171 32.6546C21.9135 32.6089 22.0195 32.8396 22.0195 32.8396L22.0683 33.4628L21.4922 34.0332C21.67 34.1634 21.8546 34.2882 22.0451 34.4064L22.1682 34.0298L23.1261 34.3147C22.9228 34.2541 23.0427 33.9764 23.0427 33.9764L22.838 33.8685C22.838 33.8685 23.4172 32.9801 23.3715 32.8567Z" fill="white"/>
<path d="M29.4038 29.6155L29.0897 29.2987L28.7313 29.4123L28.5782 29.7028L28.4678 29.9123L28.616 30.1975L28.9103 30.5517L29.0778 30.234C29.0778 30.234 29.5406 30.237 29.7827 29.9667C30.0247 29.696 29.4038 29.6155 29.4038 29.6155Z" fill="white"/>
<path d="M28.4822 28.1862L29.0662 28.4941C29.0662 28.4941 29.0662 28.4941 29.0888 28.3567C29.1114 28.2193 29.2472 28.0562 29.2472 28.0562L28.7997 27.5838L28.4822 28.1862Z" fill="white"/>
<path d="M28.2829 34.9828L28.1145 34.7368L27.9196 34.634L27.3219 34.6346L26.982 35.2793C26.982 35.2793 26.657 35.2351 26.2288 35.198C25.8012 35.1599 25.9069 35.3364 25.9069 35.3364L25.7952 35.7415C26.8846 35.8769 27.9795 35.8138 29.0285 35.5681C28.8563 35.4459 28.6458 35.3324 28.6458 35.3324L28.2829 34.9828Z" fill="white"/>
</g>
</g>
<path d="M35.0792 30.8945C34.8764 31.2793 34.6499 31.6442 34.4027 31.9868C33.073 33.8365 31.1423 35.0727 29.0283 35.5682C27.9793 35.8139 26.8846 35.877 25.795 35.7417C24.7203 35.6091 23.6515 35.2821 22.6366 34.7471C22.4338 34.6403 22.2363 34.5261 22.0452 34.4065C21.8546 34.2884 21.6701 34.1636 21.4923 34.0333C21.2756 33.8764 21.0687 33.7107 20.8699 33.5366C20.8688 33.5362 20.8684 33.5346 20.8674 33.5342C20.8551 33.5239 20.843 33.5137 20.8318 33.5016C20.8293 33.4991 20.8274 33.4979 20.8274 33.4979C19.6601 32.4675 18.797 31.1749 18.28 29.7579C18.068 29.1769 17.9132 28.5735 17.8224 27.9583C17.5406 26.0854 17.8335 24.1078 18.784 22.3047C20.1905 19.6364 22.7213 17.9444 25.4855 17.5036C27.3838 17.2 29.3948 17.4866 31.2264 18.4522C32.9566 19.3643 34.277 20.7508 35.1113 22.3679C36.4476 24.9511 36.5392 28.1249 35.0792 30.8945Z" stroke="#263238" stroke-miterlimit="10" stroke-linecap="round" stroke-linejoin="round"/>
<path d="M29.0282 35.5682C27.9792 35.8139 26.8845 35.877 25.7949 35.7417L25.9066 35.3365C25.9066 35.3365 25.8009 35.16 26.2285 35.1981C26.6568 35.2352 26.9818 35.2794 26.9818 35.2794L27.3216 34.6348L27.9194 34.6342L28.1143 34.737L28.2826 34.983L28.6454 35.3327C28.6454 35.3327 28.8561 35.446 29.0282 35.5682Z" stroke="#263238" stroke-miterlimit="10" stroke-linecap="round" stroke-linejoin="round"/>
<path d="M35.1115 22.3678C35.0125 22.4552 34.8522 22.4827 34.5982 22.404C33.6855 22.1216 33.2116 23.1471 33.3716 23.1585C33.5322 23.1689 33.6432 23.6313 33.3158 23.8536C32.9871 24.0766 32.2211 24.0023 32.2715 24.2288C32.3229 24.4559 32.6974 25.0269 32.6974 25.0269C32.6974 25.0269 33.0332 24.8694 33.1296 25.066C33.2243 25.2631 33.3323 25.7954 33.0865 25.8922C32.8415 25.9895 32.8941 26.2574 32.8941 26.2574L32.1559 26.2142C32.0372 26.759 32.0372 26.759 32.0372 26.759L31.5841 27.1389L31.3411 27.0107C31.3411 27.0107 31.1276 26.4542 30.9217 26.7897C30.7175 27.1248 30.7175 27.1248 30.7175 27.1248L30.5867 27.4255C30.5867 27.4255 31.1167 27.5439 31.2491 27.7748C31.3805 28.005 31.3805 28.005 31.3805 28.005L32.5317 28.3288L32.6216 28.6592L32.8342 28.7713L32.8881 29.3469L33.3177 29.5722L33.7476 29.6063L34.2713 28.88C34.2713 28.88 34.4976 29.3263 34.5482 29.514C34.5999 29.7022 34.451 30.1709 34.451 30.1709C34.451 30.1709 34.2857 30.4939 34.0774 30.6028C33.8686 30.7102 33.614 30.4226 33.6322 30.7743C33.6496 31.1256 33.6496 31.1256 33.6496 31.1256L33.5965 31.5151L33.9193 31.6854L34.2254 31.8467L34.4031 31.9869" stroke="#263238" stroke-miterlimit="10" stroke-linecap="round" stroke-linejoin="round"/>
<path d="M17.8225 27.9581L17.9514 27.9832L18.5306 27.3378L19.0568 27.1246C19.0568 27.1246 19.2783 27.2414 19.4338 27.3233C19.5893 27.4052 19.7455 27.0135 19.7455 27.0135C19.7455 27.0135 19.7455 27.0135 19.6455 26.9218C19.5444 26.8296 19.6915 26.2883 19.6915 26.2883C19.6915 26.2883 20.3301 26.3772 20.5612 26.3494C20.7923 26.3215 20.9019 26.3304 21.0047 26.1355C21.1075 25.9406 21.0297 25.8997 21.0297 25.8997C21.0297 25.8997 21.1983 25.3912 21.1993 25.1389C21.2002 24.8866 21.5753 25.337 21.5753 25.337L21.7595 24.9876L22.1721 24.6606L22.7097 24.2874C22.7097 24.2874 23.491 24.0629 23.5516 24.2318C23.6111 24.4003 23.9282 24.5385 23.9282 24.5385L23.7939 24.7934C23.7939 24.7934 23.6218 25.3253 23.4546 25.4372C23.287 25.5475 23.5224 26.3634 23.5224 26.3634C23.5224 26.3634 23.2184 26.656 23.1162 26.8498C23.0134 27.0448 22.915 27.0432 22.915 27.0432L22.4049 26.9729C22.4049 26.9729 21.8229 26.5668 21.628 26.464C21.628 26.464 21.2862 26.8309 21.3204 27.0477C21.355 27.2659 21.2001 27.276 21.2001 27.276L21.7385 27.7648L21.826 28.0713L22.1462 28.5017L22.0423 28.6985L21.8467 29.0695L21.9331 29.4735L22.2819 29.9429L22.4773 30.369L22.6904 31.0574L22.7589 31.4382L23.3864 31.72L23.6638 31.5706L24.2036 31.2791L24.4589 31.7871L24.5595 32.0426L24.1099 32.4495L24.2694 32.7814L24.3216 33.1573L24.2769 33.6596L24.1845 33.9806L24.5594 34.1783L25.2254 34.0817L25.2021 33.5726C25.2021 33.5726 25.6119 33.3295 25.8949 33.2486C26.1788 33.1681 26.1498 33.173 26.4994 33.0655C26.8487 32.9566 26.7411 32.9865 26.909 32.9305C27.0754 32.8748 27.2405 32.8072 27.2405 32.8072L27.2529 32.278L27.5295 31.3169C27.5295 31.3169 27.5295 31.3169 27.7003 31.4296C27.8705 31.5432 28.1243 31.1312 28.1243 31.1312L28.2436 30.3991L27.9069 30.2217C27.9069 30.2217 27.5933 30.1557 27.2982 30.1499L26.8168 29.8961L26.415 29.1863C26.415 29.1863 26.2207 28.9845 26.0803 28.7118L26.265 28.3614L26.4927 27.9292L26.7308 28.0548L26.9503 28.1706L27.1826 28.2931L27.5616 28.0465L27.7734 27.4539C27.7734 27.4539 27.8699 27.3664 28.0597 27.1947C28.2501 27.0221 28.3827 27.3385 28.3827 27.3385C28.3827 27.3385 28.3827 27.3385 28.6953 26.9461C29.0087 26.5542 28.7496 26.7357 28.5891 26.5342C28.4287 26.3327 28.2526 26.3568 28.2526 26.3568L27.6815 25.6747L27.2335 25.8373C27.2335 25.8373 27.2335 25.8373 27.1697 26.0515C27.1064 26.2672 27.1697 26.0515 26.5114 25.7925L26.2945 25.1637L26.4247 25.0121L26.4562 24.4251C26.4562 24.4251 26.0769 24.2402 25.7902 24.0853C25.5028 23.9288 25.4367 23.5343 25.4367 23.5343C25.3985 23.2777 25.5662 22.9045 25.5662 22.9045L25.4148 22.4901L24.8755 21.4373L24.9667 20.9636L25.2796 20.7662L25.4037 20.1347L24.8403 19.6001L25.0664 19.171L25.2273 18.8658L25.4151 18.5096L25.5555 17.7875C25.5555 17.7875 25.5201 17.6543 25.4859 17.5042" stroke="#263238" stroke-miterlimit="10" stroke-linecap="round" stroke-linejoin="round"/>
<path d="M20.8699 33.5365C20.8553 33.5188 20.8392 33.5064 20.8318 33.5013C20.8293 33.4988 20.8274 33.4977 20.8274 33.4977L20.9903 33.1886L20.9251 32.6109L20.7104 32.4977C20.7104 32.4977 20.9718 32.238 20.9563 32.0312C20.9404 31.8229 21.1209 31.7192 21.1209 31.7192L21.0509 31.334C21.0509 31.334 21.0509 31.334 20.9338 31.2722C20.8167 31.2104 20.8878 30.887 20.8878 30.887L20.3885 30.9849C20.3885 30.9849 20.3885 30.9849 20.2523 31.5105L19.7448 31.6404C19.7448 31.6404 19.4924 31.4583 19.5007 31.2137C19.5099 30.9695 19.6035 31.0187 19.6035 31.0187L20.0733 31.0174L20.3659 30.4623L20.3073 30.1963L20.0958 30.0848" stroke="#263238" stroke-miterlimit="10" stroke-linecap="round" stroke-linejoin="round"/>
<path d="M20.0942 30.0837L20.0962 30.0848C20.1199 30.0972 19.9696 29.4206 19.9696 29.4206C19.9696 29.4206 19.7832 28.9249 19.5785 28.8408C19.3743 28.7583 18.9127 29.066 18.9127 29.066L18.3975 29.139L18.2803 29.7576" stroke="#263238" stroke-miterlimit="10" stroke-linecap="round" stroke-linejoin="round"/>
<path d="M22.1684 34.0298L22.0453 34.4064C21.8548 34.2882 21.6703 34.1634 21.4924 34.0332L22.0685 33.4628L22.0198 32.8396C22.0198 32.8396 21.9138 32.6089 22.1173 32.6546C22.3208 32.7003 22.4604 32.6241 22.5817 32.4894C22.702 32.3542 22.6864 32.2955 22.9965 32.459C23.3075 32.623 23.3266 32.7323 23.3717 32.8567C23.4174 32.9801 22.8384 33.8685 22.8384 33.8685L23.0431 33.9764C23.0431 33.9764 22.9231 34.2541 23.1265 34.3147L22.1684 34.0298Z" stroke="#263238" stroke-miterlimit="10" stroke-linecap="round" stroke-linejoin="round"/>
<path d="M28.7315 29.4123L29.0899 29.2987L29.4039 29.6155C29.4039 29.6155 30.0249 29.6961 29.7828 29.9665C29.5407 30.2369 29.0779 30.2338 29.0779 30.2338L28.9104 30.5515L28.6161 30.1973L28.4678 29.9122L28.5783 29.7027L28.7315 29.4123Z" stroke="#263238" stroke-miterlimit="10" stroke-linecap="round" stroke-linejoin="round"/>
<path d="M29.2472 28.0564C29.2472 28.0564 29.1114 28.2195 29.0888 28.3568C29.0662 28.4942 29.0662 28.4942 29.0662 28.4942L28.4822 28.1863L28.7997 27.5839L29.2472 28.0564Z" stroke="#263238" stroke-miterlimit="10" stroke-linecap="round" stroke-linejoin="round"/>
<path d="M60.9302 62.495C60.1476 63.1462 54.1196 67.2835 45.517 66.6169C45.0541 62.7012 43.289 46.6134 45.2965 44.092C45.2965 44.092 50.1671 41.7691 54.6536 42.7444C59.1402 43.7197 60.8864 44.6541 61.2061 45.4629C61.4485 46.0747 61.1024 57.4653 60.9302 62.495Z" fill="#263238"/>
<path d="M54.5046 44.4628C51.9204 46.701 48.5916 46.228 48.6646 44.5095C48.6763 44.2409 48.9639 43.908 48.9639 43.908C48.9639 43.908 48.926 43.8511 48.8632 43.7533C48.7668 43.6073 48.6106 43.3693 48.4296 43.0919C48.1098 42.5969 47.7098 41.975 47.4309 41.5224C47.1973 41.1369 53.0213 37.5541 53.0213 39.6142C53.0213 42.5166 54.4462 43.0627 54.4462 43.0627C54.9791 43.2788 55.4784 43.6204 54.5046 44.4628Z" fill="white" stroke="#263238" stroke-miterlimit="10" stroke-linecap="round" stroke-linejoin="round"/>
<path d="M56.1378 48.8955C56.1378 48.8955 55.617 50.682 55.8646 51.1942" stroke="white" stroke-miterlimit="10" stroke-linecap="round" stroke-linejoin="round"/>
<path d="M55.5298 43.7061C55.5298 45.4307 50.386 47.1196 48.8787 45.3901" stroke="white" stroke-miterlimit="10" stroke-linecap="round" stroke-linejoin="round"/>
<path d="M51.2986 41.7166C51.2986 41.7166 50.9524 43.0154 49.3496 44.031C49.3496 44.031 49.2679 43.8529 49.0035 43.7577C48.9568 43.7409 48.9071 43.7562 48.8633 43.7533C48.7669 43.6073 48.6107 43.3693 48.4297 43.0919C49.2487 42.4977 51.2986 41.7166 51.2986 41.7166Z" fill="#263238"/>
<path d="M52.0194 40.1196C52.0194 40.1196 52.0027 41.4019 51.7313 41.6621C49.694 43.616 47.703 43.7704 47.3742 43.255C45.1628 39.7869 45.6853 38.8723 45.4599 38.2819C45.0615 37.2388 44.5725 35.537 44.7881 34.5058C45.2697 32.2026 49.6095 30.4232 51.8902 32.7326C52.985 33.8413 53.3312 36.2462 53.0999 38.2492" fill="white"/>
<path d="M52.0194 40.1196C52.0194 40.1196 52.0027 41.4019 51.7313 41.6621C49.694 43.616 47.703 43.7704 47.3742 43.255C45.1628 39.7869 45.6853 38.8723 45.4599 38.2819C45.0615 37.2388 44.5725 35.537 44.7881 34.5058C45.2697 32.2026 49.6095 30.4232 51.8902 32.7326C52.985 33.8413 53.3312 36.2462 53.0999 38.2492" stroke="#263238" stroke-miterlimit="10" stroke-linecap="round" stroke-linejoin="round"/>
<path d="M45.7359 37.2091C45.7359 37.2091 45.1279 36.9361 44.9961 37.2619" stroke="#263238" stroke-miterlimit="10" stroke-linecap="round" stroke-linejoin="round"/>
<path d="M47.2124 37.2233C47.2124 37.2233 48.4784 36.6933 49.0473 37.3363" stroke="#263238" stroke-miterlimit="10" stroke-linecap="round" stroke-linejoin="round"/>
<path d="M48.6127 38.1274C48.6334 38.3174 48.5406 38.4834 48.4054 38.4981C48.2702 38.5129 48.1437 38.3708 48.123 38.1809C48.1023 37.9909 48.195 37.8249 48.3302 37.8102C48.4655 37.7953 48.5918 37.9374 48.6127 38.1274Z" fill="#263238"/>
<path d="M46.1335 38.1848C46.1543 38.3748 46.0616 38.5408 45.9264 38.5555C45.7912 38.5703 45.6647 38.4282 45.644 38.2381C45.6233 38.0482 45.716 37.8822 45.8512 37.8674C45.9864 37.8528 46.1128 37.9949 46.1335 38.1848Z" fill="#263238"/>
<path d="M46.1971 37.6861C46.3739 37.9708 46.2771 38.4565 46.0443 39.123C45.8116 39.7895 46.0166 40.0317 46.9123 40.0989" fill="white"/>
<path d="M46.1971 37.6861C46.3739 37.9708 46.2771 38.4565 46.0443 39.123C45.8116 39.7895 46.0166 40.0317 46.9123 40.0989" stroke="#263238" stroke-miterlimit="10" stroke-linecap="round" stroke-linejoin="round"/>
<path d="M46.9124 41.2537C46.9124 41.2537 48.0834 41.1469 48.6154 40.8537" stroke="#263238" stroke-miterlimit="10" stroke-linecap="round" stroke-linejoin="round"/>
<path d="M54.3098 34.6341C54.3095 33.7664 53.4543 31.9868 51.9522 31.7871C51.0905 30.8845 49.8599 30.5528 48.3678 30.8958C44.9203 31.6883 43.8708 35.0921 43.7191 35.6564C43.7045 35.7088 43.6982 35.7379 43.6982 35.7379L44.6211 35.5035L44.2231 36.2798L44.707 36.5991L44.5961 36.7219L45.1563 37.2618L44.9811 36.2756C45.0893 35.6377 45.8217 34.7481 45.8217 34.7481C45.3948 35.2605 45.3409 35.944 45.3409 35.944C45.6303 35.1857 47.385 34.4894 47.385 34.4894C46.8167 34.9502 46.514 35.8532 46.514 35.8532C47.0551 35.1875 48.3209 34.7562 49.1306 34.5272C49.4042 35.1866 49.8375 35.8741 50.4567 36.2551C51.04 36.614 51.0196 37.3547 51.0196 37.3547C52.0335 38.0178 52.3309 39.16 52.3309 39.16L53.0374 40.1265C53.0374 40.1265 54.311 38.5565 54.3098 34.6341Z" fill="#263238"/>
<path d="M51.3383 37.5979C51.1019 37.0907 51.9604 35.719 52.5683 35.889C52.9101 35.9845 53.3567 36.6079 53.4436 37.2629C53.5304 37.9178 53.0676 39.155 52.5741 39.4304C52.261 39.6051 52.0028 39.1289 52.0028 39.1289" fill="white"/>
<path d="M51.3383 37.5979C51.1019 37.0907 51.9604 35.719 52.5683 35.889C52.9101 35.9845 53.3567 36.6079 53.4436 37.2629C53.5304 37.9178 53.0676 39.155 52.5741 39.4304C52.261 39.6051 52.0028 39.1289 52.0028 39.1289" stroke="#263238" stroke-miterlimit="10" stroke-linecap="round" stroke-linejoin="round"/>
<path d="M14.0906 62.3782L30.5864 58.5219L64.9957 62.495L56.1377 68.5542L14.0906 62.3782Z" fill="white"/>
<path d="M14.0906 62.3782L30.5864 58.5219L64.9957 62.495" fill="white"/>
<path d="M14.0906 62.3782L30.5864 58.5219L64.9957 62.495" stroke="#263238" stroke-miterlimit="10" stroke-linecap="round" stroke-linejoin="round"/>
<path d="M28.3665 63.1521L35.0445 60.2009L43.4871 60.6367L39.7328 63.847L28.3665 63.1521Z" fill="white" stroke="#263238" stroke-miterlimit="10" stroke-linecap="round" stroke-linejoin="round"/>
<path d="M45.6226 43.948C43.4806 44.824 43.0187 46.793 39.3798 54.5758C39.3798 54.5758 37.7626 54.9078 36.8962 56.8717C36.0298 58.8355 37.4738 60.3863 39.1488 60.3329C39.1488 60.3329 39.8184 60.9148 41.1874 60.857C42.5565 60.7992 48.639 51.5057 48.639 51.5057L45.6226 43.948Z" fill="#263238"/>
<path d="M40.0168 55.0313C40.9752 55.885 41.525 57.1358 41.233 58.522" stroke="white" stroke-miterlimit="10" stroke-linecap="round" stroke-linejoin="round"/>
<path d="M40.9412 55.4414C40.9412 55.4414 42.1188 55.6983 42.3001 57.2063" stroke="white" stroke-miterlimit="10" stroke-linecap="round" stroke-linejoin="round"/>
<path d="M44.3865 51.0327C44.3865 51.0327 43.4872 49.0477 43.829 46.7009" stroke="white" stroke-miterlimit="10" stroke-linecap="round" stroke-linejoin="round"/>
<path d="M44.2181 49.0475C44.1286 49.6607 44.7624 52.9247 44.7582 56.3582" stroke="white" stroke-miterlimit="10" stroke-linecap="round" stroke-linejoin="round"/>
<path d="M60.2279 44.5907C62.9075 45.9373 63.226 50.0796 60.6976 55.0313C58.9125 58.5272 56.4475 63.6881 54.8881 64.0347C53.3287 64.3813 51.8085 63.4097 51.8085 63.4097C51.8085 63.4097 50.4937 63.3481 50.0974 62.4143C49.0112 59.8543 51.7723 56.6337 52.8586 57.4053C52.8586 57.4053 56.3272 49.8616 56.9594 49.3865" fill="#263238"/>
<path d="M49.8487 60.861C49.4891 59.0995 52.2615 57.0202 52.8583 57.4053C52.8583 57.4053 54.9184 57.5208 55.2265 58.9455" stroke="white" stroke-miterlimit="10" stroke-linecap="round" stroke-linejoin="round"/>
<path d="M57.3955 61.2375C58.6016 59.1099 60.6974 55.0313 60.6974 55.0313" stroke="white" stroke-miterlimit="10" stroke-linecap="round" stroke-linejoin="round"/>
<path d="M52.8584 57.4053C52.8584 57.4053 54.3023 56.5422 55.3805 57.3587" stroke="white" stroke-miterlimit="10" stroke-linecap="round" stroke-linejoin="round"/>
<path d="M53.3452 56.3582C53.3452 56.3582 54.1428 54.6094 54.9549 52.9957C55.7669 51.3819 57.6138 49.011 58.384 48.8955" stroke="white" stroke-miterlimit="10" stroke-linecap="round" stroke-linejoin="round"/>
<path d="M38.1293 59.5052C37.9614 59.4964 37.7935 59.4541 37.6329 59.3694C35.1465 58.0744 33.2208 55.934 32.0586 54.3981C31.2512 53.3308 30.8132 52.5541 30.8132 52.5541L31.4089 50.002C31.4089 50.002 31.9696 51.4562 34.2223 52.8972C36.4737 54.3382 39.1513 54.8054 40.0171 56.2494C40.7836 57.5283 39.4331 59.5709 38.1293 59.5052Z" fill="white"/>
<mask id="mask1_607_975" style="mask-type:luminance" maskUnits="userSpaceOnUse" x="30" y="50" width="11" height="10">
<path d="M38.1293 59.5052C37.9614 59.4964 37.7935 59.4541 37.6329 59.3694C35.1465 58.0744 33.2208 55.934 32.0586 54.3981C31.2512 53.3308 30.8132 52.5541 30.8132 52.5541L31.4089 50.002C31.4089 50.002 31.9696 51.4562 34.2223 52.8972C36.4737 54.3382 39.1513 54.8054 40.0171 56.2494C40.7836 57.5283 39.4331 59.5709 38.1293 59.5052Z" fill="white"/>
</mask>
<g mask="url(#mask1_607_975)">
<path opacity="0.4" d="M38.1293 59.5052C38.103 59.3344 38.0563 59.1548 37.9804 58.9664C37.4592 57.6612 34.3056 55.0668 34.3056 55.0668C33.5551 55.0434 32.7302 54.731 32.0586 54.3981C31.2512 53.3308 30.8132 52.5541 30.8132 52.5541L31.4089 50.002C31.4089 50.002 31.9696 51.4562 34.2223 52.8972C36.4737 54.3382 39.1513 54.8054 40.0171 56.2494C40.7836 57.5283 39.4331 59.5709 38.1293 59.5052Z" fill="#09244B"/>
</g>
<path d="M38.1293 59.5052C37.9614 59.4964 37.7935 59.4541 37.6329 59.3694C35.1465 58.0744 33.2208 55.934 32.0586 54.3981C31.2512 53.3308 30.8132 52.5541 30.8132 52.5541L31.4089 50.002C31.4089 50.002 31.9696 51.4562 34.2223 52.8972C36.4737 54.3382 39.1513 54.8054 40.0171 56.2494C40.7836 57.5283 39.4331 59.5709 38.1293 59.5052Z" stroke="#263238" stroke-miterlimit="10" stroke-linecap="round" stroke-linejoin="round"/>
<path d="M32.5082 52.4045C32.5082 52.4045 32.2001 53.7664 31.3884 53.4611C30.9483 53.2957 30.1062 51.9871 29.9468 51.3279L32.5082 52.4045Z" fill="white" stroke="#263238" stroke-miterlimit="10" stroke-linecap="round" stroke-linejoin="round"/>
<path d="M28.9302 44.0269L29.5929 43.6841C29.5929 43.6841 31.4663 43.7007 32.6285 44.6452C33.6841 45.5032 34.2187 46.8483 34.2187 46.8483C34.2187 46.8483 38.3208 44.5836 42.5086 45.8831L44.218 55.4043L36.3645 55.9225L31.463 51.2616L28.9302 44.0269Z" fill="white" stroke="#263238" stroke-miterlimit="10" stroke-linecap="round" stroke-linejoin="round"/>
<path d="M44.7576 55.7851C44.7576 55.7851 43.8364 55.7574 42.6041 55.7982C40.7412 55.8566 38.1672 56.0669 36.9904 56.7516L36.935 56.7326L35.8575 56.3574C35.8575 56.3574 35.8502 56.3472 35.8356 56.3253C35.637 56.0304 34.0354 53.7338 31.7505 52.798L28.5151 43.7576C28.5151 43.7576 31.8746 43.908 33.7084 46.9375L34.6296 47.2704C34.6296 47.2704 40.1119 45.6469 43.1808 46.2309L44.7576 55.7851Z" fill="#09244B"/>
<mask id="mask2_607_975" style="mask-type:luminance" maskUnits="userSpaceOnUse" x="28" y="43" width="17" height="14">
<path d="M44.7576 55.7851C44.7576 55.7851 43.8364 55.7574 42.6041 55.7982C40.7412 55.8566 38.1672 56.0669 36.9904 56.7516L36.935 56.7326L35.8575 56.3574C35.8575 56.3574 35.8502 56.3472 35.8356 56.3253C35.637 56.0304 34.0354 53.7338 31.7505 52.798L28.5151 43.7576C28.5151 43.7576 31.8746 43.908 33.7084 46.9375L34.6296 47.2704C34.6296 47.2704 40.1119 45.6469 43.1808 46.2309L44.7576 55.7851Z" fill="white"/>
</mask>
<g mask="url(#mask2_607_975)">
<path opacity="0.3" d="M35.8356 56.3253C35.637 56.0304 34.0354 53.7338 31.7505 52.798L28.5151 43.7576C28.5151 43.7576 31.8746 43.908 33.7084 46.9375L35.8356 56.3253Z" fill="black" fill-opacity="0.7"/>
</g>
<mask id="mask3_607_975" style="mask-type:luminance" maskUnits="userSpaceOnUse" x="28" y="43" width="17" height="14">
<path d="M44.7576 55.7851C44.7576 55.7851 43.8364 55.7574 42.6041 55.7982C40.7412 55.8566 38.1672 56.0669 36.9904 56.7516L36.935 56.7326L35.8575 56.3574C35.8575 56.3574 35.8502 56.3472 35.8356 56.3253C35.637 56.0304 34.0354 53.7338 31.7505 52.798L28.5151 43.7576C28.5151 43.7576 31.8746 43.908 33.7084 46.9375L34.6296 47.2704C34.6296 47.2704 40.1119 45.6469 43.1808 46.2309L44.7576 55.7851Z" fill="white"/>
</mask>
<g mask="url(#mask3_607_975)">
<path opacity="0.3" d="M42.6042 55.7982C40.7412 55.8566 38.1672 56.0669 36.9905 56.7516L36.935 56.7326L34.783 47.5989C34.783 47.5989 36.5434 47.2034 37.0854 47.4032C37.0854 47.4032 40.664 50.0448 42.6042 55.7982Z" fill="black" fill-opacity="0.7"/>
</g>
<path d="M44.7576 55.7851C44.7576 55.7851 43.8364 55.7574 42.6041 55.7982C40.7412 55.8566 38.1672 56.0669 36.9904 56.7516L36.935 56.7326L35.8575 56.3574C35.8575 56.3574 35.8502 56.3472 35.8356 56.3253C35.637 56.0304 34.0354 53.7338 31.7505 52.798L28.5151 43.7576C28.5151 43.7576 31.8746 43.908 33.7084 46.9375L34.6296 47.2704C34.6296 47.2704 40.1119 45.6469 43.1808 46.2309L44.7576 55.7851Z" stroke="#263238" stroke-miterlimit="10" stroke-linecap="round" stroke-linejoin="round"/>
<path d="M34.6292 47.2707L36.7422 56.0351" stroke="#263238" stroke-miterlimit="10" stroke-linecap="round" stroke-linejoin="round"/>
<path d="M35.8578 56.3582L33.8052 47.5992" stroke="#263238" stroke-miterlimit="10" stroke-linecap="round" stroke-linejoin="round"/>
<path d="M30.6424 52.5677C30.1732 52.4372 29.2288 49.6204 29.6617 48.4083C29.6617 48.4083 30.1756 47.5161 30.3847 47.4551C30.7125 47.3595 32.0322 47.3874 31.9684 47.6094C31.8208 48.1229 30.8083 48.1143 30.8083 48.1143L30.4796 48.7155L30.4938 49.0475C30.4938 49.0475 30.9703 48.7 31.1463 48.7094C31.2358 48.7142 31.7037 48.9434 32.0744 49.1398C32.3916 49.3078 32.5854 49.3985 32.5144 49.5514C32.2797 50.0564 31.2781 49.702 31.2781 49.702L30.9023 50.2688C30.9023 50.2688 31.2657 50.3317 31.4253 50.3501C31.5997 50.3703 32.9056 51.247 32.8656 51.3571C32.7098 51.7863 31.4565 51.3221 31.4565 51.3221L31.2344 51.5067C31.2344 51.5067 32.1582 51.7456 32.2519 51.7801C32.3989 51.8342 32.9612 52.2673 32.9524 52.3165C32.8848 52.6958 32.1093 52.4168 32.1093 52.4168L31.431 52.3892C31.431 52.3892 31.294 52.5216 31.068 52.5765" fill="white"/>
<path d="M30.6424 52.5677C30.1732 52.4372 29.2288 49.6204 29.6617 48.4083C29.6617 48.4083 30.1756 47.5161 30.3847 47.4551C30.7125 47.3595 32.0322 47.3874 31.9684 47.6094C31.8208 48.1229 30.8083 48.1143 30.8083 48.1143L30.4796 48.7155L30.4938 49.0475C30.4938 49.0475 30.9703 48.7 31.1463 48.7094C31.2358 48.7142 31.7037 48.9434 32.0744 49.1398C32.3916 49.3078 32.5854 49.3985 32.5144 49.5514C32.2797 50.0564 31.2781 49.702 31.2781 49.702L30.9023 50.2688C30.9023 50.2688 31.2657 50.3317 31.4253 50.3501C31.5997 50.3703 32.9056 51.247 32.8656 51.3571C32.7098 51.7863 31.4565 51.3221 31.4565 51.3221L31.2344 51.5067C31.2344 51.5067 32.1582 51.7456 32.2519 51.7801C32.3989 51.8342 32.9612 52.2673 32.9524 52.3165C32.8848 52.6958 32.1093 52.4168 32.1093 52.4168L31.431 52.3892C31.431 52.3892 31.294 52.5216 31.068 52.5765" stroke="#263238" stroke-miterlimit="10" stroke-linecap="round" stroke-linejoin="round"/>
<path d="M30.4939 49.0475C30.4939 49.0475 30.0607 49.4157 29.9425 49.5217C29.8242 49.6277 29.8576 49.9672 29.8576 49.9672" stroke="#263238" stroke-miterlimit="10" stroke-linecap="round" stroke-linejoin="round"/>
<path d="M30.1763 50.714C30.1735 51.0858 30.4248 51.3101 30.5391 51.4298C30.6534 51.5495 30.3562 51.8755 30.6841 52.1093" stroke="#263238" stroke-miterlimit="10" stroke-linecap="round" stroke-linejoin="round"/>
<path d="M51.8022 62.469C50.8751 62.7216 49.8678 61.0922 48.6384 59.3139V59.3125C47.8267 58.1386 46.9185 56.8991 45.8746 56.0961C45.7914 56.0333 45.7068 55.972 45.6221 55.9136L46.2323 52.852C47.4996 53.5163 48.2851 54.5806 49.6006 55.6741C51.7176 57.4364 53.5937 58.5182 54.1134 59.2979C54.6332 60.0775 53.3907 62.0354 51.8022 62.469Z" fill="white"/>
<mask id="mask4_607_975" style="mask-type:luminance" maskUnits="userSpaceOnUse" x="45" y="52" width="10" height="11">
<path d="M51.8022 62.469C50.8751 62.7216 49.8678 61.0922 48.6384 59.3139V59.3125C47.8267 58.1386 46.9185 56.8991 45.8746 56.0961C45.7914 56.0333 45.7068 55.972 45.6221 55.9136L46.2323 52.852C47.4996 53.5163 48.2851 54.5806 49.6006 55.6741C51.7176 57.4364 53.5937 58.5182 54.1134 59.2979C54.6332 60.0775 53.3907 62.0354 51.8022 62.469Z" fill="white"/>
</mask>
<g mask="url(#mask4_607_975)">
<path opacity="0.4" d="M48.6385 59.3125C47.8268 58.1386 46.9187 56.8991 45.8748 56.0961C46.0616 56.0932 46.2047 56.0742 46.2792 56.0348C46.2792 56.0348 47.929 57.378 48.6385 59.3125Z" fill="#09244B"/>
</g>
<path d="M51.8022 62.469C50.8751 62.7216 49.8678 61.0922 48.6384 59.3139V59.3125C47.8267 58.1386 46.9185 56.8991 45.8746 56.0961C45.7914 56.0333 45.7068 55.972 45.6221 55.9136L46.2323 52.852C47.4996 53.5163 48.2851 54.5806 49.6006 55.6741C51.7176 57.4364 53.5937 58.5182 54.1134 59.2979C54.6332 60.0775 53.3907 62.0354 51.8022 62.469Z" stroke="#263238" stroke-miterlimit="10" stroke-linecap="round" stroke-linejoin="round"/>
<path d="M46.5753 55.7982C46.5242 55.9048 46.4206 55.9807 46.279 56.0348C46.2468 56.0479 46.2133 56.0581 46.1782 56.0683C46.1709 56.0698 46.1607 56.0713 46.1505 56.0742C45.1708 56.3297 42.9662 55.7982 42.9662 55.7982C42.9662 55.7982 41.5223 55.112 41.4347 54.95C41.3807 54.8463 41.315 54.6711 41.2726 54.5558C41.2493 54.4872 41.2332 54.4404 41.2332 54.4404C41.2332 54.4404 40.7134 54.1514 40.655 53.9207C40.5981 53.69 40.4813 53.6316 40.7996 53.5878C41.1179 53.5455 42.8494 53.5878 42.8494 53.5878L40.9733 52.8228C40.9733 52.8228 39.7309 52.1964 39.6155 51.976C39.5002 51.754 39.3556 51.6095 39.9907 51.6971C40.6258 51.7832 42.0128 52.1877 42.0128 52.1877L43.0991 52.4183L42.0128 51.9555C42.0128 51.9555 39.8754 51.6971 40.2798 51.0328C40.2798 51.0328 41.0887 51.0328 41.4931 51.0328C41.8975 51.0328 43.1911 51.1846 43.5429 51.2927C43.8962 51.4007 46.2322 52.852 46.2322 52.852" fill="white"/>
<mask id="mask5_607_975" style="mask-type:luminance" maskUnits="userSpaceOnUse" x="39" y="51" width="8" height="6">
<path d="M46.5753 55.7982C46.5242 55.9048 46.4206 55.9807 46.279 56.0348C46.2468 56.0479 46.2133 56.0581 46.1782 56.0683C46.1709 56.0698 46.1607 56.0713 46.1505 56.0742C45.1708 56.3297 42.9662 55.7982 42.9662 55.7982C42.9662 55.7982 41.5223 55.112 41.4347 54.95C41.3807 54.8463 41.315 54.6711 41.2726 54.5558C41.2493 54.4872 41.2332 54.4404 41.2332 54.4404C41.2332 54.4404 40.7134 54.1514 40.655 53.9207C40.5981 53.69 40.4813 53.6316 40.7996 53.5878C41.1179 53.5455 42.8494 53.5878 42.8494 53.5878L40.9733 52.8228C40.9733 52.8228 39.7309 52.1964 39.6155 51.976C39.5002 51.754 39.3556 51.6095 39.9907 51.6971C40.6258 51.7832 42.0128 52.1877 42.0128 52.1877L43.0991 52.4183L42.0128 51.9555C42.0128 51.9555 39.8754 51.6971 40.2798 51.0328C40.2798 51.0328 41.0887 51.0328 41.4931 51.0328C41.8975 51.0328 43.1911 51.1846 43.5429 51.2927C43.8962 51.4007 46.2322 52.852 46.2322 52.852" fill="white"/>
</mask>
<g mask="url(#mask5_607_975)">
<path opacity="0.4" d="M46.1506 56.0742C45.1709 56.3297 42.9663 55.7982 42.9663 55.7982C42.9663 55.7982 41.5224 55.112 41.4348 54.95C41.3807 54.8463 41.315 54.6711 41.2727 54.5558L43.0451 54.7543C43.0451 54.7543 42.832 55.1004 43.0451 55.4814C43.2422 55.8347 45.4877 56.1939 46.1506 56.0742Z" fill="#09244B"/>
</g>
<path d="M46.5753 55.7982C46.5242 55.9048 46.4206 55.9807 46.279 56.0348C46.2468 56.0479 46.2133 56.0581 46.1782 56.0683C46.1709 56.0698 46.1607 56.0713 46.1505 56.0742C45.1708 56.3297 42.9662 55.7982 42.9662 55.7982C42.9662 55.7982 41.5223 55.112 41.4347 54.95C41.3807 54.8463 41.315 54.6711 41.2726 54.5558C41.2493 54.4872 41.2332 54.4404 41.2332 54.4404C41.2332 54.4404 40.7134 54.1514 40.655 53.9207C40.5981 53.69 40.4813 53.6316 40.7996 53.5878C41.1179 53.5455 42.8494 53.5878 42.8494 53.5878L40.9733 52.8228C40.9733 52.8228 39.7309 52.1964 39.6155 51.976C39.5002 51.754 39.3556 51.6095 39.9907 51.6971C40.6258 51.7832 42.0128 52.1877 42.0128 52.1877L43.0991 52.4183L42.0128 51.9555C42.0128 51.9555 39.8754 51.6971 40.2798 51.0328C40.2798 51.0328 41.0887 51.0328 41.4931 51.0328C41.8975 51.0328 43.1911 51.1846 43.5429 51.2927C43.8962 51.4007 46.2322 52.852 46.2322 52.852" stroke="#263238" stroke-miterlimit="10" stroke-linecap="round" stroke-linejoin="round"/>
<path d="M41.2329 54.4403L43.3667 54.7539" stroke="#263238" stroke-miterlimit="10" stroke-linecap="round" stroke-linejoin="round"/>
<path d="M19.9707 60.9721L25.3165 62.5832L35.1002 60.351C35.1002 60.351 29.1245 58.6501 29.0684 58.691C29.0122 58.7319 19.9707 60.9721 19.9707 60.9721Z" fill="#09244B"/>
<mask id="mask6_607_975" style="mask-type:luminance" maskUnits="userSpaceOnUse" x="19" y="58" width="17" height="5">
<path d="M19.9707 60.9721L25.3165 62.5832L35.1002 60.351C35.1002 60.351 29.1245 58.6501 29.0684 58.691C29.0122 58.7319 19.9707 60.9721 19.9707 60.9721Z" fill="white"/>
</mask>
<g mask="url(#mask6_607_975)">
<path opacity="0.3" d="M19.9707 60.9721L25.3165 62.5832L35.1002 60.351C35.1002 60.351 29.1245 58.6501 29.0684 58.691C29.0122 58.7319 19.9707 60.9721 19.9707 60.9721Z" fill="black" fill-opacity="0.7"/>
</g>
<path d="M19.9707 60.9721L25.3165 62.5832L35.1002 60.351C35.1002 60.351 29.1245 58.6501 29.0684 58.691C29.0122 58.7319 19.9707 60.9721 19.9707 60.9721Z" stroke="#263238" stroke-miterlimit="10" stroke-linecap="round" stroke-linejoin="round"/>
<path d="M20.0474 59.0893C19.6728 59.1153 19.5786 60.468 19.9707 60.9722L28.6067 59.1802L29.2996 57.5415L20.0474 59.0893Z" fill="#09244B"/>
<mask id="mask7_607_975" style="mask-type:luminance" maskUnits="userSpaceOnUse" x="19" y="57" width="11" height="4">
<path d="M20.0474 59.0893C19.6728 59.1153 19.5786 60.468 19.9707 60.9722L28.6067 59.1802L29.2996 57.5415L20.0474 59.0893Z" fill="white"/>
</mask>
<g mask="url(#mask7_607_975)">
<path opacity="0.3" d="M20.0474 59.0893C19.6728 59.1153 19.5786 60.468 19.9707 60.9722L28.6067 59.1802L29.2996 57.5415L20.0474 59.0893Z" fill="black" fill-opacity="0.7"/>
</g>
<path d="M20.0474 59.0893C19.6728 59.1153 19.5786 60.468 19.9707 60.9722L28.6067 59.1802L29.2996 57.5415L20.0474 59.0893Z" stroke="#263238" stroke-miterlimit="10" stroke-linecap="round" stroke-linejoin="round"/>
<path d="M34.6797 59.0697C34.6797 59.0697 34.5511 59.7816 34.6345 60.2187L25.3061 62.3304L20.389 60.8852C20.389 60.8852 19.8777 59.981 20.3231 59.2811L29.3082 57.7561L34.6797 59.0697Z" fill="white" stroke="#263238" stroke-miterlimit="10" stroke-linecap="round" stroke-linejoin="round"/>
<path d="M20.0474 59.0892L29.2994 57.5414L35.0445 58.997L25.3815 60.9227L20.0474 59.0892Z" fill="#09244B" stroke="#263238" stroke-miterlimit="10" stroke-linecap="round" stroke-linejoin="round"/>
<path d="M20.3755 59.9536L25.2682 61.4098L33.2758 59.7984" stroke="#263238" stroke-miterlimit="10" stroke-linecap="round" stroke-linejoin="round"/>
<path d="M34.6075 59.9471L25.9966 61.7846" stroke="#263238" stroke-miterlimit="10" stroke-linecap="round" stroke-linejoin="round"/>
<path d="M20.4919 60.5268C20.5652 60.5342 24.1798 61.6472 24.1798 61.6472" stroke="#263238" stroke-miterlimit="10" stroke-linecap="round" stroke-linejoin="round"/>
<path d="M33.9038 59.61L34.5891 59.4989" stroke="#263238" stroke-miterlimit="10" stroke-linecap="round" stroke-linejoin="round"/>
<path d="M25.1083 61.9173L24.7461 61.8358" stroke="#263238" stroke-miterlimit="10" stroke-linecap="round" stroke-linejoin="round"/>
<path d="M20.3232 59.2812C20.3232 59.2812 20.9859 59.9819 20.389 60.8854C20.389 60.8854 19.8367 60.1491 20.3232 59.2812Z" fill="#263238"/>
<mask id="mask8_607_975" style="mask-type:luminance" maskUnits="userSpaceOnUse" x="20" y="59" width="1" height="2">
<path d="M20.3232 59.2812C20.3232 59.2812 20.9859 59.9819 20.389 60.8854C20.389 60.8854 19.8367 60.1491 20.3232 59.2812Z" fill="white"/>
</mask>
<g mask="url(#mask8_607_975)">
<path opacity="0.3" d="M20.3232 59.2812C20.3232 59.2812 20.9859 59.9819 20.389 60.8854C20.389 60.8854 19.8367 60.1491 20.3232 59.2812Z" fill="white" fill-opacity="0.7"/>
</g>
<path d="M20.3232 59.2812C20.3232 59.2812 20.9859 59.9819 20.389 60.8854C20.389 60.8854 19.8367 60.1491 20.3232 59.2812Z" stroke="#263238" stroke-miterlimit="10" stroke-linecap="round" stroke-linejoin="round"/>
<path d="M40.3065 61.4098L49.6433 61.7932L48.7327 65.0069L37.248 64.5689L40.3065 61.4098Z" fill="white"/>
<mask id="mask9_607_975" style="mask-type:luminance" maskUnits="userSpaceOnUse" x="37" y="61" width="13" height="5">
<path d="M40.3065 61.4098L49.6433 61.7932L48.7327 65.0069L37.248 64.5689L40.3065 61.4098Z" fill="white"/>
</mask>
<g mask="url(#mask9_607_975)">
<path opacity="0.4" d="M40.3065 61.4098L49.6433 61.7932L48.7327 65.0069L37.248 64.5689L40.3065 61.4098Z" fill="#09244B"/>
</g>
<path d="M40.3065 61.4098L49.6433 61.7932L48.7327 65.0069L37.248 64.5689L40.3065 61.4098Z" stroke="#263238" stroke-miterlimit="10" stroke-linecap="round" stroke-linejoin="round"/>
</svg>
